%TF.GenerationSoftware,KiCad,Pcbnew,7.0.7*%
%TF.CreationDate,2023-11-14T16:57:36+01:00*%
%TF.ProjectId,ssr25router,73737232-3572-46f7-9574-65722e6b6963,rev?*%
%TF.SameCoordinates,Original*%
%TF.FileFunction,Legend,Top*%
%TF.FilePolarity,Positive*%
%FSLAX46Y46*%
G04 Gerber Fmt 4.6, Leading zero omitted, Abs format (unit mm)*
G04 Created by KiCad (PCBNEW 7.0.7) date 2023-11-14 16:57:36*
%MOMM*%
%LPD*%
G01*
G04 APERTURE LIST*
%ADD10C,0.300000*%
%ADD11C,0.150000*%
%ADD12C,0.100000*%
%ADD13C,0.250000*%
%ADD14C,0.120000*%
G04 APERTURE END LIST*
D10*
G36*
X149369854Y-74765219D02*
G01*
X149466121Y-74861486D01*
X149510828Y-74950898D01*
X149510828Y-75165793D01*
X149466122Y-75255206D01*
X149369854Y-75351473D01*
X149142364Y-75408346D01*
X148679292Y-75408346D01*
X148451801Y-75351473D01*
X148355535Y-75255206D01*
X148310828Y-75165793D01*
X148310828Y-74950899D01*
X148355535Y-74861485D01*
X148451801Y-74765219D01*
X148679292Y-74708346D01*
X149142363Y-74708346D01*
X149369854Y-74765219D01*
G37*
G36*
X149082257Y-72564517D02*
G01*
X148635168Y-72415488D01*
X149082257Y-72266458D01*
X149082257Y-72564517D01*
G37*
G36*
X148714830Y-70753051D02*
G01*
X148751835Y-70790056D01*
X148796542Y-70879469D01*
X148796542Y-71265489D01*
X148310828Y-71265489D01*
X148310828Y-70879470D01*
X148355535Y-70790055D01*
X148392539Y-70753051D01*
X148481952Y-70708346D01*
X148625418Y-70708346D01*
X148714830Y-70753051D01*
G37*
G36*
X148714830Y-66610194D02*
G01*
X148751835Y-66647199D01*
X148796542Y-66736612D01*
X148796542Y-67122632D01*
X148310828Y-67122632D01*
X148310828Y-66736613D01*
X148355535Y-66647198D01*
X148392539Y-66610194D01*
X148481952Y-66565489D01*
X148625418Y-66565489D01*
X148714830Y-66610194D01*
G37*
G36*
X148714830Y-63824480D02*
G01*
X148751835Y-63861485D01*
X148796542Y-63950898D01*
X148796542Y-64336918D01*
X148310828Y-64336918D01*
X148310828Y-63950899D01*
X148355535Y-63861484D01*
X148392539Y-63824480D01*
X148481952Y-63779775D01*
X148625418Y-63779775D01*
X148714830Y-63824480D01*
G37*
G36*
X149369854Y-61122362D02*
G01*
X149466121Y-61218629D01*
X149510828Y-61308041D01*
X149510828Y-61522936D01*
X149466122Y-61612349D01*
X149369854Y-61708616D01*
X149142364Y-61765489D01*
X148679292Y-61765489D01*
X148451801Y-61708616D01*
X148355535Y-61612349D01*
X148310828Y-61522936D01*
X148310828Y-61308042D01*
X148355535Y-61218628D01*
X148451801Y-61122362D01*
X148679292Y-61065489D01*
X149142363Y-61065489D01*
X149369854Y-61122362D01*
G37*
G36*
X148714830Y-58467337D02*
G01*
X148751835Y-58504342D01*
X148796542Y-58593755D01*
X148796542Y-58979775D01*
X148310828Y-58979775D01*
X148310828Y-58593756D01*
X148355535Y-58504341D01*
X148392539Y-58467337D01*
X148481952Y-58422632D01*
X148625418Y-58422632D01*
X148714830Y-58467337D01*
G37*
G36*
X149369854Y-56908076D02*
G01*
X149466121Y-57004343D01*
X149510828Y-57093755D01*
X149510828Y-57308650D01*
X149466122Y-57398063D01*
X149369854Y-57494330D01*
X149142364Y-57551203D01*
X148679292Y-57551203D01*
X148451801Y-57494330D01*
X148355535Y-57398064D01*
X148310828Y-57308650D01*
X148310828Y-57093756D01*
X148355535Y-57004342D01*
X148451801Y-56908076D01*
X148679292Y-56851203D01*
X149142363Y-56851203D01*
X149369854Y-56908076D01*
G37*
G36*
X148714830Y-51324479D02*
G01*
X148751835Y-51361484D01*
X148796542Y-51450897D01*
X148796542Y-51836917D01*
X148310828Y-51836917D01*
X148310828Y-51450898D01*
X148355535Y-51361483D01*
X148392539Y-51324479D01*
X148481952Y-51279774D01*
X148625418Y-51279774D01*
X148714830Y-51324479D01*
G37*
G36*
X150025114Y-77351203D02*
G01*
X147796542Y-77351203D01*
X147796542Y-76701203D01*
X148010828Y-76701203D01*
X148019751Y-76734504D01*
X148026664Y-76768285D01*
X148098093Y-76911142D01*
X148114115Y-76929210D01*
X148126190Y-76950125D01*
X148197618Y-77021554D01*
X148218533Y-77033629D01*
X148236603Y-77049653D01*
X148379461Y-77121081D01*
X148413236Y-77127992D01*
X148446542Y-77136917D01*
X148589400Y-77136917D01*
X148622703Y-77127993D01*
X148656482Y-77121081D01*
X148799339Y-77049653D01*
X148817408Y-77033629D01*
X148838324Y-77021554D01*
X148909752Y-76950125D01*
X148921826Y-76929210D01*
X148937849Y-76911142D01*
X149009278Y-76768286D01*
X149012598Y-76752059D01*
X149020635Y-76737583D01*
X149088068Y-76467845D01*
X149141249Y-76361485D01*
X149178254Y-76324480D01*
X149267667Y-76279774D01*
X149339704Y-76279774D01*
X149429117Y-76324481D01*
X149466121Y-76361485D01*
X149510828Y-76450898D01*
X149510828Y-76748289D01*
X149447097Y-76939483D01*
X149442445Y-77016989D01*
X149477170Y-77086438D01*
X149541966Y-77129220D01*
X149619472Y-77133872D01*
X149688921Y-77099147D01*
X149731703Y-77034351D01*
X149803131Y-76820066D01*
X149804578Y-76795957D01*
X149810828Y-76772632D01*
X149810828Y-76415489D01*
X149801903Y-76382183D01*
X149794992Y-76348408D01*
X149723564Y-76205550D01*
X149707540Y-76187480D01*
X149695466Y-76166566D01*
X149624037Y-76095137D01*
X149603121Y-76083061D01*
X149585053Y-76067039D01*
X149442196Y-75995610D01*
X149408415Y-75988697D01*
X149375114Y-75979774D01*
X149232257Y-75979774D01*
X149198956Y-75988696D01*
X149165174Y-75995610D01*
X149022318Y-76067039D01*
X149004249Y-76083061D01*
X148983334Y-76095137D01*
X148911905Y-76166566D01*
X148899829Y-76187481D01*
X148883807Y-76205550D01*
X148812378Y-76348407D01*
X148809057Y-76364631D01*
X148801021Y-76379109D01*
X148733586Y-76648846D01*
X148680406Y-76755206D01*
X148643401Y-76792211D01*
X148553990Y-76836917D01*
X148481952Y-76836917D01*
X148392539Y-76792211D01*
X148355535Y-76755207D01*
X148310828Y-76665792D01*
X148310828Y-76368400D01*
X148374559Y-76177209D01*
X148379212Y-76099703D01*
X148344488Y-76030254D01*
X148279691Y-75987472D01*
X148202185Y-75982819D01*
X148132736Y-76017544D01*
X148089954Y-76082340D01*
X148018526Y-76296626D01*
X148017078Y-76320731D01*
X148010828Y-76344060D01*
X148010828Y-76701203D01*
X147796542Y-76701203D01*
X147796542Y-75201203D01*
X148010828Y-75201203D01*
X148019751Y-75234504D01*
X148026664Y-75268285D01*
X148098093Y-75411143D01*
X148114116Y-75429212D01*
X148126191Y-75450127D01*
X148269048Y-75592984D01*
X148270176Y-75593635D01*
X148270847Y-75594753D01*
X148303707Y-75612994D01*
X148336291Y-75631807D01*
X148337596Y-75631807D01*
X148338734Y-75632439D01*
X148624448Y-75703867D01*
X148642950Y-75703555D01*
X148660828Y-75708346D01*
X149160828Y-75708346D01*
X149178705Y-75703555D01*
X149197208Y-75703867D01*
X149482922Y-75632439D01*
X149484060Y-75631807D01*
X149485364Y-75631807D01*
X149517934Y-75613002D01*
X149550809Y-75594753D01*
X149551479Y-75593635D01*
X149552608Y-75592984D01*
X149695466Y-75450127D01*
X149707543Y-75429209D01*
X149723564Y-75411142D01*
X149794993Y-75268284D01*
X149801906Y-75234499D01*
X149810828Y-75201203D01*
X149810828Y-74915489D01*
X149801903Y-74882183D01*
X149794992Y-74848408D01*
X149723564Y-74705550D01*
X149707541Y-74687480D01*
X149695466Y-74666566D01*
X149552608Y-74523709D01*
X149551479Y-74523057D01*
X149550809Y-74521940D01*
X149517934Y-74503690D01*
X149485364Y-74484886D01*
X149484060Y-74484886D01*
X149482922Y-74484254D01*
X149197209Y-74412825D01*
X149178704Y-74413136D01*
X149160828Y-74408346D01*
X148660828Y-74408346D01*
X148642951Y-74413136D01*
X148624447Y-74412825D01*
X148338733Y-74484254D01*
X148337595Y-74484886D01*
X148336291Y-74484886D01*
X148303719Y-74503691D01*
X148270847Y-74521940D01*
X148270176Y-74523057D01*
X148269048Y-74523709D01*
X148126191Y-74666566D01*
X148114115Y-74687481D01*
X148098093Y-74705550D01*
X148026664Y-74848407D01*
X148019751Y-74882187D01*
X148010828Y-74915489D01*
X148010828Y-75201203D01*
X147796542Y-75201203D01*
X147796542Y-73915489D01*
X148010828Y-73915489D01*
X148030924Y-73990489D01*
X148085828Y-74045393D01*
X148160828Y-74065489D01*
X149660828Y-74065489D01*
X149735828Y-74045393D01*
X149790732Y-73990489D01*
X149810828Y-73915489D01*
X149810828Y-73201203D01*
X149790732Y-73126203D01*
X149735828Y-73071299D01*
X149695043Y-73060371D01*
X149760349Y-73027719D01*
X149803131Y-72962922D01*
X149807783Y-72885416D01*
X149773059Y-72815967D01*
X149708262Y-72773186D01*
X149382257Y-72664517D01*
X149382257Y-72166458D01*
X149708262Y-72057790D01*
X149773059Y-72015009D01*
X149807783Y-71945560D01*
X149803131Y-71868054D01*
X149760349Y-71803257D01*
X149690900Y-71768533D01*
X149613394Y-71773185D01*
X148113394Y-72273186D01*
X148088255Y-72289783D01*
X148061307Y-72303258D01*
X148056252Y-72310912D01*
X148048598Y-72315967D01*
X148035123Y-72342915D01*
X148018526Y-72368054D01*
X148017976Y-72377209D01*
X148013873Y-72385416D01*
X148015678Y-72415488D01*
X148013873Y-72445560D01*
X148017976Y-72453766D01*
X148018526Y-72462922D01*
X148035123Y-72488060D01*
X148048598Y-72515009D01*
X148056252Y-72520063D01*
X148061307Y-72527718D01*
X148088255Y-72541192D01*
X148113394Y-72557790D01*
X149613394Y-73057791D01*
X149632059Y-73058911D01*
X149585828Y-73071299D01*
X149530924Y-73126203D01*
X149510828Y-73201203D01*
X149510828Y-73765489D01*
X148160828Y-73765489D01*
X148085828Y-73785585D01*
X148030924Y-73840489D01*
X148010828Y-73915489D01*
X147796542Y-73915489D01*
X147796542Y-71415489D01*
X148010828Y-71415489D01*
X148030924Y-71490489D01*
X148085828Y-71545393D01*
X148160828Y-71565489D01*
X148946542Y-71565489D01*
X149660828Y-71565489D01*
X149735828Y-71545393D01*
X149790732Y-71490489D01*
X149810828Y-71415489D01*
X149790732Y-71340489D01*
X149735828Y-71285585D01*
X149660828Y-71265489D01*
X149096542Y-71265489D01*
X149096542Y-71136444D01*
X149746847Y-70681231D01*
X149796765Y-70621758D01*
X149810259Y-70545293D01*
X149783713Y-70472327D01*
X149724240Y-70422409D01*
X149647775Y-70408915D01*
X149574809Y-70435461D01*
X149081485Y-70780787D01*
X149080706Y-70776979D01*
X149009278Y-70634121D01*
X148993254Y-70616051D01*
X148981180Y-70595137D01*
X148909751Y-70523708D01*
X148888836Y-70511633D01*
X148870767Y-70495610D01*
X148727910Y-70424182D01*
X148694131Y-70417269D01*
X148660828Y-70408346D01*
X148446542Y-70408346D01*
X148413236Y-70417270D01*
X148379461Y-70424182D01*
X148236603Y-70495610D01*
X148218533Y-70511633D01*
X148197618Y-70523709D01*
X148126190Y-70595138D01*
X148114115Y-70616052D01*
X148098093Y-70634121D01*
X148026664Y-70776978D01*
X148019751Y-70810758D01*
X148010828Y-70844060D01*
X148010828Y-71415488D01*
X148010828Y-71415489D01*
X147796542Y-71415489D01*
X147796542Y-68344060D01*
X148010828Y-68344060D01*
X148017078Y-68367388D01*
X148018526Y-68391494D01*
X148089954Y-68605780D01*
X148108953Y-68634555D01*
X148126191Y-68664412D01*
X148269048Y-68807269D01*
X148289963Y-68819344D01*
X148308032Y-68835367D01*
X148450888Y-68906796D01*
X148467114Y-68910116D01*
X148481591Y-68918153D01*
X148767305Y-68989581D01*
X148785807Y-68989269D01*
X148803685Y-68994060D01*
X149017971Y-68994060D01*
X149035848Y-68989269D01*
X149054351Y-68989581D01*
X149340065Y-68918153D01*
X149354542Y-68910116D01*
X149370767Y-68906796D01*
X149513624Y-68835367D01*
X149531693Y-68819344D01*
X149552608Y-68807269D01*
X149695466Y-68664412D01*
X149712705Y-68634552D01*
X149731703Y-68605780D01*
X149803131Y-68391494D01*
X149804578Y-68367385D01*
X149810828Y-68344060D01*
X149810828Y-68201203D01*
X149804578Y-68177877D01*
X149803131Y-68153769D01*
X149731703Y-67939483D01*
X149712703Y-67910707D01*
X149695465Y-67880850D01*
X149624036Y-67809422D01*
X149556793Y-67770600D01*
X149479147Y-67770600D01*
X149411904Y-67809424D01*
X149373082Y-67876667D01*
X149373082Y-67954313D01*
X149411906Y-68021556D01*
X149458294Y-68067943D01*
X149510828Y-68225545D01*
X149510828Y-68319717D01*
X149458294Y-68477319D01*
X149357688Y-68577924D01*
X149251328Y-68631105D01*
X148999507Y-68694060D01*
X148822149Y-68694060D01*
X148570327Y-68631104D01*
X148463968Y-68577925D01*
X148363361Y-68477318D01*
X148310828Y-68319719D01*
X148310828Y-68225543D01*
X148363361Y-68067944D01*
X148409751Y-68021555D01*
X148448574Y-67954312D01*
X148448574Y-67876666D01*
X148409751Y-67809423D01*
X148342508Y-67770600D01*
X148264862Y-67770600D01*
X148197619Y-67809423D01*
X148126191Y-67880851D01*
X148108953Y-67910707D01*
X148089954Y-67939483D01*
X148018526Y-68153769D01*
X148017078Y-68177874D01*
X148010828Y-68201203D01*
X148010828Y-68344060D01*
X147796542Y-68344060D01*
X147796542Y-67272632D01*
X148010828Y-67272632D01*
X148030924Y-67347632D01*
X148085828Y-67402536D01*
X148160828Y-67422632D01*
X148946542Y-67422632D01*
X149660828Y-67422632D01*
X149735828Y-67402536D01*
X149790732Y-67347632D01*
X149810828Y-67272632D01*
X149790732Y-67197632D01*
X149735828Y-67142728D01*
X149660828Y-67122632D01*
X149096542Y-67122632D01*
X149096542Y-66993587D01*
X149746847Y-66538374D01*
X149796765Y-66478901D01*
X149810259Y-66402436D01*
X149783713Y-66329470D01*
X149724240Y-66279552D01*
X149647775Y-66266058D01*
X149574809Y-66292604D01*
X149081485Y-66637930D01*
X149080706Y-66634122D01*
X149009278Y-66491264D01*
X148993254Y-66473194D01*
X148981180Y-66452280D01*
X148909751Y-66380851D01*
X148888836Y-66368776D01*
X148870767Y-66352753D01*
X148727910Y-66281325D01*
X148694131Y-66274412D01*
X148660828Y-66265489D01*
X148446542Y-66265489D01*
X148413236Y-66274413D01*
X148379461Y-66281325D01*
X148236603Y-66352753D01*
X148218533Y-66368776D01*
X148197618Y-66380852D01*
X148126190Y-66452281D01*
X148114115Y-66473195D01*
X148098093Y-66491264D01*
X148026664Y-66634121D01*
X148019751Y-66667901D01*
X148010828Y-66701203D01*
X148010828Y-67272632D01*
X147796542Y-67272632D01*
X147796542Y-65993385D01*
X148010967Y-65993385D01*
X148034279Y-66067448D01*
X148091499Y-66119934D01*
X148167296Y-66136778D01*
X148241359Y-66113466D01*
X148990221Y-65636917D01*
X149660828Y-65636917D01*
X149735828Y-65616821D01*
X149790732Y-65561917D01*
X149810828Y-65486917D01*
X149790732Y-65411917D01*
X149735828Y-65357013D01*
X149660828Y-65336917D01*
X148990221Y-65336917D01*
X148241359Y-64860368D01*
X148167296Y-64837056D01*
X148091499Y-64853900D01*
X148034279Y-64906386D01*
X148010967Y-64980449D01*
X148027811Y-65056246D01*
X148080297Y-65113466D01*
X148667147Y-65486917D01*
X148080297Y-65860368D01*
X148027811Y-65917588D01*
X148010967Y-65993385D01*
X147796542Y-65993385D01*
X147796542Y-64486918D01*
X148010828Y-64486918D01*
X148030924Y-64561918D01*
X148085828Y-64616822D01*
X148160828Y-64636918D01*
X148946542Y-64636918D01*
X149660828Y-64636918D01*
X149735828Y-64616822D01*
X149790732Y-64561918D01*
X149810828Y-64486918D01*
X149790732Y-64411918D01*
X149735828Y-64357014D01*
X149660828Y-64336918D01*
X149096542Y-64336918D01*
X149096542Y-63915489D01*
X149087617Y-63882183D01*
X149080706Y-63848408D01*
X149009278Y-63705550D01*
X148993254Y-63687480D01*
X148981180Y-63666566D01*
X148909751Y-63595137D01*
X148888836Y-63583062D01*
X148870767Y-63567039D01*
X148727910Y-63495611D01*
X148694131Y-63488698D01*
X148660828Y-63479775D01*
X148446542Y-63479775D01*
X148413236Y-63488699D01*
X148379461Y-63495611D01*
X148236603Y-63567039D01*
X148218533Y-63583062D01*
X148197618Y-63595138D01*
X148126190Y-63666567D01*
X148114115Y-63687481D01*
X148098093Y-63705550D01*
X148026664Y-63848407D01*
X148019751Y-63882187D01*
X148010828Y-63915489D01*
X148010828Y-64486918D01*
X147796542Y-64486918D01*
X147796542Y-63201203D01*
X148010828Y-63201203D01*
X148030924Y-63276203D01*
X148085828Y-63331107D01*
X148160828Y-63351203D01*
X148235828Y-63331107D01*
X148290732Y-63276203D01*
X148310828Y-63201203D01*
X148310828Y-62922632D01*
X149660828Y-62922632D01*
X149735828Y-62902536D01*
X149790732Y-62847632D01*
X149810828Y-62772632D01*
X149790732Y-62697632D01*
X149735828Y-62642728D01*
X149660828Y-62622632D01*
X148310828Y-62622632D01*
X148310828Y-62344061D01*
X148290732Y-62269061D01*
X148235828Y-62214157D01*
X148160828Y-62194061D01*
X148085828Y-62214157D01*
X148030924Y-62269061D01*
X148010828Y-62344061D01*
X148010828Y-63201203D01*
X147796542Y-63201203D01*
X147796542Y-61558346D01*
X148010828Y-61558346D01*
X148019751Y-61591647D01*
X148026664Y-61625428D01*
X148098093Y-61768286D01*
X148114116Y-61786355D01*
X148126191Y-61807270D01*
X148269048Y-61950127D01*
X148270176Y-61950778D01*
X148270847Y-61951896D01*
X148303707Y-61970137D01*
X148336291Y-61988950D01*
X148337596Y-61988950D01*
X148338734Y-61989582D01*
X148624448Y-62061010D01*
X148642950Y-62060698D01*
X148660828Y-62065489D01*
X149160828Y-62065489D01*
X149178705Y-62060698D01*
X149197208Y-62061010D01*
X149482922Y-61989582D01*
X149484060Y-61988950D01*
X149485364Y-61988950D01*
X149517934Y-61970145D01*
X149550809Y-61951896D01*
X149551479Y-61950778D01*
X149552608Y-61950127D01*
X149695466Y-61807270D01*
X149707543Y-61786352D01*
X149723564Y-61768285D01*
X149794993Y-61625427D01*
X149801906Y-61591642D01*
X149810828Y-61558346D01*
X149810828Y-61272632D01*
X149801903Y-61239326D01*
X149794992Y-61205551D01*
X149723564Y-61062693D01*
X149707541Y-61044623D01*
X149695466Y-61023709D01*
X149552608Y-60880852D01*
X149551479Y-60880200D01*
X149550809Y-60879083D01*
X149517934Y-60860833D01*
X149485364Y-60842029D01*
X149484060Y-60842029D01*
X149482922Y-60841397D01*
X149197209Y-60769968D01*
X149178704Y-60770279D01*
X149160828Y-60765489D01*
X148660828Y-60765489D01*
X148642951Y-60770279D01*
X148624447Y-60769968D01*
X148338733Y-60841397D01*
X148337595Y-60842029D01*
X148336291Y-60842029D01*
X148303719Y-60860834D01*
X148270847Y-60879083D01*
X148270176Y-60880200D01*
X148269048Y-60880852D01*
X148126191Y-61023709D01*
X148114115Y-61044624D01*
X148098093Y-61062693D01*
X148026664Y-61205550D01*
X148019751Y-61239330D01*
X148010828Y-61272632D01*
X148010828Y-61558346D01*
X147796542Y-61558346D01*
X147796542Y-59129775D01*
X148010828Y-59129775D01*
X148030924Y-59204775D01*
X148085828Y-59259679D01*
X148160828Y-59279775D01*
X148946542Y-59279775D01*
X149660828Y-59279775D01*
X149735828Y-59259679D01*
X149790732Y-59204775D01*
X149810828Y-59129775D01*
X149790732Y-59054775D01*
X149735828Y-58999871D01*
X149660828Y-58979775D01*
X149096542Y-58979775D01*
X149096542Y-58850730D01*
X149746847Y-58395517D01*
X149796765Y-58336044D01*
X149810259Y-58259579D01*
X149783713Y-58186613D01*
X149724240Y-58136695D01*
X149647775Y-58123201D01*
X149574809Y-58149747D01*
X149081485Y-58495073D01*
X149080706Y-58491265D01*
X149009278Y-58348407D01*
X148993254Y-58330337D01*
X148981180Y-58309423D01*
X148909751Y-58237994D01*
X148888836Y-58225919D01*
X148870767Y-58209896D01*
X148727910Y-58138468D01*
X148694131Y-58131555D01*
X148660828Y-58122632D01*
X148446542Y-58122632D01*
X148413236Y-58131556D01*
X148379461Y-58138468D01*
X148236603Y-58209896D01*
X148218533Y-58225919D01*
X148197618Y-58237995D01*
X148126190Y-58309424D01*
X148114115Y-58330338D01*
X148098093Y-58348407D01*
X148026664Y-58491264D01*
X148019751Y-58525044D01*
X148010828Y-58558346D01*
X148010828Y-59129775D01*
X147796542Y-59129775D01*
X147796542Y-57344060D01*
X148010828Y-57344060D01*
X148019751Y-57377361D01*
X148026664Y-57411142D01*
X148098093Y-57554000D01*
X148114116Y-57572069D01*
X148126191Y-57592984D01*
X148269048Y-57735841D01*
X148270176Y-57736492D01*
X148270847Y-57737610D01*
X148303707Y-57755851D01*
X148336291Y-57774664D01*
X148337596Y-57774664D01*
X148338734Y-57775296D01*
X148624448Y-57846724D01*
X148642950Y-57846412D01*
X148660828Y-57851203D01*
X149160828Y-57851203D01*
X149178705Y-57846412D01*
X149197208Y-57846724D01*
X149482922Y-57775296D01*
X149484060Y-57774664D01*
X149485364Y-57774664D01*
X149517934Y-57755859D01*
X149550809Y-57737610D01*
X149551479Y-57736492D01*
X149552608Y-57735841D01*
X149695466Y-57592984D01*
X149707543Y-57572066D01*
X149723564Y-57553999D01*
X149794993Y-57411141D01*
X149801906Y-57377356D01*
X149810828Y-57344060D01*
X149810828Y-57058346D01*
X149801903Y-57025040D01*
X149794992Y-56991265D01*
X149723564Y-56848407D01*
X149707541Y-56830337D01*
X149695466Y-56809423D01*
X149552608Y-56666566D01*
X149551479Y-56665914D01*
X149550809Y-56664797D01*
X149517934Y-56646547D01*
X149485364Y-56627743D01*
X149484060Y-56627743D01*
X149482922Y-56627111D01*
X149197209Y-56555682D01*
X149178704Y-56555993D01*
X149160828Y-56551203D01*
X148660828Y-56551203D01*
X148642951Y-56555993D01*
X148624447Y-56555682D01*
X148338733Y-56627111D01*
X148337595Y-56627743D01*
X148336291Y-56627743D01*
X148303719Y-56646548D01*
X148270847Y-56664797D01*
X148270176Y-56665914D01*
X148269048Y-56666566D01*
X148126191Y-56809423D01*
X148114115Y-56830338D01*
X148098093Y-56848407D01*
X148026664Y-56991264D01*
X148019751Y-57025044D01*
X148010828Y-57058346D01*
X148010828Y-57344060D01*
X147796542Y-57344060D01*
X147796542Y-56058346D01*
X148010828Y-56058346D01*
X148030924Y-56133346D01*
X148085828Y-56188250D01*
X148160828Y-56208346D01*
X149375114Y-56208346D01*
X149408415Y-56199422D01*
X149442196Y-56192510D01*
X149585053Y-56121081D01*
X149603121Y-56105058D01*
X149624036Y-56092984D01*
X149695465Y-56021556D01*
X149707542Y-56000638D01*
X149723564Y-55982570D01*
X149794993Y-55839712D01*
X149801906Y-55805927D01*
X149810828Y-55772631D01*
X149810828Y-55486917D01*
X149801903Y-55453611D01*
X149794992Y-55419836D01*
X149723564Y-55276978D01*
X149707540Y-55258908D01*
X149695466Y-55237994D01*
X149624037Y-55166565D01*
X149603122Y-55154490D01*
X149585053Y-55138467D01*
X149442196Y-55067039D01*
X149408417Y-55060126D01*
X149375114Y-55051203D01*
X148160828Y-55051203D01*
X148085828Y-55071299D01*
X148030924Y-55126203D01*
X148010828Y-55201203D01*
X148030924Y-55276203D01*
X148085828Y-55331107D01*
X148160828Y-55351203D01*
X149339704Y-55351203D01*
X149429116Y-55395908D01*
X149466121Y-55432913D01*
X149510828Y-55522326D01*
X149510828Y-55737221D01*
X149466122Y-55826633D01*
X149429118Y-55863638D01*
X149339704Y-55908346D01*
X148160828Y-55908346D01*
X148085828Y-55928442D01*
X148030924Y-55983346D01*
X148010828Y-56058346D01*
X147796542Y-56058346D01*
X147796542Y-54701202D01*
X148010828Y-54701202D01*
X148030924Y-54776202D01*
X148085828Y-54831106D01*
X148160828Y-54851202D01*
X148235828Y-54831106D01*
X148290732Y-54776202D01*
X148310828Y-54701202D01*
X148310828Y-54422631D01*
X149660828Y-54422631D01*
X149735828Y-54402535D01*
X149790732Y-54347631D01*
X149810828Y-54272631D01*
X149790732Y-54197631D01*
X149735828Y-54142727D01*
X149660828Y-54122631D01*
X148310828Y-54122631D01*
X148310828Y-53844060D01*
X148290732Y-53769060D01*
X148235828Y-53714156D01*
X148160828Y-53694060D01*
X148085828Y-53714156D01*
X148030924Y-53769060D01*
X148010828Y-53844060D01*
X148010828Y-54701202D01*
X147796542Y-54701202D01*
X147796542Y-53344060D01*
X148010828Y-53344060D01*
X148030924Y-53419060D01*
X148085828Y-53473964D01*
X148160828Y-53494060D01*
X148875114Y-53494060D01*
X149660828Y-53494060D01*
X149735828Y-53473964D01*
X149790732Y-53419060D01*
X149810828Y-53344060D01*
X149810828Y-52629774D01*
X149790732Y-52554774D01*
X149735828Y-52499870D01*
X149660828Y-52479774D01*
X149585828Y-52499870D01*
X149530924Y-52554774D01*
X149510828Y-52629774D01*
X149510828Y-53194060D01*
X149025114Y-53194060D01*
X149025114Y-52844060D01*
X149005018Y-52769060D01*
X148950114Y-52714156D01*
X148875114Y-52694060D01*
X148800114Y-52714156D01*
X148745210Y-52769060D01*
X148725114Y-52844060D01*
X148725114Y-53194060D01*
X148310828Y-53194060D01*
X148310828Y-52629774D01*
X148290732Y-52554774D01*
X148235828Y-52499870D01*
X148160828Y-52479774D01*
X148085828Y-52499870D01*
X148030924Y-52554774D01*
X148010828Y-52629774D01*
X148010828Y-53344060D01*
X147796542Y-53344060D01*
X147796542Y-51986917D01*
X148010828Y-51986917D01*
X148030924Y-52061917D01*
X148085828Y-52116821D01*
X148160828Y-52136917D01*
X148946542Y-52136917D01*
X149660828Y-52136917D01*
X149735828Y-52116821D01*
X149790732Y-52061917D01*
X149810828Y-51986917D01*
X149790732Y-51911917D01*
X149735828Y-51857013D01*
X149660828Y-51836917D01*
X149096542Y-51836917D01*
X149096542Y-51707872D01*
X149746847Y-51252659D01*
X149796765Y-51193186D01*
X149810259Y-51116721D01*
X149783713Y-51043755D01*
X149724240Y-50993837D01*
X149647775Y-50980343D01*
X149574809Y-51006889D01*
X149081485Y-51352215D01*
X149080706Y-51348407D01*
X149009278Y-51205549D01*
X148993254Y-51187479D01*
X148981180Y-51166565D01*
X148909751Y-51095136D01*
X148888836Y-51083061D01*
X148870767Y-51067038D01*
X148727910Y-50995610D01*
X148694131Y-50988697D01*
X148660828Y-50979774D01*
X148446542Y-50979774D01*
X148413236Y-50988698D01*
X148379461Y-50995610D01*
X148236603Y-51067038D01*
X148218533Y-51083061D01*
X148197618Y-51095137D01*
X148126190Y-51166566D01*
X148114115Y-51187480D01*
X148098093Y-51205549D01*
X148026664Y-51348406D01*
X148019751Y-51382186D01*
X148010828Y-51415488D01*
X148010828Y-51986917D01*
X147796542Y-51986917D01*
X147796542Y-50765488D01*
X150025114Y-50765488D01*
X150025114Y-77351203D01*
G37*
D11*
X143176666Y-106364819D02*
X143176666Y-107079104D01*
X143176666Y-107079104D02*
X143129047Y-107221961D01*
X143129047Y-107221961D02*
X143033809Y-107317200D01*
X143033809Y-107317200D02*
X142890952Y-107364819D01*
X142890952Y-107364819D02*
X142795714Y-107364819D01*
X144176666Y-107364819D02*
X143605238Y-107364819D01*
X143890952Y-107364819D02*
X143890952Y-106364819D01*
X143890952Y-106364819D02*
X143795714Y-106507676D01*
X143795714Y-106507676D02*
X143700476Y-106602914D01*
X143700476Y-106602914D02*
X143605238Y-106650533D01*
D12*
X140552866Y-102594455D02*
X141252866Y-102594455D01*
X141252866Y-102594455D02*
X141252866Y-102861122D01*
X141252866Y-102861122D02*
X141219533Y-102927789D01*
X141219533Y-102927789D02*
X141186200Y-102961122D01*
X141186200Y-102961122D02*
X141119533Y-102994455D01*
X141119533Y-102994455D02*
X141019533Y-102994455D01*
X141019533Y-102994455D02*
X140952866Y-102961122D01*
X140952866Y-102961122D02*
X140919533Y-102927789D01*
X140919533Y-102927789D02*
X140886200Y-102861122D01*
X140886200Y-102861122D02*
X140886200Y-102594455D01*
X140552866Y-103294455D02*
X141252866Y-103294455D01*
X140919533Y-103294455D02*
X140919533Y-103694455D01*
X140552866Y-103694455D02*
X141252866Y-103694455D01*
X140752866Y-103994455D02*
X140752866Y-104327788D01*
X140552866Y-103927788D02*
X141252866Y-104161122D01*
X141252866Y-104161122D02*
X140552866Y-104394455D01*
X140586200Y-104594455D02*
X140552866Y-104694455D01*
X140552866Y-104694455D02*
X140552866Y-104861122D01*
X140552866Y-104861122D02*
X140586200Y-104927788D01*
X140586200Y-104927788D02*
X140619533Y-104961122D01*
X140619533Y-104961122D02*
X140686200Y-104994455D01*
X140686200Y-104994455D02*
X140752866Y-104994455D01*
X140752866Y-104994455D02*
X140819533Y-104961122D01*
X140819533Y-104961122D02*
X140852866Y-104927788D01*
X140852866Y-104927788D02*
X140886200Y-104861122D01*
X140886200Y-104861122D02*
X140919533Y-104727788D01*
X140919533Y-104727788D02*
X140952866Y-104661122D01*
X140952866Y-104661122D02*
X140986200Y-104627788D01*
X140986200Y-104627788D02*
X141052866Y-104594455D01*
X141052866Y-104594455D02*
X141119533Y-104594455D01*
X141119533Y-104594455D02*
X141186200Y-104627788D01*
X141186200Y-104627788D02*
X141219533Y-104661122D01*
X141219533Y-104661122D02*
X141252866Y-104727788D01*
X141252866Y-104727788D02*
X141252866Y-104894455D01*
X141252866Y-104894455D02*
X141219533Y-104994455D01*
X140919533Y-105294455D02*
X140919533Y-105527789D01*
X140552866Y-105627789D02*
X140552866Y-105294455D01*
X140552866Y-105294455D02*
X141252866Y-105294455D01*
X141252866Y-105294455D02*
X141252866Y-105627789D01*
X140552866Y-97260455D02*
X141252866Y-97260455D01*
X141252866Y-97260455D02*
X140552866Y-97660455D01*
X140552866Y-97660455D02*
X141252866Y-97660455D01*
X140919533Y-97993788D02*
X140919533Y-98227122D01*
X140552866Y-98327122D02*
X140552866Y-97993788D01*
X140552866Y-97993788D02*
X141252866Y-97993788D01*
X141252866Y-97993788D02*
X141252866Y-98327122D01*
X141252866Y-98627121D02*
X140686200Y-98627121D01*
X140686200Y-98627121D02*
X140619533Y-98660455D01*
X140619533Y-98660455D02*
X140586200Y-98693788D01*
X140586200Y-98693788D02*
X140552866Y-98760455D01*
X140552866Y-98760455D02*
X140552866Y-98893788D01*
X140552866Y-98893788D02*
X140586200Y-98960455D01*
X140586200Y-98960455D02*
X140619533Y-98993788D01*
X140619533Y-98993788D02*
X140686200Y-99027121D01*
X140686200Y-99027121D02*
X141252866Y-99027121D01*
X141252866Y-99260454D02*
X141252866Y-99660454D01*
X140552866Y-99460454D02*
X141252866Y-99460454D01*
X140552866Y-100293787D02*
X140886200Y-100060454D01*
X140552866Y-99893787D02*
X141252866Y-99893787D01*
X141252866Y-99893787D02*
X141252866Y-100160454D01*
X141252866Y-100160454D02*
X141219533Y-100227121D01*
X141219533Y-100227121D02*
X141186200Y-100260454D01*
X141186200Y-100260454D02*
X141119533Y-100293787D01*
X141119533Y-100293787D02*
X141019533Y-100293787D01*
X141019533Y-100293787D02*
X140952866Y-100260454D01*
X140952866Y-100260454D02*
X140919533Y-100227121D01*
X140919533Y-100227121D02*
X140886200Y-100160454D01*
X140886200Y-100160454D02*
X140886200Y-99893787D01*
X140752866Y-100560454D02*
X140752866Y-100893787D01*
X140552866Y-100493787D02*
X141252866Y-100727121D01*
X141252866Y-100727121D02*
X140552866Y-100960454D01*
X140552866Y-101527121D02*
X140552866Y-101193787D01*
X140552866Y-101193787D02*
X141252866Y-101193787D01*
X102435548Y-80060007D02*
X101626025Y-80060007D01*
X101626025Y-80060007D02*
X101530787Y-80107626D01*
X101530787Y-80107626D02*
X101483168Y-80155245D01*
X101483168Y-80155245D02*
X101435548Y-80250483D01*
X101435548Y-80250483D02*
X101435548Y-80440959D01*
X101435548Y-80440959D02*
X101483168Y-80536197D01*
X101483168Y-80536197D02*
X101530787Y-80583816D01*
X101530787Y-80583816D02*
X101626025Y-80631435D01*
X101626025Y-80631435D02*
X102435548Y-80631435D01*
X102340310Y-81060007D02*
X102387929Y-81107626D01*
X102387929Y-81107626D02*
X102435548Y-81202864D01*
X102435548Y-81202864D02*
X102435548Y-81440959D01*
X102435548Y-81440959D02*
X102387929Y-81536197D01*
X102387929Y-81536197D02*
X102340310Y-81583816D01*
X102340310Y-81583816D02*
X102245072Y-81631435D01*
X102245072Y-81631435D02*
X102149834Y-81631435D01*
X102149834Y-81631435D02*
X102006977Y-81583816D01*
X102006977Y-81583816D02*
X101435548Y-81012388D01*
X101435548Y-81012388D02*
X101435548Y-81631435D01*
D11*
G36*
X117398906Y-52904077D02*
G01*
X117429312Y-52934483D01*
X117463571Y-53002999D01*
X117463571Y-53110446D01*
X117429313Y-53178963D01*
X117398906Y-53209369D01*
X117330390Y-53243628D01*
X117042143Y-53243628D01*
X117042143Y-52869819D01*
X117330390Y-52869819D01*
X117398906Y-52904077D01*
G37*
G36*
X119518333Y-54012676D02*
G01*
X116749286Y-54012676D01*
X116749286Y-53794819D01*
X116892143Y-53794819D01*
X116909690Y-53843028D01*
X116954119Y-53868680D01*
X117004643Y-53859771D01*
X117037620Y-53820471D01*
X117042143Y-53794819D01*
X117042143Y-53393628D01*
X117166189Y-53393628D01*
X117477129Y-53837829D01*
X117519150Y-53867261D01*
X117570258Y-53862797D01*
X117606540Y-53826525D01*
X117609319Y-53794819D01*
X117892143Y-53794819D01*
X117898806Y-53813127D01*
X117902191Y-53832319D01*
X117907375Y-53836669D01*
X117909690Y-53843028D01*
X117926563Y-53852770D01*
X117941491Y-53865296D01*
X117951233Y-53867013D01*
X117954119Y-53868680D01*
X117957401Y-53868101D01*
X117967143Y-53869819D01*
X118443333Y-53869819D01*
X118491542Y-53852272D01*
X118517194Y-53807843D01*
X118508285Y-53757319D01*
X118468985Y-53724342D01*
X118443333Y-53719819D01*
X118042143Y-53719819D01*
X118042143Y-52794819D01*
X118037403Y-52781795D01*
X118607568Y-52781795D01*
X118616477Y-52832319D01*
X118655777Y-52865296D01*
X118681429Y-52869819D01*
X119135194Y-52869819D01*
X118910700Y-53126383D01*
X118903393Y-53145234D01*
X118893282Y-53162747D01*
X118894321Y-53168640D01*
X118892159Y-53174219D01*
X118898679Y-53193358D01*
X118902191Y-53213271D01*
X118906774Y-53217116D01*
X118908704Y-53222781D01*
X118926002Y-53233251D01*
X118941491Y-53246248D01*
X118949934Y-53247736D01*
X118952593Y-53249346D01*
X118956034Y-53248812D01*
X118967143Y-53250771D01*
X119092295Y-53250771D01*
X119160811Y-53285029D01*
X119191218Y-53315435D01*
X119225476Y-53383951D01*
X119225476Y-53586637D01*
X119191217Y-53655153D01*
X119160810Y-53685561D01*
X119092295Y-53719819D01*
X118841991Y-53719819D01*
X118773475Y-53685561D01*
X118734463Y-53646548D01*
X118687966Y-53624866D01*
X118638411Y-53638143D01*
X118608985Y-53680168D01*
X118613455Y-53731275D01*
X118628395Y-53752612D01*
X118676014Y-53800232D01*
X118677495Y-53800922D01*
X118695507Y-53814282D01*
X118790745Y-53861901D01*
X118795198Y-53862413D01*
X118798634Y-53865296D01*
X118824286Y-53869819D01*
X119110000Y-53869819D01*
X119114213Y-53868285D01*
X119118574Y-53869327D01*
X119143541Y-53861901D01*
X119238779Y-53814282D01*
X119239903Y-53813094D01*
X119258272Y-53800232D01*
X119305890Y-53752613D01*
X119306580Y-53751131D01*
X119319939Y-53733121D01*
X119367558Y-53637883D01*
X119368070Y-53633429D01*
X119370953Y-53629994D01*
X119375476Y-53604342D01*
X119375476Y-53366247D01*
X119373942Y-53362033D01*
X119374984Y-53357672D01*
X119367558Y-53332706D01*
X119319939Y-53237468D01*
X119318749Y-53236342D01*
X119305890Y-53217976D01*
X119258271Y-53170357D01*
X119256789Y-53169666D01*
X119238779Y-53156308D01*
X119143541Y-53108689D01*
X119139087Y-53108176D01*
X119135652Y-53105294D01*
X119129428Y-53104196D01*
X119356919Y-52844207D01*
X119364225Y-52825355D01*
X119374337Y-52807843D01*
X119373297Y-52801949D01*
X119375460Y-52796371D01*
X119368939Y-52777231D01*
X119365428Y-52757319D01*
X119360844Y-52753473D01*
X119358915Y-52747809D01*
X119341616Y-52737338D01*
X119326128Y-52724342D01*
X119317684Y-52722853D01*
X119315026Y-52721244D01*
X119311584Y-52721777D01*
X119300476Y-52719819D01*
X118681429Y-52719819D01*
X118633220Y-52737366D01*
X118607568Y-52781795D01*
X118037403Y-52781795D01*
X118024596Y-52746610D01*
X117980167Y-52720958D01*
X117929643Y-52729867D01*
X117896666Y-52769167D01*
X117892143Y-52794819D01*
X117892143Y-53794819D01*
X117609319Y-53794819D01*
X117611019Y-53775418D01*
X117600014Y-53751810D01*
X117349044Y-53393282D01*
X117352308Y-53392094D01*
X117356669Y-53393136D01*
X117381636Y-53385710D01*
X117476874Y-53338091D01*
X117477999Y-53336901D01*
X117496366Y-53324042D01*
X117543985Y-53276423D01*
X117544676Y-53274941D01*
X117558034Y-53256931D01*
X117605653Y-53161693D01*
X117606165Y-53157239D01*
X117609048Y-53153804D01*
X117613571Y-53128152D01*
X117613571Y-52985295D01*
X117612037Y-52981081D01*
X117613079Y-52976720D01*
X117605653Y-52951754D01*
X117558034Y-52856516D01*
X117556844Y-52855390D01*
X117543985Y-52837024D01*
X117496366Y-52789405D01*
X117494884Y-52788714D01*
X117476874Y-52775356D01*
X117381636Y-52727737D01*
X117377182Y-52727224D01*
X117373747Y-52724342D01*
X117348095Y-52719819D01*
X116967143Y-52719819D01*
X116948834Y-52726482D01*
X116929643Y-52729867D01*
X116925292Y-52735051D01*
X116918934Y-52737366D01*
X116909191Y-52754239D01*
X116896666Y-52769167D01*
X116894948Y-52778909D01*
X116893282Y-52781795D01*
X116893860Y-52785077D01*
X116892143Y-52794819D01*
X116892143Y-53794819D01*
X116749286Y-53794819D01*
X116749286Y-52576962D01*
X119518333Y-52576962D01*
X119518333Y-54012676D01*
G37*
D12*
X120191884Y-52206466D02*
X120953789Y-52206466D01*
X120318884Y-43062466D02*
X121080789Y-43062466D01*
X120699836Y-43443419D02*
X120699836Y-42681514D01*
X121461741Y-42443419D02*
X122080788Y-42443419D01*
X122080788Y-42443419D02*
X121747455Y-42824371D01*
X121747455Y-42824371D02*
X121890312Y-42824371D01*
X121890312Y-42824371D02*
X121985550Y-42871990D01*
X121985550Y-42871990D02*
X122033169Y-42919609D01*
X122033169Y-42919609D02*
X122080788Y-43014847D01*
X122080788Y-43014847D02*
X122080788Y-43252942D01*
X122080788Y-43252942D02*
X122033169Y-43348180D01*
X122033169Y-43348180D02*
X121985550Y-43395800D01*
X121985550Y-43395800D02*
X121890312Y-43443419D01*
X121890312Y-43443419D02*
X121604598Y-43443419D01*
X121604598Y-43443419D02*
X121509360Y-43395800D01*
X121509360Y-43395800D02*
X121461741Y-43348180D01*
X122414122Y-42776752D02*
X122652217Y-43443419D01*
X122652217Y-43443419D02*
X122890312Y-42776752D01*
D11*
G36*
X109778906Y-52904077D02*
G01*
X109809312Y-52934483D01*
X109843571Y-53002999D01*
X109843571Y-53110447D01*
X109809312Y-53178963D01*
X109778905Y-53209370D01*
X109710390Y-53243628D01*
X109422143Y-53243628D01*
X109422143Y-52869819D01*
X109710390Y-52869819D01*
X109778906Y-52904077D01*
G37*
G36*
X111944813Y-54012676D02*
G01*
X109129286Y-54012676D01*
X109129286Y-53794819D01*
X109272143Y-53794819D01*
X109289690Y-53843028D01*
X109334119Y-53868680D01*
X109384643Y-53859771D01*
X109417620Y-53820471D01*
X109422143Y-53794819D01*
X109422143Y-53393628D01*
X109546189Y-53393628D01*
X109857129Y-53837829D01*
X109899150Y-53867261D01*
X109950258Y-53862797D01*
X109986540Y-53826525D01*
X109989319Y-53794819D01*
X110272143Y-53794819D01*
X110278806Y-53813127D01*
X110282191Y-53832319D01*
X110287375Y-53836669D01*
X110289690Y-53843028D01*
X110306563Y-53852770D01*
X110321491Y-53865296D01*
X110331233Y-53867013D01*
X110334119Y-53868680D01*
X110337401Y-53868101D01*
X110347143Y-53869819D01*
X110823333Y-53869819D01*
X110871542Y-53852272D01*
X110897194Y-53807843D01*
X110888285Y-53757319D01*
X110848985Y-53724342D01*
X110823333Y-53719819D01*
X110422143Y-53719819D01*
X110422143Y-53448461D01*
X111035187Y-53448461D01*
X111038739Y-53468607D01*
X111039298Y-53489052D01*
X111043100Y-53493340D01*
X111044096Y-53498985D01*
X111059763Y-53512131D01*
X111073335Y-53527437D01*
X111079005Y-53528277D01*
X111083396Y-53531962D01*
X111109048Y-53536485D01*
X111510238Y-53536485D01*
X111510238Y-53794819D01*
X111527785Y-53843028D01*
X111572214Y-53868680D01*
X111622738Y-53859771D01*
X111655715Y-53820471D01*
X111660238Y-53794819D01*
X111660238Y-53536485D01*
X111728095Y-53536485D01*
X111776304Y-53518938D01*
X111801956Y-53474509D01*
X111793047Y-53423985D01*
X111753747Y-53391008D01*
X111728095Y-53386485D01*
X111660238Y-53386485D01*
X111660238Y-53128152D01*
X111642691Y-53079943D01*
X111598262Y-53054291D01*
X111547738Y-53063200D01*
X111514761Y-53102500D01*
X111510238Y-53128152D01*
X111510238Y-53386485D01*
X111213105Y-53386485D01*
X111418294Y-52770918D01*
X111416893Y-52719634D01*
X111382855Y-52681248D01*
X111332107Y-52673723D01*
X111288394Y-52700578D01*
X111275992Y-52723483D01*
X111037897Y-53437768D01*
X111038053Y-53443496D01*
X111035187Y-53448461D01*
X110422143Y-53448461D01*
X110422143Y-52794819D01*
X110404596Y-52746610D01*
X110360167Y-52720958D01*
X110309643Y-52729867D01*
X110276666Y-52769167D01*
X110272143Y-52794819D01*
X110272143Y-53794819D01*
X109989319Y-53794819D01*
X109991019Y-53775418D01*
X109980014Y-53751810D01*
X109729044Y-53393282D01*
X109732308Y-53392094D01*
X109736669Y-53393136D01*
X109761636Y-53385710D01*
X109856874Y-53338091D01*
X109857999Y-53336901D01*
X109876366Y-53324042D01*
X109923985Y-53276423D01*
X109924676Y-53274941D01*
X109938034Y-53256931D01*
X109985653Y-53161693D01*
X109986165Y-53157239D01*
X109989048Y-53153804D01*
X109993571Y-53128152D01*
X109993571Y-52985295D01*
X109992037Y-52981081D01*
X109993079Y-52976720D01*
X109985653Y-52951754D01*
X109938034Y-52856516D01*
X109936844Y-52855390D01*
X109923985Y-52837024D01*
X109876366Y-52789405D01*
X109874884Y-52788714D01*
X109856874Y-52775356D01*
X109761636Y-52727737D01*
X109757182Y-52727224D01*
X109753747Y-52724342D01*
X109728095Y-52719819D01*
X109347143Y-52719819D01*
X109328834Y-52726482D01*
X109309643Y-52729867D01*
X109305292Y-52735051D01*
X109298934Y-52737366D01*
X109289191Y-52754239D01*
X109276666Y-52769167D01*
X109274948Y-52778909D01*
X109273282Y-52781795D01*
X109273860Y-52785077D01*
X109272143Y-52794819D01*
X109272143Y-53794819D01*
X109129286Y-53794819D01*
X109129286Y-52530866D01*
X111944813Y-52530866D01*
X111944813Y-54012676D01*
G37*
D12*
X112571884Y-52206466D02*
X113333789Y-52206466D01*
X112698884Y-43062466D02*
X113460789Y-43062466D01*
X113079836Y-43443419D02*
X113079836Y-42681514D01*
X113841741Y-42443419D02*
X114460788Y-42443419D01*
X114460788Y-42443419D02*
X114127455Y-42824371D01*
X114127455Y-42824371D02*
X114270312Y-42824371D01*
X114270312Y-42824371D02*
X114365550Y-42871990D01*
X114365550Y-42871990D02*
X114413169Y-42919609D01*
X114413169Y-42919609D02*
X114460788Y-43014847D01*
X114460788Y-43014847D02*
X114460788Y-43252942D01*
X114460788Y-43252942D02*
X114413169Y-43348180D01*
X114413169Y-43348180D02*
X114365550Y-43395800D01*
X114365550Y-43395800D02*
X114270312Y-43443419D01*
X114270312Y-43443419D02*
X113984598Y-43443419D01*
X113984598Y-43443419D02*
X113889360Y-43395800D01*
X113889360Y-43395800D02*
X113841741Y-43348180D01*
X114794122Y-42776752D02*
X115032217Y-43443419D01*
X115032217Y-43443419D02*
X115270312Y-42776752D01*
D11*
X85609959Y-105454819D02*
X85609959Y-106264342D01*
X85609959Y-106264342D02*
X85657578Y-106359580D01*
X85657578Y-106359580D02*
X85705197Y-106407200D01*
X85705197Y-106407200D02*
X85800435Y-106454819D01*
X85800435Y-106454819D02*
X85990911Y-106454819D01*
X85990911Y-106454819D02*
X86086149Y-106407200D01*
X86086149Y-106407200D02*
X86133768Y-106359580D01*
X86133768Y-106359580D02*
X86181387Y-106264342D01*
X86181387Y-106264342D02*
X86181387Y-105454819D01*
X87181387Y-106454819D02*
X86609959Y-106454819D01*
X86895673Y-106454819D02*
X86895673Y-105454819D01*
X86895673Y-105454819D02*
X86800435Y-105597676D01*
X86800435Y-105597676D02*
X86705197Y-105692914D01*
X86705197Y-105692914D02*
X86609959Y-105740533D01*
D12*
X81148530Y-101918633D02*
X80748530Y-101918633D01*
X80948530Y-101918633D02*
X80948530Y-101218633D01*
X80948530Y-101218633D02*
X80881863Y-101318633D01*
X80881863Y-101318633D02*
X80815197Y-101385300D01*
X80815197Y-101385300D02*
X80748530Y-101418633D01*
X81748530Y-101451966D02*
X81748530Y-101918633D01*
X81581864Y-101185300D02*
X81415197Y-101685300D01*
X81415197Y-101685300D02*
X81848530Y-101685300D01*
X101078530Y-98745300D02*
X101111863Y-98711966D01*
X101111863Y-98711966D02*
X101178530Y-98678633D01*
X101178530Y-98678633D02*
X101345197Y-98678633D01*
X101345197Y-98678633D02*
X101411863Y-98711966D01*
X101411863Y-98711966D02*
X101445197Y-98745300D01*
X101445197Y-98745300D02*
X101478530Y-98811966D01*
X101478530Y-98811966D02*
X101478530Y-98878633D01*
X101478530Y-98878633D02*
X101445197Y-98978633D01*
X101445197Y-98978633D02*
X101045197Y-99378633D01*
X101045197Y-99378633D02*
X101478530Y-99378633D01*
X101911864Y-98678633D02*
X101978530Y-98678633D01*
X101978530Y-98678633D02*
X102045197Y-98711966D01*
X102045197Y-98711966D02*
X102078530Y-98745300D01*
X102078530Y-98745300D02*
X102111864Y-98811966D01*
X102111864Y-98811966D02*
X102145197Y-98945300D01*
X102145197Y-98945300D02*
X102145197Y-99111966D01*
X102145197Y-99111966D02*
X102111864Y-99245300D01*
X102111864Y-99245300D02*
X102078530Y-99311966D01*
X102078530Y-99311966D02*
X102045197Y-99345300D01*
X102045197Y-99345300D02*
X101978530Y-99378633D01*
X101978530Y-99378633D02*
X101911864Y-99378633D01*
X101911864Y-99378633D02*
X101845197Y-99345300D01*
X101845197Y-99345300D02*
X101811864Y-99311966D01*
X101811864Y-99311966D02*
X101778530Y-99245300D01*
X101778530Y-99245300D02*
X101745197Y-99111966D01*
X101745197Y-99111966D02*
X101745197Y-98945300D01*
X101745197Y-98945300D02*
X101778530Y-98811966D01*
X101778530Y-98811966D02*
X101811864Y-98745300D01*
X101811864Y-98745300D02*
X101845197Y-98711966D01*
X101845197Y-98711966D02*
X101911864Y-98678633D01*
X101078531Y-52991966D02*
X101011864Y-52958633D01*
X101011864Y-52958633D02*
X100911864Y-52958633D01*
X100911864Y-52958633D02*
X100811864Y-52991966D01*
X100811864Y-52991966D02*
X100745198Y-53058633D01*
X100745198Y-53058633D02*
X100711864Y-53125300D01*
X100711864Y-53125300D02*
X100678531Y-53258633D01*
X100678531Y-53258633D02*
X100678531Y-53358633D01*
X100678531Y-53358633D02*
X100711864Y-53491966D01*
X100711864Y-53491966D02*
X100745198Y-53558633D01*
X100745198Y-53558633D02*
X100811864Y-53625300D01*
X100811864Y-53625300D02*
X100911864Y-53658633D01*
X100911864Y-53658633D02*
X100978531Y-53658633D01*
X100978531Y-53658633D02*
X101078531Y-53625300D01*
X101078531Y-53625300D02*
X101111864Y-53591966D01*
X101111864Y-53591966D02*
X101111864Y-53358633D01*
X101111864Y-53358633D02*
X100978531Y-53358633D01*
X101411864Y-53658633D02*
X101411864Y-52958633D01*
X101411864Y-52958633D02*
X101811864Y-53658633D01*
X101811864Y-53658633D02*
X101811864Y-52958633D01*
X102145197Y-53658633D02*
X102145197Y-52958633D01*
X102145197Y-52958633D02*
X102311864Y-52958633D01*
X102311864Y-52958633D02*
X102411864Y-52991966D01*
X102411864Y-52991966D02*
X102478531Y-53058633D01*
X102478531Y-53058633D02*
X102511864Y-53125300D01*
X102511864Y-53125300D02*
X102545197Y-53258633D01*
X102545197Y-53258633D02*
X102545197Y-53358633D01*
X102545197Y-53358633D02*
X102511864Y-53491966D01*
X102511864Y-53491966D02*
X102478531Y-53558633D01*
X102478531Y-53558633D02*
X102411864Y-53625300D01*
X102411864Y-53625300D02*
X102311864Y-53658633D01*
X102311864Y-53658633D02*
X102145197Y-53658633D01*
X81148530Y-96838633D02*
X80748530Y-96838633D01*
X80948530Y-96838633D02*
X80948530Y-96138633D01*
X80948530Y-96138633D02*
X80881863Y-96238633D01*
X80881863Y-96238633D02*
X80815197Y-96305300D01*
X80815197Y-96305300D02*
X80748530Y-96338633D01*
X81415197Y-96205300D02*
X81448530Y-96171966D01*
X81448530Y-96171966D02*
X81515197Y-96138633D01*
X81515197Y-96138633D02*
X81681864Y-96138633D01*
X81681864Y-96138633D02*
X81748530Y-96171966D01*
X81748530Y-96171966D02*
X81781864Y-96205300D01*
X81781864Y-96205300D02*
X81815197Y-96271966D01*
X81815197Y-96271966D02*
X81815197Y-96338633D01*
X81815197Y-96338633D02*
X81781864Y-96438633D01*
X81781864Y-96438633D02*
X81381864Y-96838633D01*
X81381864Y-96838633D02*
X81815197Y-96838633D01*
X101495197Y-58738633D02*
X101261864Y-58405300D01*
X101095197Y-58738633D02*
X101095197Y-58038633D01*
X101095197Y-58038633D02*
X101361864Y-58038633D01*
X101361864Y-58038633D02*
X101428531Y-58071966D01*
X101428531Y-58071966D02*
X101461864Y-58105300D01*
X101461864Y-58105300D02*
X101495197Y-58171966D01*
X101495197Y-58171966D02*
X101495197Y-58271966D01*
X101495197Y-58271966D02*
X101461864Y-58338633D01*
X101461864Y-58338633D02*
X101428531Y-58371966D01*
X101428531Y-58371966D02*
X101361864Y-58405300D01*
X101361864Y-58405300D02*
X101095197Y-58405300D01*
X101728531Y-58038633D02*
X102195197Y-58738633D01*
X102195197Y-58038633D02*
X101728531Y-58738633D01*
X101478530Y-101918633D02*
X101078530Y-101918633D01*
X101278530Y-101918633D02*
X101278530Y-101218633D01*
X101278530Y-101218633D02*
X101211863Y-101318633D01*
X101211863Y-101318633D02*
X101145197Y-101385300D01*
X101145197Y-101385300D02*
X101078530Y-101418633D01*
X101811864Y-101918633D02*
X101945197Y-101918633D01*
X101945197Y-101918633D02*
X102011864Y-101885300D01*
X102011864Y-101885300D02*
X102045197Y-101851966D01*
X102045197Y-101851966D02*
X102111864Y-101751966D01*
X102111864Y-101751966D02*
X102145197Y-101618633D01*
X102145197Y-101618633D02*
X102145197Y-101351966D01*
X102145197Y-101351966D02*
X102111864Y-101285300D01*
X102111864Y-101285300D02*
X102078530Y-101251966D01*
X102078530Y-101251966D02*
X102011864Y-101218633D01*
X102011864Y-101218633D02*
X101878530Y-101218633D01*
X101878530Y-101218633D02*
X101811864Y-101251966D01*
X101811864Y-101251966D02*
X101778530Y-101285300D01*
X101778530Y-101285300D02*
X101745197Y-101351966D01*
X101745197Y-101351966D02*
X101745197Y-101518633D01*
X101745197Y-101518633D02*
X101778530Y-101585300D01*
X101778530Y-101585300D02*
X101811864Y-101618633D01*
X101811864Y-101618633D02*
X101878530Y-101651966D01*
X101878530Y-101651966D02*
X102011864Y-101651966D01*
X102011864Y-101651966D02*
X102078530Y-101618633D01*
X102078530Y-101618633D02*
X102111864Y-101585300D01*
X102111864Y-101585300D02*
X102145197Y-101518633D01*
X101078531Y-103791966D02*
X101011864Y-103758633D01*
X101011864Y-103758633D02*
X100911864Y-103758633D01*
X100911864Y-103758633D02*
X100811864Y-103791966D01*
X100811864Y-103791966D02*
X100745198Y-103858633D01*
X100745198Y-103858633D02*
X100711864Y-103925300D01*
X100711864Y-103925300D02*
X100678531Y-104058633D01*
X100678531Y-104058633D02*
X100678531Y-104158633D01*
X100678531Y-104158633D02*
X100711864Y-104291966D01*
X100711864Y-104291966D02*
X100745198Y-104358633D01*
X100745198Y-104358633D02*
X100811864Y-104425300D01*
X100811864Y-104425300D02*
X100911864Y-104458633D01*
X100911864Y-104458633D02*
X100978531Y-104458633D01*
X100978531Y-104458633D02*
X101078531Y-104425300D01*
X101078531Y-104425300D02*
X101111864Y-104391966D01*
X101111864Y-104391966D02*
X101111864Y-104158633D01*
X101111864Y-104158633D02*
X100978531Y-104158633D01*
X101411864Y-104458633D02*
X101411864Y-103758633D01*
X101411864Y-103758633D02*
X101811864Y-104458633D01*
X101811864Y-104458633D02*
X101811864Y-103758633D01*
X102145197Y-104458633D02*
X102145197Y-103758633D01*
X102145197Y-103758633D02*
X102311864Y-103758633D01*
X102311864Y-103758633D02*
X102411864Y-103791966D01*
X102411864Y-103791966D02*
X102478531Y-103858633D01*
X102478531Y-103858633D02*
X102511864Y-103925300D01*
X102511864Y-103925300D02*
X102545197Y-104058633D01*
X102545197Y-104058633D02*
X102545197Y-104158633D01*
X102545197Y-104158633D02*
X102511864Y-104291966D01*
X102511864Y-104291966D02*
X102478531Y-104358633D01*
X102478531Y-104358633D02*
X102411864Y-104425300D01*
X102411864Y-104425300D02*
X102311864Y-104458633D01*
X102311864Y-104458633D02*
X102145197Y-104458633D01*
X101411864Y-63185300D02*
X101445197Y-63151966D01*
X101445197Y-63151966D02*
X101511864Y-63118633D01*
X101511864Y-63118633D02*
X101678531Y-63118633D01*
X101678531Y-63118633D02*
X101745197Y-63151966D01*
X101745197Y-63151966D02*
X101778531Y-63185300D01*
X101778531Y-63185300D02*
X101811864Y-63251966D01*
X101811864Y-63251966D02*
X101811864Y-63318633D01*
X101811864Y-63318633D02*
X101778531Y-63418633D01*
X101778531Y-63418633D02*
X101378531Y-63818633D01*
X101378531Y-63818633D02*
X101811864Y-63818633D01*
X101411863Y-68431966D02*
X101411863Y-68898633D01*
X101245197Y-68165300D02*
X101078530Y-68665300D01*
X101078530Y-68665300D02*
X101511863Y-68665300D01*
X102145197Y-68898633D02*
X101745197Y-68898633D01*
X101945197Y-68898633D02*
X101945197Y-68198633D01*
X101945197Y-68198633D02*
X101878530Y-68298633D01*
X101878530Y-68298633D02*
X101811864Y-68365300D01*
X101811864Y-68365300D02*
X101745197Y-68398633D01*
X81415197Y-60811966D02*
X81415197Y-61278633D01*
X81248531Y-60545300D02*
X81081864Y-61045300D01*
X81081864Y-61045300D02*
X81515197Y-61045300D01*
X81148530Y-71438633D02*
X80748530Y-71438633D01*
X80948530Y-71438633D02*
X80948530Y-70738633D01*
X80948530Y-70738633D02*
X80881863Y-70838633D01*
X80881863Y-70838633D02*
X80815197Y-70905300D01*
X80815197Y-70905300D02*
X80748530Y-70938633D01*
X81781864Y-70738633D02*
X81448530Y-70738633D01*
X81448530Y-70738633D02*
X81415197Y-71071966D01*
X81415197Y-71071966D02*
X81448530Y-71038633D01*
X81448530Y-71038633D02*
X81515197Y-71005300D01*
X81515197Y-71005300D02*
X81681864Y-71005300D01*
X81681864Y-71005300D02*
X81748530Y-71038633D01*
X81748530Y-71038633D02*
X81781864Y-71071966D01*
X81781864Y-71071966D02*
X81815197Y-71138633D01*
X81815197Y-71138633D02*
X81815197Y-71305300D01*
X81815197Y-71305300D02*
X81781864Y-71371966D01*
X81781864Y-71371966D02*
X81748530Y-71405300D01*
X81748530Y-71405300D02*
X81681864Y-71438633D01*
X81681864Y-71438633D02*
X81515197Y-71438633D01*
X81515197Y-71438633D02*
X81448530Y-71405300D01*
X81448530Y-71405300D02*
X81415197Y-71371966D01*
X101545198Y-85978633D02*
X101678531Y-85978633D01*
X101678531Y-85978633D02*
X101745198Y-86011966D01*
X101745198Y-86011966D02*
X101811864Y-86078633D01*
X101811864Y-86078633D02*
X101845198Y-86211966D01*
X101845198Y-86211966D02*
X101845198Y-86445300D01*
X101845198Y-86445300D02*
X101811864Y-86578633D01*
X101811864Y-86578633D02*
X101745198Y-86645300D01*
X101745198Y-86645300D02*
X101678531Y-86678633D01*
X101678531Y-86678633D02*
X101545198Y-86678633D01*
X101545198Y-86678633D02*
X101478531Y-86645300D01*
X101478531Y-86645300D02*
X101411864Y-86578633D01*
X101411864Y-86578633D02*
X101378531Y-86445300D01*
X101378531Y-86445300D02*
X101378531Y-86211966D01*
X101378531Y-86211966D02*
X101411864Y-86078633D01*
X101411864Y-86078633D02*
X101478531Y-86011966D01*
X101478531Y-86011966D02*
X101545198Y-85978633D01*
X101045197Y-83438633D02*
X101478530Y-83438633D01*
X101478530Y-83438633D02*
X101245197Y-83705300D01*
X101245197Y-83705300D02*
X101345197Y-83705300D01*
X101345197Y-83705300D02*
X101411863Y-83738633D01*
X101411863Y-83738633D02*
X101445197Y-83771966D01*
X101445197Y-83771966D02*
X101478530Y-83838633D01*
X101478530Y-83838633D02*
X101478530Y-84005300D01*
X101478530Y-84005300D02*
X101445197Y-84071966D01*
X101445197Y-84071966D02*
X101411863Y-84105300D01*
X101411863Y-84105300D02*
X101345197Y-84138633D01*
X101345197Y-84138633D02*
X101145197Y-84138633D01*
X101145197Y-84138633D02*
X101078530Y-84105300D01*
X101078530Y-84105300D02*
X101045197Y-84071966D01*
X102111864Y-83438633D02*
X101778530Y-83438633D01*
X101778530Y-83438633D02*
X101745197Y-83771966D01*
X101745197Y-83771966D02*
X101778530Y-83738633D01*
X101778530Y-83738633D02*
X101845197Y-83705300D01*
X101845197Y-83705300D02*
X102011864Y-83705300D01*
X102011864Y-83705300D02*
X102078530Y-83738633D01*
X102078530Y-83738633D02*
X102111864Y-83771966D01*
X102111864Y-83771966D02*
X102145197Y-83838633D01*
X102145197Y-83838633D02*
X102145197Y-84005300D01*
X102145197Y-84005300D02*
X102111864Y-84071966D01*
X102111864Y-84071966D02*
X102078530Y-84105300D01*
X102078530Y-84105300D02*
X102011864Y-84138633D01*
X102011864Y-84138633D02*
X101845197Y-84138633D01*
X101845197Y-84138633D02*
X101778530Y-84105300D01*
X101778530Y-84105300D02*
X101745197Y-84071966D01*
X101411863Y-65891966D02*
X101411863Y-66358633D01*
X101245197Y-65625300D02*
X101078530Y-66125300D01*
X101078530Y-66125300D02*
X101511863Y-66125300D01*
X101745197Y-65725300D02*
X101778530Y-65691966D01*
X101778530Y-65691966D02*
X101845197Y-65658633D01*
X101845197Y-65658633D02*
X102011864Y-65658633D01*
X102011864Y-65658633D02*
X102078530Y-65691966D01*
X102078530Y-65691966D02*
X102111864Y-65725300D01*
X102111864Y-65725300D02*
X102145197Y-65791966D01*
X102145197Y-65791966D02*
X102145197Y-65858633D01*
X102145197Y-65858633D02*
X102111864Y-65958633D01*
X102111864Y-65958633D02*
X101711864Y-66358633D01*
X101711864Y-66358633D02*
X102145197Y-66358633D01*
X101411863Y-93831966D02*
X101411863Y-94298633D01*
X101245197Y-93565300D02*
X101078530Y-94065300D01*
X101078530Y-94065300D02*
X101511863Y-94065300D01*
X101711864Y-93598633D02*
X102178530Y-93598633D01*
X102178530Y-93598633D02*
X101878530Y-94298633D01*
X81148531Y-89218633D02*
X81281864Y-89218633D01*
X81281864Y-89218633D02*
X81348531Y-89185300D01*
X81348531Y-89185300D02*
X81381864Y-89151966D01*
X81381864Y-89151966D02*
X81448531Y-89051966D01*
X81448531Y-89051966D02*
X81481864Y-88918633D01*
X81481864Y-88918633D02*
X81481864Y-88651966D01*
X81481864Y-88651966D02*
X81448531Y-88585300D01*
X81448531Y-88585300D02*
X81415197Y-88551966D01*
X81415197Y-88551966D02*
X81348531Y-88518633D01*
X81348531Y-88518633D02*
X81215197Y-88518633D01*
X81215197Y-88518633D02*
X81148531Y-88551966D01*
X81148531Y-88551966D02*
X81115197Y-88585300D01*
X81115197Y-88585300D02*
X81081864Y-88651966D01*
X81081864Y-88651966D02*
X81081864Y-88818633D01*
X81081864Y-88818633D02*
X81115197Y-88885300D01*
X81115197Y-88885300D02*
X81148531Y-88918633D01*
X81148531Y-88918633D02*
X81215197Y-88951966D01*
X81215197Y-88951966D02*
X81348531Y-88951966D01*
X81348531Y-88951966D02*
X81415197Y-88918633D01*
X81415197Y-88918633D02*
X81448531Y-88885300D01*
X81448531Y-88885300D02*
X81481864Y-88818633D01*
X81081863Y-86211966D02*
X81081863Y-86678633D01*
X80915197Y-85945300D02*
X80748530Y-86445300D01*
X80748530Y-86445300D02*
X81181863Y-86445300D01*
X81748530Y-85978633D02*
X81615197Y-85978633D01*
X81615197Y-85978633D02*
X81548530Y-86011966D01*
X81548530Y-86011966D02*
X81515197Y-86045300D01*
X81515197Y-86045300D02*
X81448530Y-86145300D01*
X81448530Y-86145300D02*
X81415197Y-86278633D01*
X81415197Y-86278633D02*
X81415197Y-86545300D01*
X81415197Y-86545300D02*
X81448530Y-86611966D01*
X81448530Y-86611966D02*
X81481864Y-86645300D01*
X81481864Y-86645300D02*
X81548530Y-86678633D01*
X81548530Y-86678633D02*
X81681864Y-86678633D01*
X81681864Y-86678633D02*
X81748530Y-86645300D01*
X81748530Y-86645300D02*
X81781864Y-86611966D01*
X81781864Y-86611966D02*
X81815197Y-86545300D01*
X81815197Y-86545300D02*
X81815197Y-86378633D01*
X81815197Y-86378633D02*
X81781864Y-86311966D01*
X81781864Y-86311966D02*
X81748530Y-86278633D01*
X81748530Y-86278633D02*
X81681864Y-86245300D01*
X81681864Y-86245300D02*
X81548530Y-86245300D01*
X81548530Y-86245300D02*
X81481864Y-86278633D01*
X81481864Y-86278633D02*
X81448530Y-86311966D01*
X81448530Y-86311966D02*
X81415197Y-86378633D01*
X81148530Y-94298633D02*
X80748530Y-94298633D01*
X80948530Y-94298633D02*
X80948530Y-93598633D01*
X80948530Y-93598633D02*
X80881863Y-93698633D01*
X80881863Y-93698633D02*
X80815197Y-93765300D01*
X80815197Y-93765300D02*
X80748530Y-93798633D01*
X81815197Y-94298633D02*
X81415197Y-94298633D01*
X81615197Y-94298633D02*
X81615197Y-93598633D01*
X81615197Y-93598633D02*
X81548530Y-93698633D01*
X81548530Y-93698633D02*
X81481864Y-93765300D01*
X81481864Y-93765300D02*
X81415197Y-93798633D01*
X80748531Y-106331966D02*
X80681864Y-106298633D01*
X80681864Y-106298633D02*
X80581864Y-106298633D01*
X80581864Y-106298633D02*
X80481864Y-106331966D01*
X80481864Y-106331966D02*
X80415198Y-106398633D01*
X80415198Y-106398633D02*
X80381864Y-106465300D01*
X80381864Y-106465300D02*
X80348531Y-106598633D01*
X80348531Y-106598633D02*
X80348531Y-106698633D01*
X80348531Y-106698633D02*
X80381864Y-106831966D01*
X80381864Y-106831966D02*
X80415198Y-106898633D01*
X80415198Y-106898633D02*
X80481864Y-106965300D01*
X80481864Y-106965300D02*
X80581864Y-106998633D01*
X80581864Y-106998633D02*
X80648531Y-106998633D01*
X80648531Y-106998633D02*
X80748531Y-106965300D01*
X80748531Y-106965300D02*
X80781864Y-106931966D01*
X80781864Y-106931966D02*
X80781864Y-106698633D01*
X80781864Y-106698633D02*
X80648531Y-106698633D01*
X81081864Y-106998633D02*
X81081864Y-106298633D01*
X81081864Y-106298633D02*
X81481864Y-106998633D01*
X81481864Y-106998633D02*
X81481864Y-106298633D01*
X81815197Y-106998633D02*
X81815197Y-106298633D01*
X81815197Y-106298633D02*
X81981864Y-106298633D01*
X81981864Y-106298633D02*
X82081864Y-106331966D01*
X82081864Y-106331966D02*
X82148531Y-106398633D01*
X82148531Y-106398633D02*
X82181864Y-106465300D01*
X82181864Y-106465300D02*
X82215197Y-106598633D01*
X82215197Y-106598633D02*
X82215197Y-106698633D01*
X82215197Y-106698633D02*
X82181864Y-106831966D01*
X82181864Y-106831966D02*
X82148531Y-106898633D01*
X82148531Y-106898633D02*
X82081864Y-106965300D01*
X82081864Y-106965300D02*
X81981864Y-106998633D01*
X81981864Y-106998633D02*
X81815197Y-106998633D01*
X101411863Y-70971966D02*
X101411863Y-71438633D01*
X101245197Y-70705300D02*
X101078530Y-71205300D01*
X101078530Y-71205300D02*
X101511863Y-71205300D01*
X101911864Y-70738633D02*
X101978530Y-70738633D01*
X101978530Y-70738633D02*
X102045197Y-70771966D01*
X102045197Y-70771966D02*
X102078530Y-70805300D01*
X102078530Y-70805300D02*
X102111864Y-70871966D01*
X102111864Y-70871966D02*
X102145197Y-71005300D01*
X102145197Y-71005300D02*
X102145197Y-71171966D01*
X102145197Y-71171966D02*
X102111864Y-71305300D01*
X102111864Y-71305300D02*
X102078530Y-71371966D01*
X102078530Y-71371966D02*
X102045197Y-71405300D01*
X102045197Y-71405300D02*
X101978530Y-71438633D01*
X101978530Y-71438633D02*
X101911864Y-71438633D01*
X101911864Y-71438633D02*
X101845197Y-71405300D01*
X101845197Y-71405300D02*
X101811864Y-71371966D01*
X101811864Y-71371966D02*
X101778530Y-71305300D01*
X101778530Y-71305300D02*
X101745197Y-71171966D01*
X101745197Y-71171966D02*
X101745197Y-71005300D01*
X101745197Y-71005300D02*
X101778530Y-70871966D01*
X101778530Y-70871966D02*
X101811864Y-70805300D01*
X101811864Y-70805300D02*
X101845197Y-70771966D01*
X101845197Y-70771966D02*
X101911864Y-70738633D01*
X81215197Y-81198633D02*
X81148531Y-81165300D01*
X81148531Y-81165300D02*
X81115197Y-81131966D01*
X81115197Y-81131966D02*
X81081864Y-81065300D01*
X81081864Y-81065300D02*
X81081864Y-81031966D01*
X81081864Y-81031966D02*
X81115197Y-80965300D01*
X81115197Y-80965300D02*
X81148531Y-80931966D01*
X81148531Y-80931966D02*
X81215197Y-80898633D01*
X81215197Y-80898633D02*
X81348531Y-80898633D01*
X81348531Y-80898633D02*
X81415197Y-80931966D01*
X81415197Y-80931966D02*
X81448531Y-80965300D01*
X81448531Y-80965300D02*
X81481864Y-81031966D01*
X81481864Y-81031966D02*
X81481864Y-81065300D01*
X81481864Y-81065300D02*
X81448531Y-81131966D01*
X81448531Y-81131966D02*
X81415197Y-81165300D01*
X81415197Y-81165300D02*
X81348531Y-81198633D01*
X81348531Y-81198633D02*
X81215197Y-81198633D01*
X81215197Y-81198633D02*
X81148531Y-81231966D01*
X81148531Y-81231966D02*
X81115197Y-81265300D01*
X81115197Y-81265300D02*
X81081864Y-81331966D01*
X81081864Y-81331966D02*
X81081864Y-81465300D01*
X81081864Y-81465300D02*
X81115197Y-81531966D01*
X81115197Y-81531966D02*
X81148531Y-81565300D01*
X81148531Y-81565300D02*
X81215197Y-81598633D01*
X81215197Y-81598633D02*
X81348531Y-81598633D01*
X81348531Y-81598633D02*
X81415197Y-81565300D01*
X81415197Y-81565300D02*
X81448531Y-81531966D01*
X81448531Y-81531966D02*
X81481864Y-81465300D01*
X81481864Y-81465300D02*
X81481864Y-81331966D01*
X81481864Y-81331966D02*
X81448531Y-81265300D01*
X81448531Y-81265300D02*
X81415197Y-81231966D01*
X81415197Y-81231966D02*
X81348531Y-81198633D01*
X81148530Y-73978633D02*
X80748530Y-73978633D01*
X80948530Y-73978633D02*
X80948530Y-73278633D01*
X80948530Y-73278633D02*
X80881863Y-73378633D01*
X80881863Y-73378633D02*
X80815197Y-73445300D01*
X80815197Y-73445300D02*
X80748530Y-73478633D01*
X81748530Y-73278633D02*
X81615197Y-73278633D01*
X81615197Y-73278633D02*
X81548530Y-73311966D01*
X81548530Y-73311966D02*
X81515197Y-73345300D01*
X81515197Y-73345300D02*
X81448530Y-73445300D01*
X81448530Y-73445300D02*
X81415197Y-73578633D01*
X81415197Y-73578633D02*
X81415197Y-73845300D01*
X81415197Y-73845300D02*
X81448530Y-73911966D01*
X81448530Y-73911966D02*
X81481864Y-73945300D01*
X81481864Y-73945300D02*
X81548530Y-73978633D01*
X81548530Y-73978633D02*
X81681864Y-73978633D01*
X81681864Y-73978633D02*
X81748530Y-73945300D01*
X81748530Y-73945300D02*
X81781864Y-73911966D01*
X81781864Y-73911966D02*
X81815197Y-73845300D01*
X81815197Y-73845300D02*
X81815197Y-73678633D01*
X81815197Y-73678633D02*
X81781864Y-73611966D01*
X81781864Y-73611966D02*
X81748530Y-73578633D01*
X81748530Y-73578633D02*
X81681864Y-73545300D01*
X81681864Y-73545300D02*
X81548530Y-73545300D01*
X81548530Y-73545300D02*
X81481864Y-73578633D01*
X81481864Y-73578633D02*
X81448530Y-73611966D01*
X81448530Y-73611966D02*
X81415197Y-73678633D01*
X101811864Y-61278633D02*
X101411864Y-61278633D01*
X101611864Y-61278633D02*
X101611864Y-60578633D01*
X101611864Y-60578633D02*
X101545197Y-60678633D01*
X101545197Y-60678633D02*
X101478531Y-60745300D01*
X101478531Y-60745300D02*
X101411864Y-60778633D01*
X80898530Y-58738633D02*
X80665197Y-58405300D01*
X80498530Y-58738633D02*
X80498530Y-58038633D01*
X80498530Y-58038633D02*
X80765197Y-58038633D01*
X80765197Y-58038633D02*
X80831864Y-58071966D01*
X80831864Y-58071966D02*
X80865197Y-58105300D01*
X80865197Y-58105300D02*
X80898530Y-58171966D01*
X80898530Y-58171966D02*
X80898530Y-58271966D01*
X80898530Y-58271966D02*
X80865197Y-58338633D01*
X80865197Y-58338633D02*
X80831864Y-58371966D01*
X80831864Y-58371966D02*
X80765197Y-58405300D01*
X80765197Y-58405300D02*
X80498530Y-58405300D01*
X81165197Y-58705300D02*
X81265197Y-58738633D01*
X81265197Y-58738633D02*
X81431864Y-58738633D01*
X81431864Y-58738633D02*
X81498530Y-58705300D01*
X81498530Y-58705300D02*
X81531864Y-58671966D01*
X81531864Y-58671966D02*
X81565197Y-58605300D01*
X81565197Y-58605300D02*
X81565197Y-58538633D01*
X81565197Y-58538633D02*
X81531864Y-58471966D01*
X81531864Y-58471966D02*
X81498530Y-58438633D01*
X81498530Y-58438633D02*
X81431864Y-58405300D01*
X81431864Y-58405300D02*
X81298530Y-58371966D01*
X81298530Y-58371966D02*
X81231864Y-58338633D01*
X81231864Y-58338633D02*
X81198530Y-58305300D01*
X81198530Y-58305300D02*
X81165197Y-58238633D01*
X81165197Y-58238633D02*
X81165197Y-58171966D01*
X81165197Y-58171966D02*
X81198530Y-58105300D01*
X81198530Y-58105300D02*
X81231864Y-58071966D01*
X81231864Y-58071966D02*
X81298530Y-58038633D01*
X81298530Y-58038633D02*
X81465197Y-58038633D01*
X81465197Y-58038633D02*
X81565197Y-58071966D01*
X81765197Y-58038633D02*
X82165197Y-58038633D01*
X81965197Y-58738633D02*
X81965197Y-58038633D01*
X101078530Y-96205300D02*
X101111863Y-96171966D01*
X101111863Y-96171966D02*
X101178530Y-96138633D01*
X101178530Y-96138633D02*
X101345197Y-96138633D01*
X101345197Y-96138633D02*
X101411863Y-96171966D01*
X101411863Y-96171966D02*
X101445197Y-96205300D01*
X101445197Y-96205300D02*
X101478530Y-96271966D01*
X101478530Y-96271966D02*
X101478530Y-96338633D01*
X101478530Y-96338633D02*
X101445197Y-96438633D01*
X101445197Y-96438633D02*
X101045197Y-96838633D01*
X101045197Y-96838633D02*
X101478530Y-96838633D01*
X102145197Y-96838633D02*
X101745197Y-96838633D01*
X101945197Y-96838633D02*
X101945197Y-96138633D01*
X101945197Y-96138633D02*
X101878530Y-96238633D01*
X101878530Y-96238633D02*
X101811864Y-96305300D01*
X101811864Y-96305300D02*
X101745197Y-96338633D01*
X81148530Y-76518633D02*
X80748530Y-76518633D01*
X80948530Y-76518633D02*
X80948530Y-75818633D01*
X80948530Y-75818633D02*
X80881863Y-75918633D01*
X80881863Y-75918633D02*
X80815197Y-75985300D01*
X80815197Y-75985300D02*
X80748530Y-76018633D01*
X81381864Y-75818633D02*
X81848530Y-75818633D01*
X81848530Y-75818633D02*
X81548530Y-76518633D01*
X101045197Y-75818633D02*
X101478530Y-75818633D01*
X101478530Y-75818633D02*
X101245197Y-76085300D01*
X101245197Y-76085300D02*
X101345197Y-76085300D01*
X101345197Y-76085300D02*
X101411863Y-76118633D01*
X101411863Y-76118633D02*
X101445197Y-76151966D01*
X101445197Y-76151966D02*
X101478530Y-76218633D01*
X101478530Y-76218633D02*
X101478530Y-76385300D01*
X101478530Y-76385300D02*
X101445197Y-76451966D01*
X101445197Y-76451966D02*
X101411863Y-76485300D01*
X101411863Y-76485300D02*
X101345197Y-76518633D01*
X101345197Y-76518633D02*
X101145197Y-76518633D01*
X101145197Y-76518633D02*
X101078530Y-76485300D01*
X101078530Y-76485300D02*
X101045197Y-76451966D01*
X101878530Y-76118633D02*
X101811864Y-76085300D01*
X101811864Y-76085300D02*
X101778530Y-76051966D01*
X101778530Y-76051966D02*
X101745197Y-75985300D01*
X101745197Y-75985300D02*
X101745197Y-75951966D01*
X101745197Y-75951966D02*
X101778530Y-75885300D01*
X101778530Y-75885300D02*
X101811864Y-75851966D01*
X101811864Y-75851966D02*
X101878530Y-75818633D01*
X101878530Y-75818633D02*
X102011864Y-75818633D01*
X102011864Y-75818633D02*
X102078530Y-75851966D01*
X102078530Y-75851966D02*
X102111864Y-75885300D01*
X102111864Y-75885300D02*
X102145197Y-75951966D01*
X102145197Y-75951966D02*
X102145197Y-75985300D01*
X102145197Y-75985300D02*
X102111864Y-76051966D01*
X102111864Y-76051966D02*
X102078530Y-76085300D01*
X102078530Y-76085300D02*
X102011864Y-76118633D01*
X102011864Y-76118633D02*
X101878530Y-76118633D01*
X101878530Y-76118633D02*
X101811864Y-76151966D01*
X101811864Y-76151966D02*
X101778530Y-76185300D01*
X101778530Y-76185300D02*
X101745197Y-76251966D01*
X101745197Y-76251966D02*
X101745197Y-76385300D01*
X101745197Y-76385300D02*
X101778530Y-76451966D01*
X101778530Y-76451966D02*
X101811864Y-76485300D01*
X101811864Y-76485300D02*
X101878530Y-76518633D01*
X101878530Y-76518633D02*
X102011864Y-76518633D01*
X102011864Y-76518633D02*
X102078530Y-76485300D01*
X102078530Y-76485300D02*
X102111864Y-76451966D01*
X102111864Y-76451966D02*
X102145197Y-76385300D01*
X102145197Y-76385300D02*
X102145197Y-76251966D01*
X102145197Y-76251966D02*
X102111864Y-76185300D01*
X102111864Y-76185300D02*
X102078530Y-76151966D01*
X102078530Y-76151966D02*
X102011864Y-76118633D01*
X81148530Y-79058633D02*
X80748530Y-79058633D01*
X80948530Y-79058633D02*
X80948530Y-78358633D01*
X80948530Y-78358633D02*
X80881863Y-78458633D01*
X80881863Y-78458633D02*
X80815197Y-78525300D01*
X80815197Y-78525300D02*
X80748530Y-78558633D01*
X81548530Y-78658633D02*
X81481864Y-78625300D01*
X81481864Y-78625300D02*
X81448530Y-78591966D01*
X81448530Y-78591966D02*
X81415197Y-78525300D01*
X81415197Y-78525300D02*
X81415197Y-78491966D01*
X81415197Y-78491966D02*
X81448530Y-78425300D01*
X81448530Y-78425300D02*
X81481864Y-78391966D01*
X81481864Y-78391966D02*
X81548530Y-78358633D01*
X81548530Y-78358633D02*
X81681864Y-78358633D01*
X81681864Y-78358633D02*
X81748530Y-78391966D01*
X81748530Y-78391966D02*
X81781864Y-78425300D01*
X81781864Y-78425300D02*
X81815197Y-78491966D01*
X81815197Y-78491966D02*
X81815197Y-78525300D01*
X81815197Y-78525300D02*
X81781864Y-78591966D01*
X81781864Y-78591966D02*
X81748530Y-78625300D01*
X81748530Y-78625300D02*
X81681864Y-78658633D01*
X81681864Y-78658633D02*
X81548530Y-78658633D01*
X81548530Y-78658633D02*
X81481864Y-78691966D01*
X81481864Y-78691966D02*
X81448530Y-78725300D01*
X81448530Y-78725300D02*
X81415197Y-78791966D01*
X81415197Y-78791966D02*
X81415197Y-78925300D01*
X81415197Y-78925300D02*
X81448530Y-78991966D01*
X81448530Y-78991966D02*
X81481864Y-79025300D01*
X81481864Y-79025300D02*
X81548530Y-79058633D01*
X81548530Y-79058633D02*
X81681864Y-79058633D01*
X81681864Y-79058633D02*
X81748530Y-79025300D01*
X81748530Y-79025300D02*
X81781864Y-78991966D01*
X81781864Y-78991966D02*
X81815197Y-78925300D01*
X81815197Y-78925300D02*
X81815197Y-78791966D01*
X81815197Y-78791966D02*
X81781864Y-78725300D01*
X81781864Y-78725300D02*
X81748530Y-78691966D01*
X81748530Y-78691966D02*
X81681864Y-78658633D01*
X80281864Y-55498633D02*
X80715197Y-55498633D01*
X80715197Y-55498633D02*
X80481864Y-55765300D01*
X80481864Y-55765300D02*
X80581864Y-55765300D01*
X80581864Y-55765300D02*
X80648530Y-55798633D01*
X80648530Y-55798633D02*
X80681864Y-55831966D01*
X80681864Y-55831966D02*
X80715197Y-55898633D01*
X80715197Y-55898633D02*
X80715197Y-56065300D01*
X80715197Y-56065300D02*
X80681864Y-56131966D01*
X80681864Y-56131966D02*
X80648530Y-56165300D01*
X80648530Y-56165300D02*
X80581864Y-56198633D01*
X80581864Y-56198633D02*
X80381864Y-56198633D01*
X80381864Y-56198633D02*
X80315197Y-56165300D01*
X80315197Y-56165300D02*
X80281864Y-56131966D01*
X81015197Y-56131966D02*
X81048531Y-56165300D01*
X81048531Y-56165300D02*
X81015197Y-56198633D01*
X81015197Y-56198633D02*
X80981864Y-56165300D01*
X80981864Y-56165300D02*
X81015197Y-56131966D01*
X81015197Y-56131966D02*
X81015197Y-56198633D01*
X81281864Y-55498633D02*
X81715197Y-55498633D01*
X81715197Y-55498633D02*
X81481864Y-55765300D01*
X81481864Y-55765300D02*
X81581864Y-55765300D01*
X81581864Y-55765300D02*
X81648530Y-55798633D01*
X81648530Y-55798633D02*
X81681864Y-55831966D01*
X81681864Y-55831966D02*
X81715197Y-55898633D01*
X81715197Y-55898633D02*
X81715197Y-56065300D01*
X81715197Y-56065300D02*
X81681864Y-56131966D01*
X81681864Y-56131966D02*
X81648530Y-56165300D01*
X81648530Y-56165300D02*
X81581864Y-56198633D01*
X81581864Y-56198633D02*
X81381864Y-56198633D01*
X81381864Y-56198633D02*
X81315197Y-56165300D01*
X81315197Y-56165300D02*
X81281864Y-56131966D01*
X81948531Y-55731966D02*
X82115197Y-56198633D01*
X82115197Y-56198633D02*
X82281864Y-55731966D01*
X101411863Y-88751966D02*
X101411863Y-89218633D01*
X101245197Y-88485300D02*
X101078530Y-88985300D01*
X101078530Y-88985300D02*
X101511863Y-88985300D01*
X102111864Y-88518633D02*
X101778530Y-88518633D01*
X101778530Y-88518633D02*
X101745197Y-88851966D01*
X101745197Y-88851966D02*
X101778530Y-88818633D01*
X101778530Y-88818633D02*
X101845197Y-88785300D01*
X101845197Y-88785300D02*
X102011864Y-88785300D01*
X102011864Y-88785300D02*
X102078530Y-88818633D01*
X102078530Y-88818633D02*
X102111864Y-88851966D01*
X102111864Y-88851966D02*
X102145197Y-88918633D01*
X102145197Y-88918633D02*
X102145197Y-89085300D01*
X102145197Y-89085300D02*
X102111864Y-89151966D01*
X102111864Y-89151966D02*
X102078530Y-89185300D01*
X102078530Y-89185300D02*
X102011864Y-89218633D01*
X102011864Y-89218633D02*
X101845197Y-89218633D01*
X101845197Y-89218633D02*
X101778530Y-89185300D01*
X101778530Y-89185300D02*
X101745197Y-89151966D01*
X81181864Y-103758633D02*
X80848530Y-103758633D01*
X80848530Y-103758633D02*
X80815197Y-104091966D01*
X80815197Y-104091966D02*
X80848530Y-104058633D01*
X80848530Y-104058633D02*
X80915197Y-104025300D01*
X80915197Y-104025300D02*
X81081864Y-104025300D01*
X81081864Y-104025300D02*
X81148530Y-104058633D01*
X81148530Y-104058633D02*
X81181864Y-104091966D01*
X81181864Y-104091966D02*
X81215197Y-104158633D01*
X81215197Y-104158633D02*
X81215197Y-104325300D01*
X81215197Y-104325300D02*
X81181864Y-104391966D01*
X81181864Y-104391966D02*
X81148530Y-104425300D01*
X81148530Y-104425300D02*
X81081864Y-104458633D01*
X81081864Y-104458633D02*
X80915197Y-104458633D01*
X80915197Y-104458633D02*
X80848530Y-104425300D01*
X80848530Y-104425300D02*
X80815197Y-104391966D01*
X81448531Y-103991966D02*
X81615197Y-104458633D01*
X81615197Y-104458633D02*
X81781864Y-103991966D01*
X101045197Y-80898633D02*
X101478530Y-80898633D01*
X101478530Y-80898633D02*
X101245197Y-81165300D01*
X101245197Y-81165300D02*
X101345197Y-81165300D01*
X101345197Y-81165300D02*
X101411863Y-81198633D01*
X101411863Y-81198633D02*
X101445197Y-81231966D01*
X101445197Y-81231966D02*
X101478530Y-81298633D01*
X101478530Y-81298633D02*
X101478530Y-81465300D01*
X101478530Y-81465300D02*
X101445197Y-81531966D01*
X101445197Y-81531966D02*
X101411863Y-81565300D01*
X101411863Y-81565300D02*
X101345197Y-81598633D01*
X101345197Y-81598633D02*
X101145197Y-81598633D01*
X101145197Y-81598633D02*
X101078530Y-81565300D01*
X101078530Y-81565300D02*
X101045197Y-81531966D01*
X102078530Y-80898633D02*
X101945197Y-80898633D01*
X101945197Y-80898633D02*
X101878530Y-80931966D01*
X101878530Y-80931966D02*
X101845197Y-80965300D01*
X101845197Y-80965300D02*
X101778530Y-81065300D01*
X101778530Y-81065300D02*
X101745197Y-81198633D01*
X101745197Y-81198633D02*
X101745197Y-81465300D01*
X101745197Y-81465300D02*
X101778530Y-81531966D01*
X101778530Y-81531966D02*
X101811864Y-81565300D01*
X101811864Y-81565300D02*
X101878530Y-81598633D01*
X101878530Y-81598633D02*
X102011864Y-81598633D01*
X102011864Y-81598633D02*
X102078530Y-81565300D01*
X102078530Y-81565300D02*
X102111864Y-81531966D01*
X102111864Y-81531966D02*
X102145197Y-81465300D01*
X102145197Y-81465300D02*
X102145197Y-81298633D01*
X102145197Y-81298633D02*
X102111864Y-81231966D01*
X102111864Y-81231966D02*
X102078530Y-81198633D01*
X102078530Y-81198633D02*
X102011864Y-81165300D01*
X102011864Y-81165300D02*
X101878530Y-81165300D01*
X101878530Y-81165300D02*
X101811864Y-81198633D01*
X101811864Y-81198633D02*
X101778530Y-81231966D01*
X101778530Y-81231966D02*
X101745197Y-81298633D01*
X101411863Y-91291966D02*
X101411863Y-91758633D01*
X101245197Y-91025300D02*
X101078530Y-91525300D01*
X101078530Y-91525300D02*
X101511863Y-91525300D01*
X101878530Y-91358633D02*
X101811864Y-91325300D01*
X101811864Y-91325300D02*
X101778530Y-91291966D01*
X101778530Y-91291966D02*
X101745197Y-91225300D01*
X101745197Y-91225300D02*
X101745197Y-91191966D01*
X101745197Y-91191966D02*
X101778530Y-91125300D01*
X101778530Y-91125300D02*
X101811864Y-91091966D01*
X101811864Y-91091966D02*
X101878530Y-91058633D01*
X101878530Y-91058633D02*
X102011864Y-91058633D01*
X102011864Y-91058633D02*
X102078530Y-91091966D01*
X102078530Y-91091966D02*
X102111864Y-91125300D01*
X102111864Y-91125300D02*
X102145197Y-91191966D01*
X102145197Y-91191966D02*
X102145197Y-91225300D01*
X102145197Y-91225300D02*
X102111864Y-91291966D01*
X102111864Y-91291966D02*
X102078530Y-91325300D01*
X102078530Y-91325300D02*
X102011864Y-91358633D01*
X102011864Y-91358633D02*
X101878530Y-91358633D01*
X101878530Y-91358633D02*
X101811864Y-91391966D01*
X101811864Y-91391966D02*
X101778530Y-91425300D01*
X101778530Y-91425300D02*
X101745197Y-91491966D01*
X101745197Y-91491966D02*
X101745197Y-91625300D01*
X101745197Y-91625300D02*
X101778530Y-91691966D01*
X101778530Y-91691966D02*
X101811864Y-91725300D01*
X101811864Y-91725300D02*
X101878530Y-91758633D01*
X101878530Y-91758633D02*
X102011864Y-91758633D01*
X102011864Y-91758633D02*
X102078530Y-91725300D01*
X102078530Y-91725300D02*
X102111864Y-91691966D01*
X102111864Y-91691966D02*
X102145197Y-91625300D01*
X102145197Y-91625300D02*
X102145197Y-91491966D01*
X102145197Y-91491966D02*
X102111864Y-91425300D01*
X102111864Y-91425300D02*
X102078530Y-91391966D01*
X102078530Y-91391966D02*
X102011864Y-91358633D01*
X81148530Y-91758633D02*
X80748530Y-91758633D01*
X80948530Y-91758633D02*
X80948530Y-91058633D01*
X80948530Y-91058633D02*
X80881863Y-91158633D01*
X80881863Y-91158633D02*
X80815197Y-91225300D01*
X80815197Y-91225300D02*
X80748530Y-91258633D01*
X81581864Y-91058633D02*
X81648530Y-91058633D01*
X81648530Y-91058633D02*
X81715197Y-91091966D01*
X81715197Y-91091966D02*
X81748530Y-91125300D01*
X81748530Y-91125300D02*
X81781864Y-91191966D01*
X81781864Y-91191966D02*
X81815197Y-91325300D01*
X81815197Y-91325300D02*
X81815197Y-91491966D01*
X81815197Y-91491966D02*
X81781864Y-91625300D01*
X81781864Y-91625300D02*
X81748530Y-91691966D01*
X81748530Y-91691966D02*
X81715197Y-91725300D01*
X81715197Y-91725300D02*
X81648530Y-91758633D01*
X81648530Y-91758633D02*
X81581864Y-91758633D01*
X81581864Y-91758633D02*
X81515197Y-91725300D01*
X81515197Y-91725300D02*
X81481864Y-91691966D01*
X81481864Y-91691966D02*
X81448530Y-91625300D01*
X81448530Y-91625300D02*
X81415197Y-91491966D01*
X81415197Y-91491966D02*
X81415197Y-91325300D01*
X81415197Y-91325300D02*
X81448530Y-91191966D01*
X81448530Y-91191966D02*
X81481864Y-91125300D01*
X81481864Y-91125300D02*
X81515197Y-91091966D01*
X81515197Y-91091966D02*
X81581864Y-91058633D01*
X81048531Y-68198633D02*
X81515197Y-68198633D01*
X81515197Y-68198633D02*
X81215197Y-68898633D01*
X81148530Y-99378633D02*
X80748530Y-99378633D01*
X80948530Y-99378633D02*
X80948530Y-98678633D01*
X80948530Y-98678633D02*
X80881863Y-98778633D01*
X80881863Y-98778633D02*
X80815197Y-98845300D01*
X80815197Y-98845300D02*
X80748530Y-98878633D01*
X81381864Y-98678633D02*
X81815197Y-98678633D01*
X81815197Y-98678633D02*
X81581864Y-98945300D01*
X81581864Y-98945300D02*
X81681864Y-98945300D01*
X81681864Y-98945300D02*
X81748530Y-98978633D01*
X81748530Y-98978633D02*
X81781864Y-99011966D01*
X81781864Y-99011966D02*
X81815197Y-99078633D01*
X81815197Y-99078633D02*
X81815197Y-99245300D01*
X81815197Y-99245300D02*
X81781864Y-99311966D01*
X81781864Y-99311966D02*
X81748530Y-99345300D01*
X81748530Y-99345300D02*
X81681864Y-99378633D01*
X81681864Y-99378633D02*
X81481864Y-99378633D01*
X81481864Y-99378633D02*
X81415197Y-99345300D01*
X81415197Y-99345300D02*
X81381864Y-99311966D01*
X81415197Y-65658633D02*
X81281864Y-65658633D01*
X81281864Y-65658633D02*
X81215197Y-65691966D01*
X81215197Y-65691966D02*
X81181864Y-65725300D01*
X81181864Y-65725300D02*
X81115197Y-65825300D01*
X81115197Y-65825300D02*
X81081864Y-65958633D01*
X81081864Y-65958633D02*
X81081864Y-66225300D01*
X81081864Y-66225300D02*
X81115197Y-66291966D01*
X81115197Y-66291966D02*
X81148531Y-66325300D01*
X81148531Y-66325300D02*
X81215197Y-66358633D01*
X81215197Y-66358633D02*
X81348531Y-66358633D01*
X81348531Y-66358633D02*
X81415197Y-66325300D01*
X81415197Y-66325300D02*
X81448531Y-66291966D01*
X81448531Y-66291966D02*
X81481864Y-66225300D01*
X81481864Y-66225300D02*
X81481864Y-66058633D01*
X81481864Y-66058633D02*
X81448531Y-65991966D01*
X81448531Y-65991966D02*
X81415197Y-65958633D01*
X81415197Y-65958633D02*
X81348531Y-65925300D01*
X81348531Y-65925300D02*
X81215197Y-65925300D01*
X81215197Y-65925300D02*
X81148531Y-65958633D01*
X81148531Y-65958633D02*
X81115197Y-65991966D01*
X81115197Y-65991966D02*
X81081864Y-66058633D01*
X80281864Y-52958633D02*
X80715197Y-52958633D01*
X80715197Y-52958633D02*
X80481864Y-53225300D01*
X80481864Y-53225300D02*
X80581864Y-53225300D01*
X80581864Y-53225300D02*
X80648530Y-53258633D01*
X80648530Y-53258633D02*
X80681864Y-53291966D01*
X80681864Y-53291966D02*
X80715197Y-53358633D01*
X80715197Y-53358633D02*
X80715197Y-53525300D01*
X80715197Y-53525300D02*
X80681864Y-53591966D01*
X80681864Y-53591966D02*
X80648530Y-53625300D01*
X80648530Y-53625300D02*
X80581864Y-53658633D01*
X80581864Y-53658633D02*
X80381864Y-53658633D01*
X80381864Y-53658633D02*
X80315197Y-53625300D01*
X80315197Y-53625300D02*
X80281864Y-53591966D01*
X81015197Y-53591966D02*
X81048531Y-53625300D01*
X81048531Y-53625300D02*
X81015197Y-53658633D01*
X81015197Y-53658633D02*
X80981864Y-53625300D01*
X80981864Y-53625300D02*
X81015197Y-53591966D01*
X81015197Y-53591966D02*
X81015197Y-53658633D01*
X81281864Y-52958633D02*
X81715197Y-52958633D01*
X81715197Y-52958633D02*
X81481864Y-53225300D01*
X81481864Y-53225300D02*
X81581864Y-53225300D01*
X81581864Y-53225300D02*
X81648530Y-53258633D01*
X81648530Y-53258633D02*
X81681864Y-53291966D01*
X81681864Y-53291966D02*
X81715197Y-53358633D01*
X81715197Y-53358633D02*
X81715197Y-53525300D01*
X81715197Y-53525300D02*
X81681864Y-53591966D01*
X81681864Y-53591966D02*
X81648530Y-53625300D01*
X81648530Y-53625300D02*
X81581864Y-53658633D01*
X81581864Y-53658633D02*
X81381864Y-53658633D01*
X81381864Y-53658633D02*
X81315197Y-53625300D01*
X81315197Y-53625300D02*
X81281864Y-53591966D01*
X81948531Y-53191966D02*
X82115197Y-53658633D01*
X82115197Y-53658633D02*
X82281864Y-53191966D01*
X101045197Y-73278633D02*
X101478530Y-73278633D01*
X101478530Y-73278633D02*
X101245197Y-73545300D01*
X101245197Y-73545300D02*
X101345197Y-73545300D01*
X101345197Y-73545300D02*
X101411863Y-73578633D01*
X101411863Y-73578633D02*
X101445197Y-73611966D01*
X101445197Y-73611966D02*
X101478530Y-73678633D01*
X101478530Y-73678633D02*
X101478530Y-73845300D01*
X101478530Y-73845300D02*
X101445197Y-73911966D01*
X101445197Y-73911966D02*
X101411863Y-73945300D01*
X101411863Y-73945300D02*
X101345197Y-73978633D01*
X101345197Y-73978633D02*
X101145197Y-73978633D01*
X101145197Y-73978633D02*
X101078530Y-73945300D01*
X101078530Y-73945300D02*
X101045197Y-73911966D01*
X101811864Y-73978633D02*
X101945197Y-73978633D01*
X101945197Y-73978633D02*
X102011864Y-73945300D01*
X102011864Y-73945300D02*
X102045197Y-73911966D01*
X102045197Y-73911966D02*
X102111864Y-73811966D01*
X102111864Y-73811966D02*
X102145197Y-73678633D01*
X102145197Y-73678633D02*
X102145197Y-73411966D01*
X102145197Y-73411966D02*
X102111864Y-73345300D01*
X102111864Y-73345300D02*
X102078530Y-73311966D01*
X102078530Y-73311966D02*
X102011864Y-73278633D01*
X102011864Y-73278633D02*
X101878530Y-73278633D01*
X101878530Y-73278633D02*
X101811864Y-73311966D01*
X101811864Y-73311966D02*
X101778530Y-73345300D01*
X101778530Y-73345300D02*
X101745197Y-73411966D01*
X101745197Y-73411966D02*
X101745197Y-73578633D01*
X101745197Y-73578633D02*
X101778530Y-73645300D01*
X101778530Y-73645300D02*
X101811864Y-73678633D01*
X101811864Y-73678633D02*
X101878530Y-73711966D01*
X101878530Y-73711966D02*
X102011864Y-73711966D01*
X102011864Y-73711966D02*
X102078530Y-73678633D01*
X102078530Y-73678633D02*
X102111864Y-73645300D01*
X102111864Y-73645300D02*
X102145197Y-73578633D01*
X101045197Y-78358633D02*
X101478530Y-78358633D01*
X101478530Y-78358633D02*
X101245197Y-78625300D01*
X101245197Y-78625300D02*
X101345197Y-78625300D01*
X101345197Y-78625300D02*
X101411863Y-78658633D01*
X101411863Y-78658633D02*
X101445197Y-78691966D01*
X101445197Y-78691966D02*
X101478530Y-78758633D01*
X101478530Y-78758633D02*
X101478530Y-78925300D01*
X101478530Y-78925300D02*
X101445197Y-78991966D01*
X101445197Y-78991966D02*
X101411863Y-79025300D01*
X101411863Y-79025300D02*
X101345197Y-79058633D01*
X101345197Y-79058633D02*
X101145197Y-79058633D01*
X101145197Y-79058633D02*
X101078530Y-79025300D01*
X101078530Y-79025300D02*
X101045197Y-78991966D01*
X101711864Y-78358633D02*
X102178530Y-78358633D01*
X102178530Y-78358633D02*
X101878530Y-79058633D01*
X81048531Y-83438633D02*
X81481864Y-83438633D01*
X81481864Y-83438633D02*
X81248531Y-83705300D01*
X81248531Y-83705300D02*
X81348531Y-83705300D01*
X81348531Y-83705300D02*
X81415197Y-83738633D01*
X81415197Y-83738633D02*
X81448531Y-83771966D01*
X81448531Y-83771966D02*
X81481864Y-83838633D01*
X81481864Y-83838633D02*
X81481864Y-84005300D01*
X81481864Y-84005300D02*
X81448531Y-84071966D01*
X81448531Y-84071966D02*
X81415197Y-84105300D01*
X81415197Y-84105300D02*
X81348531Y-84138633D01*
X81348531Y-84138633D02*
X81148531Y-84138633D01*
X81148531Y-84138633D02*
X81081864Y-84105300D01*
X81081864Y-84105300D02*
X81048531Y-84071966D01*
X101078531Y-106331966D02*
X101011864Y-106298633D01*
X101011864Y-106298633D02*
X100911864Y-106298633D01*
X100911864Y-106298633D02*
X100811864Y-106331966D01*
X100811864Y-106331966D02*
X100745198Y-106398633D01*
X100745198Y-106398633D02*
X100711864Y-106465300D01*
X100711864Y-106465300D02*
X100678531Y-106598633D01*
X100678531Y-106598633D02*
X100678531Y-106698633D01*
X100678531Y-106698633D02*
X100711864Y-106831966D01*
X100711864Y-106831966D02*
X100745198Y-106898633D01*
X100745198Y-106898633D02*
X100811864Y-106965300D01*
X100811864Y-106965300D02*
X100911864Y-106998633D01*
X100911864Y-106998633D02*
X100978531Y-106998633D01*
X100978531Y-106998633D02*
X101078531Y-106965300D01*
X101078531Y-106965300D02*
X101111864Y-106931966D01*
X101111864Y-106931966D02*
X101111864Y-106698633D01*
X101111864Y-106698633D02*
X100978531Y-106698633D01*
X101411864Y-106998633D02*
X101411864Y-106298633D01*
X101411864Y-106298633D02*
X101811864Y-106998633D01*
X101811864Y-106998633D02*
X101811864Y-106298633D01*
X102145197Y-106998633D02*
X102145197Y-106298633D01*
X102145197Y-106298633D02*
X102311864Y-106298633D01*
X102311864Y-106298633D02*
X102411864Y-106331966D01*
X102411864Y-106331966D02*
X102478531Y-106398633D01*
X102478531Y-106398633D02*
X102511864Y-106465300D01*
X102511864Y-106465300D02*
X102545197Y-106598633D01*
X102545197Y-106598633D02*
X102545197Y-106698633D01*
X102545197Y-106698633D02*
X102511864Y-106831966D01*
X102511864Y-106831966D02*
X102478531Y-106898633D01*
X102478531Y-106898633D02*
X102411864Y-106965300D01*
X102411864Y-106965300D02*
X102311864Y-106998633D01*
X102311864Y-106998633D02*
X102145197Y-106998633D01*
X101078530Y-55498633D02*
X101478530Y-55498633D01*
X101278530Y-56198633D02*
X101278530Y-55498633D01*
X101645197Y-55498633D02*
X102111863Y-56198633D01*
X102111863Y-55498633D02*
X101645197Y-56198633D01*
X81448531Y-63118633D02*
X81115197Y-63118633D01*
X81115197Y-63118633D02*
X81081864Y-63451966D01*
X81081864Y-63451966D02*
X81115197Y-63418633D01*
X81115197Y-63418633D02*
X81181864Y-63385300D01*
X81181864Y-63385300D02*
X81348531Y-63385300D01*
X81348531Y-63385300D02*
X81415197Y-63418633D01*
X81415197Y-63418633D02*
X81448531Y-63451966D01*
X81448531Y-63451966D02*
X81481864Y-63518633D01*
X81481864Y-63518633D02*
X81481864Y-63685300D01*
X81481864Y-63685300D02*
X81448531Y-63751966D01*
X81448531Y-63751966D02*
X81415197Y-63785300D01*
X81415197Y-63785300D02*
X81348531Y-63818633D01*
X81348531Y-63818633D02*
X81181864Y-63818633D01*
X81181864Y-63818633D02*
X81115197Y-63785300D01*
X81115197Y-63785300D02*
X81081864Y-63751966D01*
D11*
X31454819Y-107081904D02*
X32264342Y-107081904D01*
X32264342Y-107081904D02*
X32359580Y-107034285D01*
X32359580Y-107034285D02*
X32407200Y-106986666D01*
X32407200Y-106986666D02*
X32454819Y-106891428D01*
X32454819Y-106891428D02*
X32454819Y-106700952D01*
X32454819Y-106700952D02*
X32407200Y-106605714D01*
X32407200Y-106605714D02*
X32359580Y-106558095D01*
X32359580Y-106558095D02*
X32264342Y-106510476D01*
X32264342Y-106510476D02*
X31454819Y-106510476D01*
X31454819Y-106129523D02*
X31454819Y-105510476D01*
X31454819Y-105510476D02*
X31835771Y-105843809D01*
X31835771Y-105843809D02*
X31835771Y-105700952D01*
X31835771Y-105700952D02*
X31883390Y-105605714D01*
X31883390Y-105605714D02*
X31931009Y-105558095D01*
X31931009Y-105558095D02*
X32026247Y-105510476D01*
X32026247Y-105510476D02*
X32264342Y-105510476D01*
X32264342Y-105510476D02*
X32359580Y-105558095D01*
X32359580Y-105558095D02*
X32407200Y-105605714D01*
X32407200Y-105605714D02*
X32454819Y-105700952D01*
X32454819Y-105700952D02*
X32454819Y-105986666D01*
X32454819Y-105986666D02*
X32407200Y-106081904D01*
X32407200Y-106081904D02*
X32359580Y-106129523D01*
G36*
X132638906Y-52904077D02*
G01*
X132669313Y-52934483D01*
X132703571Y-53003000D01*
X132703571Y-53110446D01*
X132669313Y-53178963D01*
X132638906Y-53209369D01*
X132570390Y-53243628D01*
X132282143Y-53243628D01*
X132282143Y-52869819D01*
X132570390Y-52869819D01*
X132638906Y-52904077D01*
G37*
G36*
X134757194Y-54012676D02*
G01*
X131989286Y-54012676D01*
X131989286Y-53794819D01*
X132132143Y-53794819D01*
X132149690Y-53843028D01*
X132194119Y-53868680D01*
X132244643Y-53859771D01*
X132277620Y-53820471D01*
X132282143Y-53794819D01*
X132282143Y-53393628D01*
X132406189Y-53393628D01*
X132717129Y-53837829D01*
X132759150Y-53867261D01*
X132810258Y-53862797D01*
X132846540Y-53826525D01*
X132849319Y-53794819D01*
X133132143Y-53794819D01*
X133138806Y-53813127D01*
X133142191Y-53832319D01*
X133147375Y-53836669D01*
X133149690Y-53843028D01*
X133166563Y-53852770D01*
X133181491Y-53865296D01*
X133191233Y-53867013D01*
X133194119Y-53868680D01*
X133197401Y-53868101D01*
X133207143Y-53869819D01*
X133683333Y-53869819D01*
X133731542Y-53852272D01*
X133757194Y-53807843D01*
X133752601Y-53781795D01*
X133895187Y-53781795D01*
X133904096Y-53832319D01*
X133943396Y-53865296D01*
X133969048Y-53869819D01*
X134540476Y-53869819D01*
X134588685Y-53852272D01*
X134614337Y-53807843D01*
X134605428Y-53757319D01*
X134566128Y-53724342D01*
X134540476Y-53719819D01*
X134329762Y-53719819D01*
X134329762Y-52794819D01*
X134328286Y-52790765D01*
X134329307Y-52786576D01*
X134319659Y-52767063D01*
X134312215Y-52746610D01*
X134308480Y-52744454D01*
X134306569Y-52740587D01*
X134286634Y-52731840D01*
X134267786Y-52720958D01*
X134263538Y-52721706D01*
X134259589Y-52719974D01*
X134238694Y-52726087D01*
X134217262Y-52729867D01*
X134214490Y-52733169D01*
X134210351Y-52734381D01*
X134192358Y-52753216D01*
X134101238Y-52889895D01*
X134019858Y-52971275D01*
X133935507Y-53013451D01*
X133900235Y-53050705D01*
X133897160Y-53101916D01*
X133927724Y-53143121D01*
X133977622Y-53155041D01*
X134002589Y-53147615D01*
X134097827Y-53099996D01*
X134098952Y-53098806D01*
X134117319Y-53085947D01*
X134179761Y-53023504D01*
X134179762Y-53719819D01*
X133969048Y-53719819D01*
X133920839Y-53737366D01*
X133895187Y-53781795D01*
X133752601Y-53781795D01*
X133748285Y-53757319D01*
X133708985Y-53724342D01*
X133683333Y-53719819D01*
X133282143Y-53719819D01*
X133282143Y-52794819D01*
X133264596Y-52746610D01*
X133220167Y-52720958D01*
X133169643Y-52729867D01*
X133136666Y-52769167D01*
X133132143Y-52794819D01*
X133132143Y-53794819D01*
X132849319Y-53794819D01*
X132851019Y-53775418D01*
X132840014Y-53751810D01*
X132589044Y-53393282D01*
X132592308Y-53392094D01*
X132596669Y-53393136D01*
X132621636Y-53385710D01*
X132716874Y-53338091D01*
X132717999Y-53336901D01*
X132736366Y-53324042D01*
X132783985Y-53276423D01*
X132784676Y-53274941D01*
X132798034Y-53256931D01*
X132845653Y-53161693D01*
X132846165Y-53157239D01*
X132849048Y-53153804D01*
X132853571Y-53128152D01*
X132853571Y-52985295D01*
X132852037Y-52981081D01*
X132853079Y-52976720D01*
X132845653Y-52951754D01*
X132798034Y-52856516D01*
X132796844Y-52855390D01*
X132783985Y-52837024D01*
X132736366Y-52789405D01*
X132734884Y-52788714D01*
X132716874Y-52775356D01*
X132621636Y-52727737D01*
X132617182Y-52727224D01*
X132613747Y-52724342D01*
X132588095Y-52719819D01*
X132207143Y-52719819D01*
X132188834Y-52726482D01*
X132169643Y-52729867D01*
X132165292Y-52735051D01*
X132158934Y-52737366D01*
X132149191Y-52754239D01*
X132136666Y-52769167D01*
X132134948Y-52778909D01*
X132133282Y-52781795D01*
X132133860Y-52785077D01*
X132132143Y-52794819D01*
X132132143Y-53794819D01*
X131989286Y-53794819D01*
X131989286Y-52576962D01*
X134757194Y-52576962D01*
X134757194Y-54012676D01*
G37*
D12*
X135558884Y-43052466D02*
X136320789Y-43052466D01*
X135939836Y-43433419D02*
X135939836Y-42671514D01*
X136701741Y-42433419D02*
X137320788Y-42433419D01*
X137320788Y-42433419D02*
X136987455Y-42814371D01*
X136987455Y-42814371D02*
X137130312Y-42814371D01*
X137130312Y-42814371D02*
X137225550Y-42861990D01*
X137225550Y-42861990D02*
X137273169Y-42909609D01*
X137273169Y-42909609D02*
X137320788Y-43004847D01*
X137320788Y-43004847D02*
X137320788Y-43242942D01*
X137320788Y-43242942D02*
X137273169Y-43338180D01*
X137273169Y-43338180D02*
X137225550Y-43385800D01*
X137225550Y-43385800D02*
X137130312Y-43433419D01*
X137130312Y-43433419D02*
X136844598Y-43433419D01*
X136844598Y-43433419D02*
X136749360Y-43385800D01*
X136749360Y-43385800D02*
X136701741Y-43338180D01*
X137654122Y-42766752D02*
X137892217Y-43433419D01*
X137892217Y-43433419D02*
X138130312Y-42766752D01*
X135431884Y-52196466D02*
X136193789Y-52196466D01*
D11*
G36*
X125018906Y-52904077D02*
G01*
X125049312Y-52934483D01*
X125083571Y-53002999D01*
X125083571Y-53110446D01*
X125049312Y-53178963D01*
X125018905Y-53209370D01*
X124950390Y-53243628D01*
X124662143Y-53243628D01*
X124662143Y-52869819D01*
X124950390Y-52869819D01*
X125018906Y-52904077D01*
G37*
G36*
X127138333Y-54012676D02*
G01*
X124369286Y-54012676D01*
X124369286Y-53794819D01*
X124512143Y-53794819D01*
X124529690Y-53843028D01*
X124574119Y-53868680D01*
X124624643Y-53859771D01*
X124657620Y-53820471D01*
X124662143Y-53794819D01*
X124662143Y-53393628D01*
X124786189Y-53393628D01*
X125097129Y-53837829D01*
X125139150Y-53867261D01*
X125190258Y-53862797D01*
X125226540Y-53826525D01*
X125229319Y-53794819D01*
X125512143Y-53794819D01*
X125518806Y-53813127D01*
X125522191Y-53832319D01*
X125527375Y-53836669D01*
X125529690Y-53843028D01*
X125546563Y-53852770D01*
X125561491Y-53865296D01*
X125571233Y-53867013D01*
X125574119Y-53868680D01*
X125577401Y-53868101D01*
X125587143Y-53869819D01*
X126063333Y-53869819D01*
X126111542Y-53852272D01*
X126137194Y-53807843D01*
X126133745Y-53788283D01*
X126226715Y-53788283D01*
X126232556Y-53810085D01*
X126236477Y-53832319D01*
X126239104Y-53834523D01*
X126239992Y-53837837D01*
X126258483Y-53850785D01*
X126275777Y-53865296D01*
X126280361Y-53866104D01*
X126282018Y-53867264D01*
X126285306Y-53866976D01*
X126301429Y-53869819D01*
X126920476Y-53869819D01*
X126968685Y-53852272D01*
X126994337Y-53807843D01*
X126985428Y-53757319D01*
X126946128Y-53724342D01*
X126920476Y-53719819D01*
X126482495Y-53719819D01*
X126925890Y-53276423D01*
X126927785Y-53272358D01*
X126931605Y-53270012D01*
X126944008Y-53247107D01*
X126991627Y-53104251D01*
X126991582Y-53102615D01*
X126995476Y-53080533D01*
X126995476Y-52985295D01*
X126993942Y-52981081D01*
X126994984Y-52976720D01*
X126987558Y-52951754D01*
X126939939Y-52856516D01*
X126938749Y-52855390D01*
X126925890Y-52837024D01*
X126878271Y-52789405D01*
X126876789Y-52788714D01*
X126858779Y-52775356D01*
X126763541Y-52727737D01*
X126759087Y-52727224D01*
X126755652Y-52724342D01*
X126730000Y-52719819D01*
X126491905Y-52719819D01*
X126487691Y-52721352D01*
X126483330Y-52720311D01*
X126458364Y-52727737D01*
X126363126Y-52775356D01*
X126362000Y-52776545D01*
X126343634Y-52789405D01*
X126296015Y-52837024D01*
X126274334Y-52883521D01*
X126287611Y-52933075D01*
X126329637Y-52962502D01*
X126380744Y-52958030D01*
X126402081Y-52943090D01*
X126441094Y-52904076D01*
X126509610Y-52869819D01*
X126712295Y-52869819D01*
X126780810Y-52904076D01*
X126811218Y-52934484D01*
X126845476Y-53003000D01*
X126845476Y-53068362D01*
X126807304Y-53182876D01*
X126248396Y-53741786D01*
X126238858Y-53762239D01*
X126227568Y-53781795D01*
X126228164Y-53785175D01*
X126226715Y-53788283D01*
X126133745Y-53788283D01*
X126128285Y-53757319D01*
X126088985Y-53724342D01*
X126063333Y-53719819D01*
X125662143Y-53719819D01*
X125662143Y-52794819D01*
X125644596Y-52746610D01*
X125600167Y-52720958D01*
X125549643Y-52729867D01*
X125516666Y-52769167D01*
X125512143Y-52794819D01*
X125512143Y-53794819D01*
X125229319Y-53794819D01*
X125231019Y-53775418D01*
X125220014Y-53751810D01*
X124969044Y-53393282D01*
X124972308Y-53392094D01*
X124976669Y-53393136D01*
X125001636Y-53385710D01*
X125096874Y-53338091D01*
X125097999Y-53336901D01*
X125116366Y-53324042D01*
X125163985Y-53276423D01*
X125164676Y-53274941D01*
X125178034Y-53256931D01*
X125225653Y-53161693D01*
X125226165Y-53157239D01*
X125229048Y-53153804D01*
X125233571Y-53128152D01*
X125233571Y-52985295D01*
X125232037Y-52981081D01*
X125233079Y-52976720D01*
X125225653Y-52951754D01*
X125178034Y-52856516D01*
X125176844Y-52855390D01*
X125163985Y-52837024D01*
X125116366Y-52789405D01*
X125114884Y-52788714D01*
X125096874Y-52775356D01*
X125001636Y-52727737D01*
X124997182Y-52727224D01*
X124993747Y-52724342D01*
X124968095Y-52719819D01*
X124587143Y-52719819D01*
X124568834Y-52726482D01*
X124549643Y-52729867D01*
X124545292Y-52735051D01*
X124538934Y-52737366D01*
X124529191Y-52754239D01*
X124516666Y-52769167D01*
X124514948Y-52778909D01*
X124513282Y-52781795D01*
X124513860Y-52785077D01*
X124512143Y-52794819D01*
X124512143Y-53794819D01*
X124369286Y-53794819D01*
X124369286Y-52576962D01*
X127138333Y-52576962D01*
X127138333Y-54012676D01*
G37*
D12*
X127811884Y-52206466D02*
X128573789Y-52206466D01*
X127938884Y-43062466D02*
X128700789Y-43062466D01*
X128319836Y-43443419D02*
X128319836Y-42681514D01*
X129081741Y-42443419D02*
X129700788Y-42443419D01*
X129700788Y-42443419D02*
X129367455Y-42824371D01*
X129367455Y-42824371D02*
X129510312Y-42824371D01*
X129510312Y-42824371D02*
X129605550Y-42871990D01*
X129605550Y-42871990D02*
X129653169Y-42919609D01*
X129653169Y-42919609D02*
X129700788Y-43014847D01*
X129700788Y-43014847D02*
X129700788Y-43252942D01*
X129700788Y-43252942D02*
X129653169Y-43348180D01*
X129653169Y-43348180D02*
X129605550Y-43395800D01*
X129605550Y-43395800D02*
X129510312Y-43443419D01*
X129510312Y-43443419D02*
X129224598Y-43443419D01*
X129224598Y-43443419D02*
X129129360Y-43395800D01*
X129129360Y-43395800D02*
X129081741Y-43348180D01*
X130034122Y-42776752D02*
X130272217Y-43443419D01*
X130272217Y-43443419D02*
X130510312Y-42776752D01*
%TO.C,J1*%
X145415000Y-106045000D02*
X141605000Y-106045000D01*
X141605000Y-106045000D02*
X141605000Y-97917000D01*
X141605000Y-97917000D02*
X145415000Y-97917000D01*
X145415000Y-97917000D02*
X145415000Y-106045000D01*
D13*
%TO.C,U2*%
X139392968Y-55821912D02*
X108360584Y-55821912D01*
X108360584Y-55821912D02*
X108360584Y-106809106D01*
X121280943Y-66119655D02*
X119774551Y-66119655D01*
X121280943Y-66119655D02*
X121296194Y-66208935D01*
X119774551Y-66119655D02*
X119774551Y-68870458D01*
X121280943Y-68870458D02*
X121280943Y-66119655D01*
X121280943Y-68870458D02*
X121296194Y-68943576D01*
X119774551Y-68870458D02*
X121280943Y-68870458D01*
X119774551Y-68870458D02*
X119798652Y-68943576D01*
X121296194Y-68943576D02*
X121296194Y-66208935D01*
X119798652Y-68943576D02*
X121296194Y-68943576D01*
X121280943Y-69664589D02*
X119774551Y-69664589D01*
X121280943Y-69664589D02*
X121296194Y-69733041D01*
X119774551Y-69664589D02*
X119774551Y-72186158D01*
X121280943Y-72186158D02*
X121280943Y-69664589D01*
X121280943Y-72186158D02*
X121296194Y-72239795D01*
X119774551Y-72186158D02*
X121280943Y-72186158D01*
X119774551Y-72186158D02*
X119798652Y-72239795D01*
X121296194Y-72239795D02*
X121296194Y-69733041D01*
X119798652Y-72239795D02*
X121296194Y-72239795D01*
X124617290Y-73921123D02*
X121617886Y-73921123D01*
X121617886Y-73921123D02*
X121617886Y-82764193D01*
X121008810Y-75887698D02*
X120009762Y-75887698D01*
X121008810Y-75887698D02*
X121025660Y-75919588D01*
X120009762Y-75887698D02*
X120009762Y-78112430D01*
X121008810Y-78112430D02*
X121008810Y-75887698D01*
X121008810Y-78112430D02*
X121025660Y-78131248D01*
X120009762Y-78112430D02*
X121008810Y-78112430D01*
X120009762Y-78112430D02*
X120032482Y-78131248D01*
X121025660Y-78131248D02*
X121025660Y-75919588D01*
X120032482Y-78131248D02*
X121025660Y-78131248D01*
X120981059Y-78898717D02*
X120009762Y-78898717D01*
X120981059Y-78898717D02*
X120998072Y-78912916D01*
X120009762Y-78898717D02*
X120009762Y-81132699D01*
X120981059Y-81132699D02*
X120981059Y-78898717D01*
X120981059Y-81132699D02*
X120998072Y-81133773D01*
X120009762Y-81132699D02*
X120981059Y-81132699D01*
X120009762Y-81132699D02*
X120032482Y-81133773D01*
X120998072Y-81133773D02*
X120998072Y-78912916D01*
X120032482Y-81133773D02*
X120998072Y-81133773D01*
X124617290Y-82764193D02*
X124617290Y-73921123D01*
X121617886Y-82764193D02*
X124617290Y-82764193D01*
X135545090Y-85941141D02*
X135504464Y-85928770D01*
X135707717Y-85962552D02*
X135545090Y-85941141D01*
X119476606Y-90242046D02*
X110812982Y-90242046D01*
X119297233Y-90605937D02*
X119476606Y-90242046D01*
X119297233Y-90605937D02*
X110280436Y-90605937D01*
X110280436Y-90605937D02*
X110812982Y-90242046D01*
X110280436Y-90605937D02*
X110280436Y-107760614D01*
X119476606Y-106724802D02*
X119476606Y-90242046D01*
X119476606Y-106724802D02*
X119297233Y-107760614D01*
X139392968Y-106809106D02*
X139392968Y-55821912D01*
X119462007Y-106809106D02*
X139392968Y-106809106D01*
X108360584Y-106809106D02*
X110280436Y-106809106D01*
X119297233Y-107760614D02*
X119297233Y-90605937D01*
X119297233Y-107760614D02*
X110280436Y-107760614D01*
X122356367Y-57326023D02*
G75*
G03*
X121745465Y-57374193I-299992J-93317D01*
G01*
X120216436Y-57293920D02*
G75*
G03*
X119614575Y-57404238I-288052J-125420D01*
G01*
X118074752Y-57266268D02*
G75*
G03*
X117486221Y-57419303I-274359J-153072D01*
G01*
X115937230Y-57250312D02*
G75*
G03*
X115358819Y-57438570I-264828J-169028D01*
G01*
X110969744Y-58437790D02*
G75*
G03*
X109911889Y-59067801I-473501J-408073D01*
G01*
X110958698Y-60553305D02*
G75*
G03*
X109913188Y-61199187I-462455J-420550D01*
G01*
X110947325Y-62669117D02*
G75*
G03*
X109920840Y-63346057I-451081J-432729D01*
G01*
X135805123Y-64812153D02*
G75*
G03*
X134805949Y-64081068I-563206J278594D01*
G01*
X110935629Y-64785238D02*
G75*
G03*
X109945247Y-65525015I-439385J-444600D01*
G01*
X135788873Y-68036072D02*
G75*
G03*
X134819359Y-67261751I-546956J309282D01*
G01*
X110861921Y-66850869D02*
G75*
G03*
X110011460Y-67752433I-365678J-506959D01*
G01*
X129207698Y-74670374D02*
G75*
G03*
X127438896Y-73576784I-817161J655551D01*
G01*
X135707717Y-85962555D02*
G75*
G03*
X135879636Y-84729841I3J628345D01*
G01*
X135356383Y-89068424D02*
G75*
G03*
X136035424Y-88012800I351317J520224D01*
G01*
X122361108Y-57269584D02*
G75*
G03*
X122361108Y-57269584I-316141J0D01*
G01*
X120219781Y-57269584D02*
G75*
G03*
X120219781Y-57269584I-316141J0D01*
G01*
X118078454Y-57269584D02*
G75*
G03*
X118078454Y-57269584I-316141J0D01*
G01*
X115937126Y-57269584D02*
G75*
G03*
X115937126Y-57269584I-316141J0D01*
G01*
X111041389Y-58705047D02*
G75*
G03*
X111041389Y-58705047I-629000J0D01*
G01*
X111041389Y-60846375D02*
G75*
G03*
X111041389Y-60846375I-629000J0D01*
G01*
X111041389Y-62987702D02*
G75*
G03*
X111041389Y-62987702I-629000J0D01*
G01*
X135945424Y-64428387D02*
G75*
G03*
X135945424Y-64428387I-632282J0D01*
G01*
X111041389Y-65129029D02*
G75*
G03*
X111041389Y-65129029I-629000J0D01*
G01*
X111041388Y-67270357D02*
G75*
G03*
X111041388Y-67270357I-628999J0D01*
G01*
X135945424Y-67641629D02*
G75*
G03*
X135945424Y-67641629I-632282J0D01*
G01*
X129473007Y-73969069D02*
G75*
G03*
X129473007Y-73969069I-1054182J0D01*
G01*
X136414143Y-85359393D02*
G75*
G03*
X136414143Y-85359393I-632282J0D01*
G01*
X136413534Y-88593537D02*
G75*
G03*
X136413534Y-88593537I-631673J0D01*
G01*
D14*
%TO.C,RL3*%
X116780000Y-41860000D02*
X118110000Y-41860000D01*
X116780000Y-43190000D02*
X116780000Y-41860000D01*
X116780000Y-44460000D02*
X116780000Y-52140000D01*
X116780000Y-44460000D02*
X119440000Y-44460000D01*
X116780000Y-52140000D02*
X119440000Y-52140000D01*
X119440000Y-44460000D02*
X119440000Y-52140000D01*
%TO.C,RL4*%
X109160000Y-41860000D02*
X110490000Y-41860000D01*
X109160000Y-43190000D02*
X109160000Y-41860000D01*
X109160000Y-44460000D02*
X109160000Y-52140000D01*
X109160000Y-44460000D02*
X111820000Y-44460000D01*
X109160000Y-52140000D02*
X111820000Y-52140000D01*
X111820000Y-44460000D02*
X111820000Y-52140000D01*
%TO.C,U3*%
X40180000Y-108910000D02*
X45180000Y-108910000D01*
X33170000Y-108530000D02*
X33170000Y-41090000D01*
X73510000Y-108530000D02*
X33170000Y-108530000D01*
X35180000Y-100910000D02*
X35180000Y-48910000D01*
X71180000Y-100910000D02*
X35180000Y-100910000D01*
X35180000Y-48910000D02*
X71180000Y-48910000D01*
X71180000Y-48910000D02*
X71180000Y-100910000D01*
X33170000Y-41090000D02*
X73510000Y-41090000D01*
X73510000Y-41090000D02*
X73510000Y-108530000D01*
%TO.C,RL1*%
X132020000Y-41850000D02*
X133350000Y-41850000D01*
X132020000Y-43180000D02*
X132020000Y-41850000D01*
X132020000Y-44450000D02*
X132020000Y-52130000D01*
X132020000Y-44450000D02*
X134680000Y-44450000D01*
X132020000Y-52130000D02*
X134680000Y-52130000D01*
X134680000Y-44450000D02*
X134680000Y-52130000D01*
%TO.C,RL2*%
X124400000Y-41860000D02*
X125730000Y-41860000D01*
X124400000Y-43190000D02*
X124400000Y-41860000D01*
X124400000Y-44460000D02*
X124400000Y-52140000D01*
X124400000Y-44460000D02*
X127060000Y-44460000D01*
X124400000Y-52140000D02*
X127060000Y-52140000D01*
X127060000Y-44460000D02*
X127060000Y-52140000D01*
%TD*%
M02*
