%TF.GenerationSoftware,KiCad,Pcbnew,7.0.7*%
%TF.CreationDate,2023-11-14T16:57:36+01:00*%
%TF.ProjectId,ssr25router,73737232-3572-46f7-9574-65722e6b6963,rev?*%
%TF.SameCoordinates,Original*%
%TF.FileFunction,Soldermask,Top*%
%TF.FilePolarity,Negative*%
%FSLAX46Y46*%
G04 Gerber Fmt 4.6, Leading zero omitted, Abs format (unit mm)*
G04 Created by KiCad (PCBNEW 7.0.7) date 2023-11-14 16:57:36*
%MOMM*%
%LPD*%
G01*
G04 APERTURE LIST*
%ADD10R,3.400000X3.400000*%
%ADD11O,3.400000X3.400000*%
%ADD12C,0.800000*%
%ADD13C,5.000000*%
%ADD14R,1.700000X1.700000*%
%ADD15O,1.700000X1.700000*%
%ADD16C,2.000000*%
%ADD17C,4.000000*%
%ADD18R,1.500000X1.500000*%
%ADD19C,1.500000*%
G04 APERTURE END LIST*
D10*
%TO.C,J1*%
X143510000Y-104140000D03*
D11*
X143510000Y-99949000D03*
%TD*%
D12*
%TO.C,H2*%
X146770825Y-86304175D03*
X147320000Y-84978350D03*
X147320000Y-87630000D03*
X148645825Y-84429175D03*
D13*
X148645825Y-86304175D03*
D12*
X148645825Y-88179175D03*
X149971650Y-84978350D03*
X149971650Y-87630000D03*
X150520825Y-86304175D03*
%TD*%
D14*
%TO.C,U2*%
X110490000Y-86360000D03*
D15*
X110490000Y-83820000D03*
X110490000Y-81280000D03*
X110490000Y-78740000D03*
X110490000Y-76200000D03*
X137160000Y-105410000D03*
X137160000Y-99060000D03*
%TD*%
D14*
%TO.C,RL3*%
X118110000Y-43190000D03*
D15*
X118110000Y-50810000D03*
%TD*%
D14*
%TO.C,RL4*%
X110490000Y-43190000D03*
D15*
X110490000Y-50810000D03*
%TD*%
D16*
%TO.C,U1*%
X78740000Y-53340000D03*
X78740000Y-55880000D03*
X78740000Y-58420000D03*
X78740000Y-60960000D03*
X78740000Y-63500000D03*
X78740000Y-66040000D03*
X78740000Y-68580000D03*
X78740000Y-71120000D03*
X78740000Y-73660000D03*
X78740000Y-76200000D03*
X78740000Y-78740000D03*
X78740000Y-81280000D03*
X78740000Y-83820000D03*
X78740000Y-86360000D03*
X78740000Y-88900000D03*
X78740000Y-91440000D03*
X78740000Y-93980000D03*
X78740000Y-96520000D03*
X78740000Y-99060000D03*
X78740000Y-101600000D03*
X78740000Y-104140000D03*
X78740000Y-106680000D03*
X104141864Y-106680000D03*
X104140000Y-104140000D03*
X104140000Y-101600000D03*
X104140000Y-99060000D03*
X104140000Y-96520000D03*
X104140000Y-93980000D03*
X104140000Y-91440000D03*
X104140000Y-88900000D03*
X104140000Y-86360000D03*
X104140000Y-83820000D03*
X104140000Y-81280000D03*
X104140000Y-78740000D03*
X104140000Y-76200000D03*
X104140000Y-73660000D03*
X104140000Y-71120000D03*
X104140000Y-68580000D03*
X104140000Y-66040000D03*
X104140000Y-63500000D03*
X104140000Y-60960000D03*
X104140000Y-58420000D03*
X104140000Y-55880000D03*
X104140000Y-53340000D03*
%TD*%
D17*
%TO.C,U3*%
X36290000Y-105410000D03*
X70390000Y-105410000D03*
X36290000Y-44210000D03*
X70390000Y-44210000D03*
D18*
X43180000Y-106910000D03*
D19*
X45720000Y-106910000D03*
X48260000Y-106910000D03*
X50800000Y-106910000D03*
X53340000Y-106910000D03*
X55880000Y-106910000D03*
X58420000Y-106910000D03*
X60960000Y-106910000D03*
X63500000Y-106910000D03*
X48260000Y-43390000D03*
X50800000Y-43390000D03*
X53340000Y-43390000D03*
X55880000Y-43390000D03*
X58420000Y-43390000D03*
%TD*%
D14*
%TO.C,RL1*%
X133350000Y-43180000D03*
D15*
X133350000Y-50800000D03*
%TD*%
D12*
%TO.C,H1*%
X146770825Y-41910000D03*
X147320000Y-40584175D03*
X147320000Y-43235825D03*
X148645825Y-40035000D03*
D13*
X148645825Y-41910000D03*
D12*
X148645825Y-43785000D03*
X149971650Y-40584175D03*
X149971650Y-43235825D03*
X150520825Y-41910000D03*
%TD*%
D14*
%TO.C,RL2*%
X125730000Y-43190000D03*
D15*
X125730000Y-50810000D03*
%TD*%
M02*
