%TF.GenerationSoftware,KiCad,Pcbnew,7.0.7*%
%TF.CreationDate,2023-11-14T16:57:36+01:00*%
%TF.ProjectId,ssr25router,73737232-3572-46f7-9574-65722e6b6963,rev?*%
%TF.SameCoordinates,Original*%
%TF.FileFunction,Copper,L2,Bot*%
%TF.FilePolarity,Positive*%
%FSLAX46Y46*%
G04 Gerber Fmt 4.6, Leading zero omitted, Abs format (unit mm)*
G04 Created by KiCad (PCBNEW 7.0.7) date 2023-11-14 16:57:36*
%MOMM*%
%LPD*%
G01*
G04 APERTURE LIST*
%TA.AperFunction,ComponentPad*%
%ADD10R,3.400000X3.400000*%
%TD*%
%TA.AperFunction,ComponentPad*%
%ADD11O,3.400000X3.400000*%
%TD*%
%TA.AperFunction,ComponentPad*%
%ADD12C,0.800000*%
%TD*%
%TA.AperFunction,ComponentPad*%
%ADD13C,5.000000*%
%TD*%
%TA.AperFunction,ComponentPad*%
%ADD14R,1.700000X1.700000*%
%TD*%
%TA.AperFunction,ComponentPad*%
%ADD15O,1.700000X1.700000*%
%TD*%
%TA.AperFunction,ComponentPad*%
%ADD16C,2.000000*%
%TD*%
%TA.AperFunction,ComponentPad*%
%ADD17C,4.000000*%
%TD*%
%TA.AperFunction,ComponentPad*%
%ADD18R,1.500000X1.500000*%
%TD*%
%TA.AperFunction,ComponentPad*%
%ADD19C,1.500000*%
%TD*%
%TA.AperFunction,ViaPad*%
%ADD20C,0.800000*%
%TD*%
%TA.AperFunction,Conductor*%
%ADD21C,1.000000*%
%TD*%
%TA.AperFunction,Conductor*%
%ADD22C,0.250000*%
%TD*%
G04 APERTURE END LIST*
D10*
%TO.P,J1,1,Pin_1*%
%TO.N,220V_phase*%
X143510000Y-104140000D03*
D11*
%TO.P,J1,2,Pin_2*%
%TO.N,220V_neutral*%
X143510000Y-99949000D03*
%TD*%
D12*
%TO.P,H2,1*%
%TO.N,N/C*%
X146770825Y-86304175D03*
X147320000Y-84978350D03*
X147320000Y-87630000D03*
X148645825Y-84429175D03*
D13*
X148645825Y-86304175D03*
D12*
X148645825Y-88179175D03*
X149971650Y-84978350D03*
X149971650Y-87630000D03*
X150520825Y-86304175D03*
%TD*%
D14*
%TO.P,U2,1,VCC*%
%TO.N,+3.3V*%
X110490000Y-86360000D03*
D15*
%TO.P,U2,2,RX*%
%TO.N,/TXD*%
X110490000Y-83820000D03*
%TO.P,U2,3,TX*%
%TO.N,/RXD*%
X110490000Y-81280000D03*
%TO.P,U2,4,PF*%
%TO.N,unconnected-(U2-PF-Pad4)*%
X110490000Y-78740000D03*
%TO.P,U2,5,GND*%
%TO.N,GND*%
X110490000Y-76200000D03*
%TO.P,U2,6,UL*%
%TO.N,220V_phase*%
X137160000Y-105410000D03*
%TO.P,U2,7,UN*%
%TO.N,220V_neutral*%
X137160000Y-99060000D03*
%TD*%
D14*
%TO.P,RL3,3*%
%TO.N,/Relay3*%
X118110000Y-43190000D03*
D15*
%TO.P,RL3,4*%
%TO.N,GND*%
X118110000Y-50810000D03*
%TD*%
D14*
%TO.P,RL4,3*%
%TO.N,/Relay4*%
X110490000Y-43190000D03*
D15*
%TO.P,RL4,4*%
%TO.N,GND*%
X110490000Y-50810000D03*
%TD*%
D16*
%TO.P,U1,1,3.3*%
%TO.N,+3.3V*%
X78740000Y-53340000D03*
%TO.P,U1,2,3.3*%
X78740000Y-55880000D03*
%TO.P,U1,3,RST*%
%TO.N,unconnected-(U1-RST-Pad3)*%
X78740000Y-58420000D03*
%TO.P,U1,4,4*%
%TO.N,unconnected-(U1-Pad4)*%
X78740000Y-60960000D03*
%TO.P,U1,5,5*%
%TO.N,unconnected-(U1-Pad5)*%
X78740000Y-63500000D03*
%TO.P,U1,6,6*%
%TO.N,unconnected-(U1-Pad6)*%
X78740000Y-66040000D03*
%TO.P,U1,7,7*%
%TO.N,unconnected-(U1-Pad7)*%
X78740000Y-68580000D03*
%TO.P,U1,8,15*%
%TO.N,/TFT_RST*%
X78740000Y-71120000D03*
%TO.P,U1,9,16*%
%TO.N,/TFT_DC*%
X78740000Y-73660000D03*
%TO.P,U1,10,17*%
%TO.N,/TXD*%
X78740000Y-76200000D03*
%TO.P,U1,11,18*%
%TO.N,/RXD*%
X78740000Y-78740000D03*
%TO.P,U1,12,8*%
%TO.N,unconnected-(U1-8-Pad12)*%
X78740000Y-81280000D03*
%TO.P,U1,13,3*%
%TO.N,unconnected-(U1-3-Pad13)*%
X78740000Y-83820000D03*
%TO.P,U1,14,46*%
%TO.N,unconnected-(U1-46-Pad14)*%
X78740000Y-86360000D03*
%TO.P,U1,15,9*%
%TO.N,unconnected-(U1-9-Pad15)*%
X78740000Y-88900000D03*
%TO.P,U1,16,10*%
%TO.N,/TFT_CS*%
X78740000Y-91440000D03*
%TO.P,U1,17,11*%
%TO.N,/TFT_MOSI*%
X78740000Y-93980000D03*
%TO.P,U1,18,12*%
%TO.N,/TFT_SCK*%
X78740000Y-96520000D03*
%TO.P,U1,19,13*%
%TO.N,/TFT_MISO*%
X78740000Y-99060000D03*
%TO.P,U1,20,14*%
%TO.N,/Relay4*%
X78740000Y-101600000D03*
%TO.P,U1,21,5V*%
%TO.N,unconnected-(U1-5V-Pad21)*%
X78740000Y-104140000D03*
%TO.P,U1,22,GND*%
%TO.N,GND*%
X78740000Y-106680000D03*
%TO.P,U1,23,GND*%
X104141864Y-106680000D03*
%TO.P,U1,24,GND*%
X104140000Y-104140000D03*
%TO.P,U1,25,19*%
%TO.N,/Relay3*%
X104140000Y-101600000D03*
%TO.P,U1,26,20*%
%TO.N,/Relay2*%
X104140000Y-99060000D03*
%TO.P,U1,27,21*%
%TO.N,/Relay1*%
X104140000Y-96520000D03*
%TO.P,U1,28,47*%
%TO.N,unconnected-(U1-47-Pad28)*%
X104140000Y-93980000D03*
%TO.P,U1,29,48*%
%TO.N,unconnected-(U1-48-Pad29)*%
X104140000Y-91440000D03*
%TO.P,U1,30,45*%
%TO.N,unconnected-(U1-45-Pad30)*%
X104140000Y-88900000D03*
%TO.P,U1,31,0*%
%TO.N,unconnected-(U1-0-Pad31)*%
X104140000Y-86360000D03*
%TO.P,U1,32,35*%
%TO.N,unconnected-(U1-35-Pad32)*%
X104140000Y-83820000D03*
%TO.P,U1,33,36*%
%TO.N,unconnected-(U1-36-Pad33)*%
X104140000Y-81280000D03*
%TO.P,U1,34,37*%
%TO.N,unconnected-(U1-37-Pad34)*%
X104140000Y-78740000D03*
%TO.P,U1,35,38*%
%TO.N,unconnected-(U1-38-Pad35)*%
X104140000Y-76200000D03*
%TO.P,U1,36,39*%
%TO.N,unconnected-(U1-39-Pad36)*%
X104140000Y-73660000D03*
%TO.P,U1,37,40*%
%TO.N,unconnected-(U1-40-Pad37)*%
X104140000Y-71120000D03*
%TO.P,U1,38,41*%
%TO.N,unconnected-(U1-41-Pad38)*%
X104140000Y-68580000D03*
%TO.P,U1,39,42*%
%TO.N,unconnected-(U1-42-Pad39)*%
X104140000Y-66040000D03*
%TO.P,U1,40,2*%
%TO.N,unconnected-(U1-2-Pad40)*%
X104140000Y-63500000D03*
%TO.P,U1,41,1*%
%TO.N,unconnected-(U1-1-Pad41)*%
X104140000Y-60960000D03*
%TO.P,U1,42,RX*%
%TO.N,unconnected-(U1-RX-Pad42)*%
X104140000Y-58420000D03*
%TO.P,U1,43,TX*%
%TO.N,unconnected-(U1-TX-Pad43)*%
X104140000Y-55880000D03*
%TO.P,U1,44,GND*%
%TO.N,GND*%
X104140000Y-53340000D03*
%TD*%
D17*
%TO.P,U3,*%
%TO.N,*%
X36290000Y-105410000D03*
X70390000Y-105410000D03*
X36290000Y-44210000D03*
X70390000Y-44210000D03*
D18*
%TO.P,U3,1,VCC*%
%TO.N,+3.3V*%
X43180000Y-106910000D03*
D19*
%TO.P,U3,2,GND*%
%TO.N,GND*%
X45720000Y-106910000D03*
%TO.P,U3,3,~{CS}*%
%TO.N,/TFT_CS*%
X48260000Y-106910000D03*
%TO.P,U3,4,RESET*%
%TO.N,/TFT_RST*%
X50800000Y-106910000D03*
%TO.P,U3,5,D/~{C}*%
%TO.N,/TFT_DC*%
X53340000Y-106910000D03*
%TO.P,U3,6,MOSI*%
%TO.N,/TFT_MOSI*%
X55880000Y-106910000D03*
%TO.P,U3,7,SCK*%
%TO.N,/TFT_SCK*%
X58420000Y-106910000D03*
%TO.P,U3,8,LED*%
%TO.N,+3.3V*%
X60960000Y-106910000D03*
%TO.P,U3,9,MISO*%
%TO.N,/TFT_MISO*%
X63500000Y-106910000D03*
%TO.P,U3,10,SD_CS*%
%TO.N,unconnected-(U3-SD_CS-Pad10)*%
X48260000Y-43390000D03*
%TO.P,U3,11,SD_MOSI*%
%TO.N,unconnected-(U3-SD_MOSI-Pad11)*%
X50800000Y-43390000D03*
%TO.P,U3,12,SD_MISO*%
%TO.N,unconnected-(U3-SD_MISO-Pad12)*%
X53340000Y-43390000D03*
%TO.P,U3,13,SD_SCK*%
%TO.N,unconnected-(U3-SD_SCK-Pad13)*%
X55880000Y-43390000D03*
%TO.P,U3,14,FLASH_CD*%
%TO.N,unconnected-(U3-FLASH_CD-Pad14)*%
X58420000Y-43390000D03*
%TD*%
D14*
%TO.P,RL1,3*%
%TO.N,/Relay1*%
X133350000Y-43180000D03*
D15*
%TO.P,RL1,4*%
%TO.N,GND*%
X133350000Y-50800000D03*
%TD*%
D12*
%TO.P,H1,1*%
%TO.N,N/C*%
X146770825Y-41910000D03*
X147320000Y-40584175D03*
X147320000Y-43235825D03*
X148645825Y-40035000D03*
D13*
X148645825Y-41910000D03*
D12*
X148645825Y-43785000D03*
X149971650Y-40584175D03*
X149971650Y-43235825D03*
X150520825Y-41910000D03*
%TD*%
D14*
%TO.P,RL2,3*%
%TO.N,/Relay2*%
X125730000Y-43190000D03*
D15*
%TO.P,RL2,4*%
%TO.N,GND*%
X125730000Y-50810000D03*
%TD*%
D20*
%TO.N,GND*%
X75565000Y-74676000D03*
X76200000Y-85090000D03*
X68199000Y-54864000D03*
X83058000Y-77343000D03*
X85090000Y-82550000D03*
X75692000Y-99568000D03*
X88646000Y-101981000D03*
%TO.N,/Relay3*%
X112688500Y-98552000D03*
X115316000Y-87376000D03*
%TD*%
D21*
%TO.N,220V_phase*%
X143510000Y-104140000D02*
X138430000Y-104140000D01*
X138430000Y-104140000D02*
X137160000Y-105410000D01*
%TO.N,220V_neutral*%
X138049000Y-99949000D02*
X137160000Y-99060000D01*
X143510000Y-99949000D02*
X138049000Y-99949000D01*
D22*
%TO.N,/Relay1*%
X104140000Y-96520000D02*
X106043604Y-96520000D01*
X108712000Y-93851604D02*
X108712000Y-72644000D01*
X121666000Y-42926000D02*
X123952000Y-40640000D01*
X121666000Y-59690000D02*
X121666000Y-42926000D01*
X132334000Y-40640000D02*
X133350000Y-41656000D01*
X108712000Y-72644000D02*
X121666000Y-59690000D01*
X123952000Y-40640000D02*
X132334000Y-40640000D01*
X133350000Y-41656000D02*
X133350000Y-43180000D01*
X106043604Y-96520000D02*
X108712000Y-93851604D01*
%TO.N,GND*%
X76985000Y-108435000D02*
X78740000Y-106680000D01*
X47245000Y-108435000D02*
X76985000Y-108435000D01*
X45720000Y-106910000D02*
X47245000Y-108435000D01*
%TO.N,/Relay2*%
X122682000Y-48514000D02*
X122682000Y-59944000D01*
X122682000Y-59944000D02*
X109315000Y-73311000D01*
X122682000Y-48514000D02*
X125730000Y-45466000D01*
X109315000Y-73311000D02*
X109315000Y-93885000D01*
X125730000Y-45466000D02*
X125730000Y-43190000D01*
X109315000Y-93885000D02*
X104140000Y-99060000D01*
%TO.N,/Relay3*%
X115062000Y-87630000D02*
X115316000Y-87376000D01*
X112688500Y-98552000D02*
X114300000Y-98552000D01*
X115062000Y-97790000D02*
X115062000Y-87630000D01*
X114300000Y-98552000D02*
X115062000Y-97790000D01*
%TO.N,+3.3V*%
X43180000Y-71120000D02*
X57912000Y-56388000D01*
X58420000Y-55880000D02*
X57912000Y-56388000D01*
X43180000Y-106910000D02*
X43180000Y-71120000D01*
X60960000Y-53340000D02*
X78740000Y-53340000D01*
X57912000Y-56388000D02*
X60960000Y-53340000D01*
X78740000Y-55880000D02*
X58420000Y-55880000D01*
%TO.N,/TFT_RST*%
X74422000Y-74422000D02*
X76200000Y-72644000D01*
X52554000Y-105156000D02*
X53340000Y-105156000D01*
X74422000Y-95758000D02*
X74422000Y-74422000D01*
X67310000Y-98298000D02*
X71882000Y-98298000D01*
X53340000Y-105156000D02*
X56388000Y-102108000D01*
X50800000Y-106910000D02*
X52554000Y-105156000D01*
X56388000Y-102108000D02*
X63500000Y-102108000D01*
X63500000Y-102108000D02*
X67310000Y-98298000D01*
X71882000Y-98298000D02*
X74422000Y-95758000D01*
X76200000Y-72644000D02*
X77216000Y-72644000D01*
X77216000Y-72644000D02*
X78740000Y-71120000D01*
%TO.N,/TFT_DC*%
X67564000Y-99060000D02*
X72644000Y-99060000D01*
X72644000Y-99060000D02*
X75184000Y-96520000D01*
X75184000Y-77216000D02*
X78740000Y-73660000D01*
X63754000Y-102870000D02*
X67564000Y-99060000D01*
X57380000Y-102870000D02*
X63754000Y-102870000D01*
X53340000Y-106910000D02*
X57380000Y-102870000D01*
X75184000Y-96520000D02*
X75184000Y-77216000D01*
%TO.N,/RXD*%
X114300000Y-99568000D02*
X114300000Y-101854000D01*
X90932000Y-85090000D02*
X84582000Y-78740000D01*
X84582000Y-78740000D02*
X78740000Y-78740000D01*
X107442000Y-108712000D02*
X101346000Y-108712000D01*
X116078000Y-97790000D02*
X114300000Y-99568000D01*
X116078000Y-86868000D02*
X116078000Y-97790000D01*
X101346000Y-108712000D02*
X90932000Y-98298000D01*
X90932000Y-98298000D02*
X90932000Y-85090000D01*
X110490000Y-81280000D02*
X116078000Y-86868000D01*
X114300000Y-101854000D02*
X107442000Y-108712000D01*
%TO.N,/TFT_CS*%
X57658000Y-103378000D02*
X54415000Y-106621000D01*
X48803000Y-107985000D02*
X48260000Y-107442000D01*
X54415000Y-106621000D02*
X54415000Y-107355280D01*
X78740000Y-91440000D02*
X75946000Y-94234000D01*
X48260000Y-107442000D02*
X48260000Y-106910000D01*
X54415000Y-107355280D02*
X53785280Y-107985000D01*
X72898000Y-99822000D02*
X67564000Y-99822000D01*
X53785280Y-107985000D02*
X48803000Y-107985000D01*
X75946000Y-94234000D02*
X75946000Y-96774000D01*
X75946000Y-96774000D02*
X72898000Y-99822000D01*
X64008000Y-103378000D02*
X57658000Y-103378000D01*
X67564000Y-99822000D02*
X64008000Y-103378000D01*
%TO.N,/TFT_MOSI*%
X58904000Y-103886000D02*
X64262000Y-103886000D01*
X67818000Y-100330000D02*
X73660000Y-100330000D01*
X76708000Y-94488000D02*
X77216000Y-93980000D01*
X64262000Y-103886000D02*
X67818000Y-100330000D01*
X77216000Y-93980000D02*
X78740000Y-93980000D01*
X73660000Y-100330000D02*
X76708000Y-97282000D01*
X55880000Y-106910000D02*
X58904000Y-103886000D01*
X76708000Y-97282000D02*
X76708000Y-94488000D01*
%TO.N,/TFT_SCK*%
X67818000Y-101346000D02*
X75184000Y-101346000D01*
X76708000Y-98552000D02*
X78740000Y-96520000D01*
X58420000Y-106910000D02*
X60682000Y-104648000D01*
X60682000Y-104648000D02*
X64516000Y-104648000D01*
X75184000Y-101346000D02*
X76708000Y-99822000D01*
X76708000Y-99822000D02*
X76708000Y-98552000D01*
X64516000Y-104648000D02*
X67818000Y-101346000D01*
%TO.N,/TFT_MISO*%
X63500000Y-106910000D02*
X68048000Y-102362000D01*
X68048000Y-102362000D02*
X75438000Y-102362000D01*
X75438000Y-102362000D02*
X78740000Y-99060000D01*
%TD*%
%TA.AperFunction,Conductor*%
%TO.N,GND*%
G36*
X149861737Y-38100598D02*
G01*
X149895041Y-38102467D01*
X149975603Y-38106992D01*
X150147691Y-38117401D01*
X150154297Y-38118160D01*
X150225907Y-38130327D01*
X150290343Y-38141277D01*
X150383462Y-38158340D01*
X150439227Y-38168560D01*
X150445198Y-38169963D01*
X150582032Y-38209384D01*
X150722850Y-38253265D01*
X150728092Y-38255164D01*
X150861420Y-38310391D01*
X150994609Y-38370334D01*
X150999147Y-38372605D01*
X151072221Y-38412991D01*
X151126422Y-38442947D01*
X151126439Y-38442956D01*
X151250935Y-38518217D01*
X151254739Y-38520711D01*
X151372726Y-38604427D01*
X151375072Y-38606176D01*
X151470416Y-38680874D01*
X151488332Y-38694910D01*
X151491409Y-38697486D01*
X151599430Y-38794018D01*
X151601957Y-38796408D01*
X151703590Y-38898041D01*
X151705980Y-38900568D01*
X151802512Y-39008589D01*
X151805088Y-39011666D01*
X151893811Y-39124912D01*
X151895571Y-39127272D01*
X151979287Y-39245259D01*
X151981781Y-39249063D01*
X152057043Y-39373560D01*
X152127393Y-39500851D01*
X152129668Y-39505398D01*
X152189609Y-39638581D01*
X152244831Y-39771899D01*
X152246744Y-39777183D01*
X152269633Y-39850634D01*
X152290631Y-39918021D01*
X152330032Y-40054790D01*
X152331440Y-40060781D01*
X152358722Y-40209656D01*
X152381835Y-40345683D01*
X152382599Y-40352330D01*
X152393011Y-40524466D01*
X152399402Y-40638265D01*
X152399500Y-40641743D01*
X152399500Y-91316000D01*
X152379815Y-91383039D01*
X152327011Y-91428794D01*
X152275500Y-91440000D01*
X133350000Y-91440000D01*
X133350000Y-109095500D01*
X133330315Y-109162539D01*
X133277511Y-109208294D01*
X133226000Y-109219500D01*
X107677984Y-109219500D01*
X107610945Y-109199815D01*
X107565190Y-109147011D01*
X107555246Y-109077853D01*
X107584271Y-109014297D01*
X107606846Y-108993935D01*
X107607301Y-108993615D01*
X107614847Y-108988331D01*
X107619392Y-108985437D01*
X107654455Y-108965194D01*
X107654459Y-108965190D01*
X107680476Y-108934182D01*
X107684122Y-108930202D01*
X114518204Y-102096120D01*
X114522166Y-102092489D01*
X114553194Y-102066455D01*
X114573438Y-102031390D01*
X114576335Y-102026841D01*
X114599554Y-101993684D01*
X114599554Y-101993681D01*
X114601819Y-101988824D01*
X114608747Y-101972099D01*
X114610584Y-101967050D01*
X114610588Y-101967045D01*
X114617619Y-101927162D01*
X114618777Y-101921940D01*
X114629264Y-101882807D01*
X114625733Y-101842453D01*
X114625500Y-101837097D01*
X114625500Y-99754186D01*
X114645185Y-99687147D01*
X114661814Y-99666511D01*
X116296204Y-98032120D01*
X116300166Y-98028489D01*
X116331194Y-98002455D01*
X116351438Y-97967390D01*
X116354335Y-97962841D01*
X116377554Y-97929684D01*
X116377554Y-97929681D01*
X116379819Y-97924824D01*
X116386747Y-97908099D01*
X116388584Y-97903050D01*
X116388588Y-97903045D01*
X116395619Y-97863162D01*
X116396777Y-97857940D01*
X116407264Y-97818807D01*
X116403735Y-97778478D01*
X116403500Y-97773075D01*
X116403500Y-86884909D01*
X116403736Y-86879502D01*
X116407263Y-86839191D01*
X116396786Y-86800092D01*
X116395617Y-86794824D01*
X116388588Y-86754955D01*
X116388587Y-86754954D01*
X116388587Y-86754951D01*
X116386765Y-86749947D01*
X116379815Y-86733168D01*
X116377554Y-86728319D01*
X116377553Y-86728318D01*
X116377553Y-86728316D01*
X116354333Y-86695154D01*
X116351435Y-86690604D01*
X116347845Y-86684387D01*
X116331194Y-86655545D01*
X116331191Y-86655542D01*
X116331190Y-86655541D01*
X116301077Y-86630274D01*
X116300182Y-86629522D01*
X116296210Y-86625883D01*
X115974502Y-86304175D01*
X145940389Y-86304175D01*
X145960114Y-86630274D01*
X146019003Y-86951627D01*
X146116191Y-87263517D01*
X146116195Y-87263529D01*
X146116198Y-87263536D01*
X146250280Y-87561454D01*
X146358446Y-87740382D01*
X146419298Y-87841043D01*
X146620779Y-88098214D01*
X146851785Y-88329220D01*
X147108956Y-88530701D01*
X147108959Y-88530703D01*
X147108962Y-88530705D01*
X147388546Y-88699720D01*
X147686464Y-88833802D01*
X147686477Y-88833806D01*
X147686482Y-88833808D01*
X147998371Y-88930995D01*
X147998372Y-88930996D01*
X148319721Y-88989885D01*
X148645825Y-89009611D01*
X148971929Y-88989885D01*
X149293278Y-88930996D01*
X149605186Y-88833802D01*
X149903104Y-88699720D01*
X150182688Y-88530705D01*
X150439861Y-88329223D01*
X150670873Y-88098211D01*
X150872355Y-87841038D01*
X151041370Y-87561454D01*
X151175452Y-87263536D01*
X151185980Y-87229752D01*
X151234775Y-87073160D01*
X151272646Y-86951628D01*
X151331535Y-86630279D01*
X151351261Y-86304175D01*
X151331535Y-85978071D01*
X151272646Y-85656722D01*
X151272646Y-85656721D01*
X151175458Y-85344832D01*
X151175456Y-85344827D01*
X151175452Y-85344814D01*
X151041370Y-85046896D01*
X150872355Y-84767312D01*
X150872353Y-84767309D01*
X150872351Y-84767306D01*
X150670870Y-84510135D01*
X150439864Y-84279129D01*
X150182693Y-84077648D01*
X150122958Y-84041537D01*
X149903104Y-83908630D01*
X149605186Y-83774548D01*
X149605179Y-83774545D01*
X149605167Y-83774541D01*
X149293277Y-83677353D01*
X148971924Y-83618464D01*
X148671846Y-83600313D01*
X148645825Y-83598739D01*
X148645824Y-83598739D01*
X148319725Y-83618464D01*
X147998372Y-83677353D01*
X147686482Y-83774541D01*
X147686466Y-83774547D01*
X147686464Y-83774548D01*
X147585476Y-83819999D01*
X147388550Y-83908628D01*
X147388548Y-83908629D01*
X147108956Y-84077648D01*
X146851785Y-84279129D01*
X146620779Y-84510135D01*
X146419298Y-84767306D01*
X146308667Y-84950313D01*
X146250280Y-85046896D01*
X146126857Y-85321132D01*
X146116197Y-85344817D01*
X146116191Y-85344832D01*
X146019003Y-85656722D01*
X145960114Y-85978075D01*
X145940389Y-86304175D01*
X115974502Y-86304175D01*
X111491320Y-81820994D01*
X111457836Y-81759672D01*
X111462820Y-81689980D01*
X111464446Y-81685850D01*
X111465227Y-81683962D01*
X111465232Y-81683954D01*
X111525300Y-81485934D01*
X111545583Y-81280000D01*
X111525300Y-81074066D01*
X111465232Y-80876046D01*
X111367685Y-80693550D01*
X111315702Y-80630209D01*
X111236410Y-80533589D01*
X111076452Y-80402317D01*
X111076453Y-80402317D01*
X111076450Y-80402315D01*
X110893954Y-80304768D01*
X110695934Y-80244700D01*
X110695932Y-80244699D01*
X110695934Y-80244699D01*
X110490000Y-80224417D01*
X110284067Y-80244699D01*
X110086043Y-80304769D01*
X109990167Y-80356017D01*
X109903550Y-80402315D01*
X109903548Y-80402316D01*
X109903547Y-80402317D01*
X109843162Y-80451872D01*
X109778851Y-80479184D01*
X109709984Y-80467391D01*
X109658425Y-80420238D01*
X109640499Y-80356020D01*
X109640500Y-79663978D01*
X109660184Y-79596943D01*
X109712988Y-79551188D01*
X109782146Y-79541244D01*
X109843163Y-79568128D01*
X109903546Y-79617682D01*
X109903550Y-79617685D01*
X110086046Y-79715232D01*
X110284066Y-79775300D01*
X110284065Y-79775300D01*
X110302529Y-79777118D01*
X110490000Y-79795583D01*
X110695934Y-79775300D01*
X110893954Y-79715232D01*
X111076450Y-79617685D01*
X111236410Y-79486410D01*
X111367685Y-79326450D01*
X111465232Y-79143954D01*
X111525300Y-78945934D01*
X111545583Y-78740000D01*
X111525300Y-78534066D01*
X111465232Y-78336046D01*
X111367685Y-78153550D01*
X111315702Y-78090209D01*
X111236410Y-77993589D01*
X111076452Y-77862317D01*
X111076453Y-77862317D01*
X111076450Y-77862315D01*
X110893954Y-77764768D01*
X110827447Y-77744593D01*
X110769009Y-77706296D01*
X110740553Y-77642484D01*
X110751113Y-77573417D01*
X110797337Y-77521023D01*
X110831350Y-77506158D01*
X110953483Y-77473433D01*
X110953492Y-77473429D01*
X111167578Y-77373600D01*
X111361082Y-77238105D01*
X111528105Y-77071082D01*
X111663600Y-76877578D01*
X111763429Y-76663492D01*
X111763432Y-76663486D01*
X111820636Y-76450000D01*
X111103347Y-76450000D01*
X111036308Y-76430315D01*
X110990553Y-76377511D01*
X110980609Y-76308353D01*
X110984369Y-76291067D01*
X110990000Y-76271888D01*
X110990000Y-76128111D01*
X110984369Y-76108933D01*
X110984370Y-76039064D01*
X111022145Y-75980286D01*
X111085701Y-75951262D01*
X111103347Y-75950000D01*
X111820636Y-75950000D01*
X111820635Y-75949999D01*
X111763432Y-75736513D01*
X111763429Y-75736507D01*
X111663600Y-75522422D01*
X111663599Y-75522420D01*
X111528113Y-75328926D01*
X111528108Y-75328920D01*
X111361082Y-75161894D01*
X111167578Y-75026399D01*
X110953492Y-74926570D01*
X110953486Y-74926567D01*
X110739999Y-74869364D01*
X110739999Y-75587698D01*
X110720314Y-75654737D01*
X110667510Y-75700492D01*
X110598353Y-75710436D01*
X110525764Y-75700000D01*
X110525763Y-75700000D01*
X110454237Y-75700000D01*
X110454233Y-75700000D01*
X110381645Y-75710436D01*
X110312487Y-75700492D01*
X110259684Y-75654736D01*
X110240000Y-75587698D01*
X110240000Y-74869364D01*
X110239999Y-74869364D01*
X110026513Y-74926567D01*
X110026502Y-74926571D01*
X109816903Y-75024309D01*
X109747826Y-75034801D01*
X109684042Y-75006281D01*
X109645803Y-74947804D01*
X109640500Y-74911933D01*
X109640499Y-73497187D01*
X109660185Y-73430147D01*
X109676814Y-73409511D01*
X122900204Y-60186120D01*
X122904166Y-60182489D01*
X122935194Y-60156455D01*
X122955438Y-60121390D01*
X122958335Y-60116841D01*
X122981554Y-60083684D01*
X122981554Y-60083681D01*
X122983819Y-60078824D01*
X122990747Y-60062099D01*
X122992584Y-60057050D01*
X122992588Y-60057045D01*
X122999619Y-60017162D01*
X123000777Y-60011940D01*
X123011264Y-59972807D01*
X123007735Y-59932478D01*
X123007500Y-59927075D01*
X123007500Y-51060000D01*
X124399364Y-51060000D01*
X124456567Y-51273486D01*
X124456570Y-51273492D01*
X124556399Y-51487578D01*
X124691894Y-51681082D01*
X124858917Y-51848105D01*
X125052421Y-51983600D01*
X125266507Y-52083429D01*
X125266516Y-52083433D01*
X125480000Y-52140634D01*
X125480000Y-51422301D01*
X125499685Y-51355262D01*
X125552489Y-51309507D01*
X125621647Y-51299563D01*
X125694237Y-51310000D01*
X125694238Y-51310000D01*
X125765762Y-51310000D01*
X125765763Y-51310000D01*
X125838353Y-51299563D01*
X125907512Y-51309507D01*
X125960315Y-51355262D01*
X125980000Y-51422301D01*
X125979999Y-52140634D01*
X126193483Y-52083433D01*
X126193492Y-52083429D01*
X126407578Y-51983600D01*
X126601082Y-51848105D01*
X126768105Y-51681082D01*
X126903600Y-51487578D01*
X127003429Y-51273492D01*
X127003432Y-51273486D01*
X127060636Y-51060000D01*
X126343347Y-51060000D01*
X126309291Y-51050000D01*
X132019364Y-51050000D01*
X132076567Y-51263486D01*
X132076570Y-51263492D01*
X132176399Y-51477578D01*
X132311894Y-51671082D01*
X132478917Y-51838105D01*
X132672421Y-51973600D01*
X132886507Y-52073429D01*
X132886516Y-52073433D01*
X133100000Y-52130634D01*
X133100000Y-51412301D01*
X133119685Y-51345262D01*
X133172489Y-51299507D01*
X133241647Y-51289563D01*
X133314237Y-51300000D01*
X133314238Y-51300000D01*
X133385762Y-51300000D01*
X133385763Y-51300000D01*
X133458353Y-51289563D01*
X133527512Y-51299507D01*
X133580315Y-51345262D01*
X133600000Y-51412301D01*
X133600000Y-52130633D01*
X133813483Y-52073433D01*
X133813492Y-52073429D01*
X134027578Y-51973600D01*
X134221082Y-51838105D01*
X134388105Y-51671082D01*
X134523600Y-51477578D01*
X134623429Y-51263492D01*
X134623432Y-51263486D01*
X134680636Y-51050000D01*
X133963347Y-51050000D01*
X133896308Y-51030315D01*
X133850553Y-50977511D01*
X133840609Y-50908353D01*
X133844369Y-50891067D01*
X133850000Y-50871888D01*
X133850000Y-50728111D01*
X133844369Y-50708933D01*
X133844370Y-50639064D01*
X133882145Y-50580286D01*
X133945701Y-50551262D01*
X133963347Y-50550000D01*
X134680636Y-50550000D01*
X134680635Y-50549999D01*
X134623432Y-50336513D01*
X134623429Y-50336507D01*
X134523600Y-50122422D01*
X134523599Y-50122420D01*
X134388113Y-49928926D01*
X134388108Y-49928920D01*
X134221082Y-49761894D01*
X134027578Y-49626399D01*
X133813492Y-49526570D01*
X133813486Y-49526567D01*
X133600000Y-49469364D01*
X133600000Y-50187698D01*
X133580315Y-50254737D01*
X133527511Y-50300492D01*
X133458355Y-50310436D01*
X133385766Y-50300000D01*
X133385763Y-50300000D01*
X133314237Y-50300000D01*
X133314233Y-50300000D01*
X133241645Y-50310436D01*
X133172487Y-50300492D01*
X133119684Y-50254736D01*
X133100000Y-50187698D01*
X133100000Y-49469364D01*
X133099999Y-49469364D01*
X132886513Y-49526567D01*
X132886507Y-49526570D01*
X132672422Y-49626399D01*
X132672420Y-49626400D01*
X132478926Y-49761886D01*
X132478920Y-49761891D01*
X132311891Y-49928920D01*
X132311886Y-49928926D01*
X132176400Y-50122420D01*
X132176399Y-50122422D01*
X132076570Y-50336507D01*
X132076567Y-50336513D01*
X132019364Y-50549999D01*
X132019364Y-50550000D01*
X132736653Y-50550000D01*
X132803692Y-50569685D01*
X132849447Y-50622489D01*
X132859391Y-50691647D01*
X132855631Y-50708933D01*
X132850000Y-50728111D01*
X132850000Y-50871888D01*
X132855631Y-50891067D01*
X132855630Y-50960936D01*
X132817855Y-51019714D01*
X132754299Y-51048738D01*
X132736653Y-51050000D01*
X132019364Y-51050000D01*
X126309291Y-51050000D01*
X126276308Y-51040315D01*
X126230553Y-50987511D01*
X126220609Y-50918353D01*
X126224369Y-50901067D01*
X126230000Y-50881888D01*
X126230000Y-50738111D01*
X126224369Y-50718933D01*
X126224370Y-50649064D01*
X126262145Y-50590286D01*
X126325701Y-50561262D01*
X126343347Y-50560000D01*
X127060636Y-50560000D01*
X127060635Y-50559999D01*
X127003432Y-50346513D01*
X127003429Y-50346507D01*
X126903600Y-50132422D01*
X126903599Y-50132420D01*
X126768113Y-49938926D01*
X126768108Y-49938920D01*
X126601082Y-49771894D01*
X126407578Y-49636399D01*
X126193492Y-49536570D01*
X126193486Y-49536567D01*
X125980000Y-49479364D01*
X125979999Y-49479364D01*
X125980000Y-50197698D01*
X125960315Y-50264737D01*
X125907511Y-50310492D01*
X125838355Y-50320436D01*
X125765766Y-50310000D01*
X125765763Y-50310000D01*
X125694237Y-50310000D01*
X125694233Y-50310000D01*
X125621645Y-50320436D01*
X125552487Y-50310492D01*
X125499684Y-50264736D01*
X125480000Y-50197698D01*
X125480000Y-49479364D01*
X125479999Y-49479364D01*
X125266513Y-49536567D01*
X125266507Y-49536570D01*
X125052422Y-49636399D01*
X125052420Y-49636400D01*
X124858926Y-49771886D01*
X124858920Y-49771891D01*
X124691891Y-49938920D01*
X124691886Y-49938926D01*
X124556400Y-50132420D01*
X124556399Y-50132422D01*
X124456570Y-50346507D01*
X124456567Y-50346513D01*
X124399364Y-50559999D01*
X124399364Y-50560000D01*
X125116653Y-50560000D01*
X125183692Y-50579685D01*
X125229447Y-50632489D01*
X125239391Y-50701647D01*
X125235631Y-50718933D01*
X125230000Y-50738111D01*
X125230000Y-50881888D01*
X125235631Y-50901067D01*
X125235630Y-50970936D01*
X125197855Y-51029714D01*
X125134299Y-51058738D01*
X125116653Y-51060000D01*
X124399364Y-51060000D01*
X123007500Y-51060000D01*
X123007500Y-48700187D01*
X123027185Y-48633148D01*
X123043819Y-48612506D01*
X123384455Y-48271870D01*
X125948204Y-45708120D01*
X125952166Y-45704489D01*
X125983194Y-45678455D01*
X126003438Y-45643390D01*
X126006335Y-45638841D01*
X126029554Y-45605684D01*
X126029554Y-45605681D01*
X126031819Y-45600824D01*
X126038747Y-45584099D01*
X126040584Y-45579050D01*
X126040588Y-45579045D01*
X126047619Y-45539162D01*
X126048777Y-45533940D01*
X126059264Y-45494807D01*
X126055733Y-45454456D01*
X126055500Y-45449101D01*
X126055500Y-44364500D01*
X126075185Y-44297460D01*
X126127989Y-44251706D01*
X126179500Y-44240500D01*
X126599750Y-44240500D01*
X126599751Y-44240499D01*
X126614568Y-44237552D01*
X126658229Y-44228868D01*
X126658229Y-44228867D01*
X126658231Y-44228867D01*
X126724552Y-44184552D01*
X126768867Y-44118231D01*
X126768867Y-44118229D01*
X126768868Y-44118229D01*
X126780499Y-44059752D01*
X126780500Y-44059750D01*
X126780500Y-42320249D01*
X126780499Y-42320247D01*
X126768868Y-42261770D01*
X126768867Y-42261769D01*
X126724552Y-42195447D01*
X126658230Y-42151132D01*
X126658229Y-42151131D01*
X126599752Y-42139500D01*
X126599748Y-42139500D01*
X124860252Y-42139500D01*
X124860247Y-42139500D01*
X124801770Y-42151131D01*
X124801769Y-42151132D01*
X124735447Y-42195447D01*
X124691132Y-42261769D01*
X124691131Y-42261770D01*
X124679500Y-42320247D01*
X124679500Y-44059752D01*
X124691131Y-44118229D01*
X124691132Y-44118230D01*
X124735447Y-44184552D01*
X124801769Y-44228867D01*
X124801770Y-44228868D01*
X124860247Y-44240499D01*
X124860250Y-44240500D01*
X124860252Y-44240500D01*
X125280500Y-44240500D01*
X125347539Y-44260185D01*
X125393294Y-44312989D01*
X125404500Y-44364500D01*
X125404500Y-45279811D01*
X125384815Y-45346850D01*
X125368181Y-45367492D01*
X122463803Y-48271870D01*
X122459814Y-48275525D01*
X122428805Y-48301545D01*
X122408562Y-48336606D01*
X122405656Y-48341166D01*
X122382446Y-48374313D01*
X122380206Y-48379117D01*
X122373229Y-48395961D01*
X122371410Y-48400959D01*
X122364383Y-48440811D01*
X122363212Y-48446091D01*
X122352735Y-48485191D01*
X122352735Y-48485194D01*
X122356263Y-48525515D01*
X122356499Y-48530920D01*
X122356500Y-59757811D01*
X122336815Y-59824850D01*
X122320181Y-59845492D01*
X122115251Y-60050422D01*
X122053928Y-60083907D01*
X121984236Y-60078923D01*
X121928303Y-60037051D01*
X121903886Y-59971587D01*
X121918738Y-59903314D01*
X121920152Y-59900794D01*
X121939441Y-59867384D01*
X121942333Y-59862845D01*
X121965553Y-59829684D01*
X121965555Y-59829676D01*
X121967816Y-59824828D01*
X121974754Y-59808079D01*
X121976584Y-59803051D01*
X121976588Y-59803045D01*
X121983617Y-59763174D01*
X121984785Y-59757907D01*
X121995263Y-59718807D01*
X121991734Y-59678488D01*
X121991499Y-59673083D01*
X121991499Y-51412301D01*
X121991499Y-43112184D01*
X122011184Y-43045149D01*
X122027813Y-43024512D01*
X124050507Y-41001819D01*
X124111831Y-40968334D01*
X124138189Y-40965500D01*
X132147812Y-40965500D01*
X132214851Y-40985185D01*
X132235493Y-41001819D01*
X132988181Y-41754507D01*
X133021666Y-41815830D01*
X133024500Y-41842188D01*
X133024500Y-42005500D01*
X133004815Y-42072539D01*
X132952011Y-42118294D01*
X132900500Y-42129500D01*
X132480247Y-42129500D01*
X132421770Y-42141131D01*
X132421769Y-42141132D01*
X132355447Y-42185447D01*
X132311132Y-42251769D01*
X132311131Y-42251770D01*
X132299500Y-42310247D01*
X132299500Y-44049752D01*
X132311131Y-44108229D01*
X132311132Y-44108230D01*
X132355447Y-44174552D01*
X132421769Y-44218867D01*
X132421770Y-44218868D01*
X132480247Y-44230499D01*
X132480250Y-44230500D01*
X132480252Y-44230500D01*
X134219750Y-44230500D01*
X134219751Y-44230499D01*
X134234568Y-44227552D01*
X134278229Y-44218868D01*
X134278229Y-44218867D01*
X134278231Y-44218867D01*
X134344552Y-44174552D01*
X134388867Y-44108231D01*
X134388867Y-44108229D01*
X134388868Y-44108229D01*
X134400499Y-44049752D01*
X134400500Y-44049750D01*
X134400500Y-42310249D01*
X134400499Y-42310247D01*
X134388868Y-42251770D01*
X134388867Y-42251769D01*
X134344552Y-42185447D01*
X134278230Y-42141132D01*
X134278229Y-42141131D01*
X134219752Y-42129500D01*
X134219748Y-42129500D01*
X133799500Y-42129500D01*
X133732461Y-42109815D01*
X133686706Y-42057011D01*
X133675500Y-42005500D01*
X133675500Y-41909999D01*
X145940389Y-41909999D01*
X145960114Y-42236099D01*
X146019003Y-42557452D01*
X146116191Y-42869342D01*
X146116195Y-42869354D01*
X146116198Y-42869361D01*
X146250280Y-43167279D01*
X146384920Y-43390000D01*
X146419298Y-43446868D01*
X146620779Y-43704039D01*
X146851785Y-43935045D01*
X147108956Y-44136526D01*
X147108959Y-44136528D01*
X147108962Y-44136530D01*
X147388546Y-44305545D01*
X147686464Y-44439627D01*
X147686477Y-44439631D01*
X147686482Y-44439633D01*
X147998371Y-44536820D01*
X147998372Y-44536821D01*
X148319721Y-44595710D01*
X148645825Y-44615436D01*
X148971929Y-44595710D01*
X149293278Y-44536821D01*
X149605186Y-44439627D01*
X149903104Y-44305545D01*
X150182688Y-44136530D01*
X150439861Y-43935048D01*
X150670873Y-43704036D01*
X150872355Y-43446863D01*
X151041370Y-43167279D01*
X151175452Y-42869361D01*
X151178564Y-42859376D01*
X151233253Y-42683870D01*
X151272646Y-42557453D01*
X151331535Y-42236104D01*
X151351261Y-41910000D01*
X151331535Y-41583896D01*
X151272646Y-41262547D01*
X151272645Y-41262547D01*
X151175458Y-40950657D01*
X151175456Y-40950652D01*
X151175452Y-40950639D01*
X151041370Y-40652721D01*
X150872355Y-40373137D01*
X150872353Y-40373134D01*
X150872351Y-40373131D01*
X150670870Y-40115960D01*
X150439864Y-39884954D01*
X150182693Y-39683473D01*
X150154221Y-39666261D01*
X149903104Y-39514455D01*
X149605186Y-39380373D01*
X149605179Y-39380370D01*
X149605167Y-39380366D01*
X149293277Y-39283178D01*
X148971924Y-39224289D01*
X148645825Y-39204564D01*
X148319725Y-39224289D01*
X147998372Y-39283178D01*
X147686482Y-39380366D01*
X147686466Y-39380372D01*
X147686464Y-39380373D01*
X147496758Y-39465752D01*
X147388550Y-39514453D01*
X147388548Y-39514454D01*
X147108956Y-39683473D01*
X146851785Y-39884954D01*
X146620779Y-40115960D01*
X146419298Y-40373131D01*
X146389875Y-40421803D01*
X146256917Y-40641743D01*
X146250279Y-40652723D01*
X146250278Y-40652725D01*
X146116197Y-40950642D01*
X146116191Y-40950657D01*
X146019003Y-41262547D01*
X145960114Y-41583900D01*
X145940389Y-41909999D01*
X133675500Y-41909999D01*
X133675500Y-41672920D01*
X133675736Y-41667513D01*
X133679264Y-41627193D01*
X133668782Y-41588076D01*
X133667616Y-41582818D01*
X133660588Y-41542955D01*
X133660586Y-41542952D01*
X133660586Y-41542950D01*
X133658760Y-41537933D01*
X133651820Y-41521176D01*
X133649554Y-41516319D01*
X133649554Y-41516316D01*
X133626339Y-41483162D01*
X133623433Y-41478599D01*
X133603196Y-41443548D01*
X133603195Y-41443547D01*
X133603194Y-41443545D01*
X133572177Y-41417518D01*
X133568193Y-41413867D01*
X133104965Y-40950639D01*
X132576119Y-40421793D01*
X132572474Y-40417814D01*
X132546456Y-40386807D01*
X132546455Y-40386806D01*
X132535058Y-40380226D01*
X132511392Y-40366561D01*
X132506831Y-40363655D01*
X132481163Y-40345683D01*
X132473684Y-40340446D01*
X132473681Y-40340445D01*
X132468861Y-40338197D01*
X132452055Y-40331235D01*
X132447043Y-40329411D01*
X132407190Y-40322383D01*
X132401910Y-40321212D01*
X132362808Y-40310735D01*
X132327892Y-40313790D01*
X132322481Y-40314264D01*
X132317078Y-40314500D01*
X123968913Y-40314500D01*
X123963511Y-40314264D01*
X123956126Y-40313618D01*
X123923192Y-40310736D01*
X123923191Y-40310736D01*
X123884099Y-40321211D01*
X123878819Y-40322382D01*
X123838954Y-40329412D01*
X123833962Y-40331229D01*
X123817117Y-40338206D01*
X123812313Y-40340446D01*
X123779163Y-40363658D01*
X123774602Y-40366564D01*
X123739548Y-40386804D01*
X123739545Y-40386806D01*
X123739543Y-40386807D01*
X123739542Y-40386809D01*
X123713523Y-40417815D01*
X123709869Y-40421803D01*
X121447803Y-42683870D01*
X121443814Y-42687525D01*
X121412805Y-42713545D01*
X121392562Y-42748606D01*
X121389656Y-42753166D01*
X121366446Y-42786313D01*
X121364206Y-42791117D01*
X121357229Y-42807961D01*
X121355410Y-42812959D01*
X121348383Y-42852811D01*
X121347212Y-42858091D01*
X121336735Y-42897191D01*
X121336735Y-42897194D01*
X121340263Y-42937515D01*
X121340499Y-42942920D01*
X121340500Y-59503810D01*
X121320815Y-59570849D01*
X121304181Y-59591491D01*
X108493803Y-72401870D01*
X108489814Y-72405525D01*
X108458805Y-72431545D01*
X108438562Y-72466606D01*
X108435656Y-72471166D01*
X108412446Y-72504313D01*
X108410206Y-72509117D01*
X108403229Y-72525961D01*
X108401410Y-72530959D01*
X108394383Y-72570811D01*
X108393212Y-72576091D01*
X108382735Y-72615191D01*
X108382735Y-72615194D01*
X108386263Y-72655515D01*
X108386499Y-72660920D01*
X108386499Y-93665416D01*
X108366814Y-93732455D01*
X108350180Y-93753097D01*
X105945097Y-96158181D01*
X105883774Y-96191666D01*
X105857416Y-96194500D01*
X105389175Y-96194500D01*
X105322136Y-96174815D01*
X105276381Y-96122011D01*
X105269909Y-96104435D01*
X105264231Y-96084480D01*
X105264229Y-96084472D01*
X105222229Y-96000125D01*
X105165063Y-95885320D01*
X105165056Y-95885308D01*
X105030979Y-95707761D01*
X104866562Y-95557876D01*
X104866560Y-95557874D01*
X104677404Y-95440754D01*
X104677395Y-95440750D01*
X104583956Y-95404552D01*
X104483475Y-95365625D01*
X104428075Y-95323054D01*
X104404484Y-95257288D01*
X104420195Y-95189207D01*
X104470219Y-95140428D01*
X104483466Y-95134377D01*
X104677401Y-95059247D01*
X104866562Y-94942124D01*
X105030981Y-94792236D01*
X105165058Y-94614689D01*
X105168813Y-94607149D01*
X105264224Y-94415538D01*
X105264223Y-94415538D01*
X105264229Y-94415528D01*
X105325115Y-94201536D01*
X105345643Y-93980000D01*
X105345162Y-93974814D01*
X105325115Y-93758464D01*
X105325114Y-93758462D01*
X105317714Y-93732455D01*
X105264229Y-93544472D01*
X105248485Y-93512853D01*
X105165061Y-93345316D01*
X105165056Y-93345308D01*
X105030979Y-93167761D01*
X104866562Y-93017876D01*
X104866560Y-93017874D01*
X104677404Y-92900754D01*
X104677395Y-92900750D01*
X104583956Y-92864552D01*
X104483475Y-92825625D01*
X104428075Y-92783054D01*
X104404484Y-92717288D01*
X104420195Y-92649207D01*
X104470219Y-92600428D01*
X104483466Y-92594377D01*
X104677401Y-92519247D01*
X104866562Y-92402124D01*
X105030981Y-92252236D01*
X105165058Y-92074689D01*
X105264229Y-91875528D01*
X105325115Y-91661536D01*
X105345643Y-91440000D01*
X105325115Y-91218464D01*
X105264229Y-91004472D01*
X105264224Y-91004461D01*
X105165061Y-90805316D01*
X105165056Y-90805308D01*
X105030979Y-90627761D01*
X104866562Y-90477876D01*
X104866560Y-90477874D01*
X104677404Y-90360754D01*
X104677395Y-90360750D01*
X104583956Y-90324552D01*
X104483475Y-90285625D01*
X104428075Y-90243054D01*
X104404484Y-90177288D01*
X104420195Y-90109207D01*
X104470219Y-90060428D01*
X104483466Y-90054377D01*
X104677401Y-89979247D01*
X104866562Y-89862124D01*
X105030981Y-89712236D01*
X105165058Y-89534689D01*
X105264229Y-89335528D01*
X105325115Y-89121536D01*
X105345643Y-88900000D01*
X105325115Y-88678464D01*
X105264229Y-88464472D01*
X105196883Y-88329223D01*
X105165061Y-88265316D01*
X105165056Y-88265308D01*
X105030979Y-88087761D01*
X104866562Y-87937876D01*
X104866560Y-87937874D01*
X104677404Y-87820754D01*
X104677395Y-87820750D01*
X104583956Y-87784552D01*
X104483475Y-87745625D01*
X104428075Y-87703054D01*
X104404484Y-87637288D01*
X104420195Y-87569207D01*
X104470219Y-87520428D01*
X104483466Y-87514377D01*
X104677401Y-87439247D01*
X104866562Y-87322124D01*
X105030981Y-87172236D01*
X105165058Y-86994689D01*
X105264229Y-86795528D01*
X105325115Y-86581536D01*
X105345643Y-86360000D01*
X105325115Y-86138464D01*
X105264229Y-85924472D01*
X105264224Y-85924461D01*
X105165061Y-85725316D01*
X105165056Y-85725308D01*
X105030979Y-85547761D01*
X104866562Y-85397876D01*
X104866560Y-85397874D01*
X104677404Y-85280754D01*
X104677395Y-85280750D01*
X104564490Y-85237011D01*
X104483475Y-85205625D01*
X104428075Y-85163054D01*
X104404484Y-85097288D01*
X104420195Y-85029207D01*
X104470219Y-84980428D01*
X104483466Y-84974377D01*
X104677401Y-84899247D01*
X104866562Y-84782124D01*
X105030981Y-84632236D01*
X105165058Y-84454689D01*
X105264229Y-84255528D01*
X105325115Y-84041536D01*
X105345643Y-83820000D01*
X105325115Y-83598464D01*
X105264229Y-83384472D01*
X105264224Y-83384461D01*
X105165061Y-83185316D01*
X105165056Y-83185308D01*
X105030979Y-83007761D01*
X104866562Y-82857876D01*
X104866560Y-82857874D01*
X104677404Y-82740754D01*
X104677395Y-82740750D01*
X104583956Y-82704552D01*
X104483475Y-82665625D01*
X104428075Y-82623054D01*
X104404484Y-82557288D01*
X104420195Y-82489207D01*
X104470219Y-82440428D01*
X104483466Y-82434377D01*
X104677401Y-82359247D01*
X104866562Y-82242124D01*
X105030981Y-82092236D01*
X105165058Y-81914689D01*
X105264229Y-81715528D01*
X105325115Y-81501536D01*
X105345643Y-81280000D01*
X105325115Y-81058464D01*
X105264229Y-80844472D01*
X105264224Y-80844461D01*
X105165061Y-80645316D01*
X105165056Y-80645308D01*
X105030979Y-80467761D01*
X104866562Y-80317876D01*
X104866560Y-80317874D01*
X104677404Y-80200754D01*
X104677395Y-80200750D01*
X104583956Y-80164552D01*
X104483475Y-80125625D01*
X104428075Y-80083054D01*
X104404484Y-80017288D01*
X104420195Y-79949207D01*
X104470219Y-79900428D01*
X104483466Y-79894377D01*
X104677401Y-79819247D01*
X104866562Y-79702124D01*
X105030981Y-79552236D01*
X105165058Y-79374689D01*
X105264229Y-79175528D01*
X105325115Y-78961536D01*
X105345643Y-78740000D01*
X105325115Y-78518464D01*
X105264229Y-78304472D01*
X105264224Y-78304461D01*
X105165061Y-78105316D01*
X105165056Y-78105308D01*
X105030979Y-77927761D01*
X104866562Y-77777876D01*
X104866560Y-77777874D01*
X104677404Y-77660754D01*
X104677395Y-77660750D01*
X104583956Y-77624552D01*
X104483475Y-77585625D01*
X104428075Y-77543054D01*
X104404484Y-77477288D01*
X104420195Y-77409207D01*
X104470219Y-77360428D01*
X104483466Y-77354377D01*
X104677401Y-77279247D01*
X104866562Y-77162124D01*
X105006282Y-77034751D01*
X105030979Y-77012238D01*
X105037654Y-77003400D01*
X105165058Y-76834689D01*
X105264229Y-76635528D01*
X105325115Y-76421536D01*
X105345643Y-76200000D01*
X105325115Y-75978464D01*
X105264229Y-75764472D01*
X105250304Y-75736507D01*
X105165061Y-75565316D01*
X105165056Y-75565308D01*
X105030979Y-75387761D01*
X104866562Y-75237876D01*
X104866560Y-75237874D01*
X104677404Y-75120754D01*
X104677395Y-75120750D01*
X104583956Y-75084552D01*
X104483475Y-75045625D01*
X104428075Y-75003054D01*
X104404484Y-74937288D01*
X104420195Y-74869207D01*
X104470219Y-74820428D01*
X104483466Y-74814377D01*
X104677401Y-74739247D01*
X104866562Y-74622124D01*
X105030981Y-74472236D01*
X105165058Y-74294689D01*
X105264229Y-74095528D01*
X105325115Y-73881536D01*
X105345643Y-73660000D01*
X105325115Y-73438464D01*
X105264229Y-73224472D01*
X105264224Y-73224461D01*
X105165061Y-73025316D01*
X105165056Y-73025308D01*
X105030979Y-72847761D01*
X104866562Y-72697876D01*
X104866560Y-72697874D01*
X104677404Y-72580754D01*
X104677395Y-72580750D01*
X104548868Y-72530959D01*
X104483475Y-72505625D01*
X104428075Y-72463054D01*
X104404484Y-72397288D01*
X104420195Y-72329207D01*
X104470219Y-72280428D01*
X104483466Y-72274377D01*
X104677401Y-72199247D01*
X104866562Y-72082124D01*
X105030981Y-71932236D01*
X105165058Y-71754689D01*
X105264229Y-71555528D01*
X105325115Y-71341536D01*
X105345643Y-71120000D01*
X105342973Y-71091191D01*
X105325115Y-70898464D01*
X105325114Y-70898462D01*
X105319800Y-70879786D01*
X105264229Y-70684472D01*
X105264224Y-70684461D01*
X105165061Y-70485316D01*
X105165056Y-70485308D01*
X105030979Y-70307761D01*
X104866562Y-70157876D01*
X104866560Y-70157874D01*
X104677404Y-70040754D01*
X104677395Y-70040750D01*
X104583956Y-70004552D01*
X104483475Y-69965625D01*
X104428075Y-69923054D01*
X104404484Y-69857288D01*
X104420195Y-69789207D01*
X104470219Y-69740428D01*
X104483466Y-69734377D01*
X104677401Y-69659247D01*
X104866562Y-69542124D01*
X105030981Y-69392236D01*
X105165058Y-69214689D01*
X105264229Y-69015528D01*
X105325115Y-68801536D01*
X105345643Y-68580000D01*
X105325115Y-68358464D01*
X105264229Y-68144472D01*
X105264224Y-68144461D01*
X105165061Y-67945316D01*
X105165056Y-67945308D01*
X105030979Y-67767761D01*
X104866562Y-67617876D01*
X104866560Y-67617874D01*
X104677404Y-67500754D01*
X104677395Y-67500750D01*
X104583956Y-67464552D01*
X104483475Y-67425625D01*
X104428075Y-67383054D01*
X104404484Y-67317288D01*
X104420195Y-67249207D01*
X104470219Y-67200428D01*
X104483466Y-67194377D01*
X104677401Y-67119247D01*
X104866562Y-67002124D01*
X105030981Y-66852236D01*
X105165058Y-66674689D01*
X105264229Y-66475528D01*
X105325115Y-66261536D01*
X105345643Y-66040000D01*
X105325115Y-65818464D01*
X105264229Y-65604472D01*
X105264224Y-65604461D01*
X105165061Y-65405316D01*
X105165056Y-65405308D01*
X105030979Y-65227761D01*
X104866562Y-65077876D01*
X104866560Y-65077874D01*
X104677404Y-64960754D01*
X104677395Y-64960750D01*
X104583956Y-64924552D01*
X104483475Y-64885625D01*
X104428075Y-64843054D01*
X104404484Y-64777288D01*
X104420195Y-64709207D01*
X104470219Y-64660428D01*
X104483466Y-64654377D01*
X104677401Y-64579247D01*
X104866562Y-64462124D01*
X105030981Y-64312236D01*
X105165058Y-64134689D01*
X105264229Y-63935528D01*
X105325115Y-63721536D01*
X105345643Y-63500000D01*
X105325115Y-63278464D01*
X105264229Y-63064472D01*
X105264224Y-63064461D01*
X105165061Y-62865316D01*
X105165056Y-62865308D01*
X105030979Y-62687761D01*
X104866562Y-62537876D01*
X104866560Y-62537874D01*
X104677404Y-62420754D01*
X104677395Y-62420750D01*
X104583956Y-62384552D01*
X104483475Y-62345625D01*
X104428075Y-62303054D01*
X104404484Y-62237288D01*
X104420195Y-62169207D01*
X104470219Y-62120428D01*
X104483466Y-62114377D01*
X104677401Y-62039247D01*
X104866562Y-61922124D01*
X105030981Y-61772236D01*
X105165058Y-61594689D01*
X105264229Y-61395528D01*
X105325115Y-61181536D01*
X105345643Y-60960000D01*
X105325115Y-60738464D01*
X105264229Y-60524472D01*
X105264224Y-60524461D01*
X105165061Y-60325316D01*
X105165056Y-60325308D01*
X105030979Y-60147761D01*
X104866562Y-59997876D01*
X104866560Y-59997874D01*
X104677404Y-59880754D01*
X104677395Y-59880750D01*
X104583956Y-59844552D01*
X104483475Y-59805625D01*
X104428075Y-59763054D01*
X104404484Y-59697288D01*
X104420195Y-59629207D01*
X104470219Y-59580428D01*
X104483466Y-59574377D01*
X104677401Y-59499247D01*
X104866562Y-59382124D01*
X105030981Y-59232236D01*
X105165058Y-59054689D01*
X105264229Y-58855528D01*
X105325115Y-58641536D01*
X105345643Y-58420000D01*
X105325115Y-58198464D01*
X105264229Y-57984472D01*
X105264224Y-57984461D01*
X105165061Y-57785316D01*
X105165056Y-57785308D01*
X105030979Y-57607761D01*
X104866562Y-57457876D01*
X104866560Y-57457874D01*
X104677404Y-57340754D01*
X104677395Y-57340750D01*
X104583956Y-57304552D01*
X104483475Y-57265625D01*
X104428075Y-57223054D01*
X104404484Y-57157288D01*
X104420195Y-57089207D01*
X104470219Y-57040428D01*
X104483466Y-57034377D01*
X104677401Y-56959247D01*
X104866562Y-56842124D01*
X105030981Y-56692236D01*
X105165058Y-56514689D01*
X105264229Y-56315528D01*
X105325115Y-56101536D01*
X105345643Y-55880000D01*
X105325115Y-55658464D01*
X105264229Y-55444472D01*
X105248485Y-55412853D01*
X105165061Y-55245316D01*
X105165056Y-55245308D01*
X105030979Y-55067761D01*
X104866562Y-54917876D01*
X104866560Y-54917874D01*
X104819669Y-54888841D01*
X104773033Y-54836814D01*
X104761929Y-54767832D01*
X104789882Y-54703798D01*
X104825929Y-54674359D01*
X104963228Y-54600057D01*
X104963231Y-54600055D01*
X105010056Y-54563609D01*
X104399116Y-53952669D01*
X104365631Y-53891346D01*
X104370615Y-53821654D01*
X104407641Y-53772193D01*
X104406398Y-53770759D01*
X104444217Y-53737989D01*
X104521761Y-53670798D01*
X104556954Y-53616037D01*
X104609755Y-53570283D01*
X104678914Y-53560339D01*
X104742470Y-53589363D01*
X104748949Y-53595396D01*
X105363434Y-54209882D01*
X105463731Y-54056369D01*
X105563587Y-53828717D01*
X105624612Y-53587738D01*
X105624614Y-53587729D01*
X105645141Y-53340005D01*
X105645141Y-53339994D01*
X105624614Y-53092270D01*
X105624612Y-53092261D01*
X105563587Y-52851282D01*
X105463731Y-52623630D01*
X105363434Y-52470116D01*
X104748949Y-53084602D01*
X104687626Y-53118087D01*
X104617934Y-53113103D01*
X104562001Y-53071231D01*
X104556953Y-53063961D01*
X104521761Y-53009202D01*
X104406398Y-52909241D01*
X104408698Y-52906585D01*
X104373960Y-52866428D01*
X104364074Y-52797261D01*
X104393152Y-52733729D01*
X104399116Y-52727329D01*
X105020127Y-52106319D01*
X105081450Y-52072834D01*
X105107808Y-52070000D01*
X105410000Y-52070000D01*
X105410000Y-51060000D01*
X109159364Y-51060000D01*
X109216567Y-51273486D01*
X109216570Y-51273492D01*
X109316399Y-51487578D01*
X109451894Y-51681082D01*
X109618917Y-51848105D01*
X109812421Y-51983600D01*
X110026507Y-52083429D01*
X110026516Y-52083433D01*
X110240000Y-52140634D01*
X110240000Y-51422301D01*
X110259685Y-51355262D01*
X110312489Y-51309507D01*
X110381647Y-51299563D01*
X110454237Y-51310000D01*
X110454238Y-51310000D01*
X110525762Y-51310000D01*
X110525763Y-51310000D01*
X110598352Y-51299563D01*
X110667510Y-51309507D01*
X110720314Y-51355261D01*
X110739999Y-51422301D01*
X110739999Y-52140633D01*
X110953483Y-52083433D01*
X110953492Y-52083429D01*
X111167578Y-51983600D01*
X111361082Y-51848105D01*
X111528105Y-51681082D01*
X111663600Y-51487578D01*
X111763429Y-51273492D01*
X111763432Y-51273486D01*
X111820636Y-51060000D01*
X116779364Y-51060000D01*
X116836567Y-51273486D01*
X116836570Y-51273492D01*
X116936399Y-51487578D01*
X117071894Y-51681082D01*
X117238917Y-51848105D01*
X117432421Y-51983600D01*
X117646507Y-52083429D01*
X117646516Y-52083433D01*
X117859998Y-52140635D01*
X117859999Y-52140634D01*
X117859999Y-51422300D01*
X117879684Y-51355261D01*
X117932488Y-51309506D01*
X118001642Y-51299562D01*
X118074237Y-51310000D01*
X118074240Y-51310000D01*
X118145762Y-51310000D01*
X118145763Y-51310000D01*
X118218353Y-51299563D01*
X118287512Y-51309507D01*
X118340315Y-51355262D01*
X118360000Y-51422301D01*
X118360000Y-52140633D01*
X118573483Y-52083433D01*
X118573492Y-52083429D01*
X118787578Y-51983600D01*
X118981082Y-51848105D01*
X119148105Y-51681082D01*
X119283600Y-51487578D01*
X119383429Y-51273492D01*
X119383432Y-51273486D01*
X119440636Y-51060000D01*
X118723347Y-51060000D01*
X118656308Y-51040315D01*
X118610553Y-50987511D01*
X118600609Y-50918353D01*
X118604369Y-50901067D01*
X118610000Y-50881888D01*
X118610000Y-50738111D01*
X118604369Y-50718933D01*
X118604370Y-50649064D01*
X118642145Y-50590286D01*
X118705701Y-50561262D01*
X118723347Y-50560000D01*
X119440636Y-50560000D01*
X119440635Y-50559999D01*
X119383432Y-50346513D01*
X119383429Y-50346507D01*
X119283600Y-50132422D01*
X119283599Y-50132420D01*
X119148113Y-49938926D01*
X119148108Y-49938920D01*
X118981082Y-49771894D01*
X118787578Y-49636399D01*
X118573492Y-49536570D01*
X118573486Y-49536567D01*
X118360000Y-49479364D01*
X118360000Y-50197698D01*
X118340315Y-50264737D01*
X118287511Y-50310492D01*
X118218355Y-50320436D01*
X118145766Y-50310000D01*
X118145763Y-50310000D01*
X118074237Y-50310000D01*
X118001646Y-50320437D01*
X117932487Y-50310493D01*
X117879683Y-50264738D01*
X117859999Y-50197699D01*
X117859999Y-49479364D01*
X117859998Y-49479364D01*
X117646505Y-49536570D01*
X117432422Y-49636399D01*
X117432420Y-49636400D01*
X117238926Y-49771886D01*
X117238920Y-49771891D01*
X117071891Y-49938920D01*
X117071886Y-49938926D01*
X116936400Y-50132420D01*
X116936399Y-50132422D01*
X116836570Y-50346507D01*
X116836567Y-50346513D01*
X116779364Y-50559999D01*
X116779364Y-50560000D01*
X117496653Y-50560000D01*
X117563692Y-50579685D01*
X117609447Y-50632489D01*
X117619391Y-50701647D01*
X117615631Y-50718933D01*
X117610000Y-50738111D01*
X117610000Y-50881888D01*
X117615631Y-50901067D01*
X117615630Y-50970936D01*
X117577855Y-51029714D01*
X117514299Y-51058738D01*
X117496653Y-51060000D01*
X116779364Y-51060000D01*
X111820636Y-51060000D01*
X111103347Y-51060000D01*
X111036308Y-51040315D01*
X110990553Y-50987511D01*
X110980609Y-50918353D01*
X110984369Y-50901067D01*
X110990000Y-50881888D01*
X110990000Y-50738111D01*
X110984369Y-50718933D01*
X110984370Y-50649064D01*
X111022145Y-50590286D01*
X111085701Y-50561262D01*
X111103347Y-50560000D01*
X111820636Y-50560000D01*
X111820635Y-50559999D01*
X111763432Y-50346513D01*
X111763429Y-50346507D01*
X111663600Y-50132422D01*
X111663599Y-50132420D01*
X111528113Y-49938926D01*
X111528108Y-49938920D01*
X111361082Y-49771894D01*
X111167578Y-49636399D01*
X110953492Y-49536570D01*
X110953486Y-49536567D01*
X110739999Y-49479364D01*
X110739999Y-50197698D01*
X110720314Y-50264737D01*
X110667510Y-50310492D01*
X110598353Y-50320436D01*
X110525764Y-50310000D01*
X110525763Y-50310000D01*
X110454237Y-50310000D01*
X110454233Y-50310000D01*
X110381645Y-50320436D01*
X110312487Y-50310492D01*
X110259684Y-50264736D01*
X110240000Y-50197698D01*
X110240000Y-49479364D01*
X110239999Y-49479364D01*
X110026513Y-49536567D01*
X110026507Y-49536570D01*
X109812422Y-49636399D01*
X109812420Y-49636400D01*
X109618926Y-49771886D01*
X109618920Y-49771891D01*
X109451891Y-49938920D01*
X109451886Y-49938926D01*
X109316400Y-50132420D01*
X109316399Y-50132422D01*
X109216570Y-50346507D01*
X109216567Y-50346513D01*
X109159364Y-50559999D01*
X109159364Y-50560000D01*
X109876653Y-50560000D01*
X109943692Y-50579685D01*
X109989447Y-50632489D01*
X109999391Y-50701647D01*
X109995631Y-50718933D01*
X109990000Y-50738111D01*
X109990000Y-50881888D01*
X109995631Y-50901067D01*
X109995630Y-50970936D01*
X109957855Y-51029714D01*
X109894299Y-51058738D01*
X109876653Y-51060000D01*
X109159364Y-51060000D01*
X105410000Y-51060000D01*
X105410000Y-44059752D01*
X109439500Y-44059752D01*
X109451131Y-44118229D01*
X109451132Y-44118230D01*
X109495447Y-44184552D01*
X109561769Y-44228867D01*
X109561770Y-44228868D01*
X109620247Y-44240499D01*
X109620250Y-44240500D01*
X109620252Y-44240500D01*
X111359750Y-44240500D01*
X111359751Y-44240499D01*
X111374568Y-44237552D01*
X111418229Y-44228868D01*
X111418229Y-44228867D01*
X111418231Y-44228867D01*
X111484552Y-44184552D01*
X111528867Y-44118231D01*
X111528867Y-44118229D01*
X111528868Y-44118229D01*
X111540499Y-44059752D01*
X117059500Y-44059752D01*
X117071131Y-44118229D01*
X117071132Y-44118230D01*
X117115447Y-44184552D01*
X117181769Y-44228867D01*
X117181770Y-44228868D01*
X117240247Y-44240499D01*
X117240250Y-44240500D01*
X117240252Y-44240500D01*
X118979750Y-44240500D01*
X118979751Y-44240499D01*
X118994568Y-44237552D01*
X119038229Y-44228868D01*
X119038229Y-44228867D01*
X119038231Y-44228867D01*
X119104552Y-44184552D01*
X119148867Y-44118231D01*
X119148867Y-44118229D01*
X119148868Y-44118229D01*
X119160499Y-44059752D01*
X119160500Y-44059750D01*
X119160500Y-42320249D01*
X119160499Y-42320247D01*
X119148868Y-42261770D01*
X119148867Y-42261769D01*
X119104552Y-42195447D01*
X119038230Y-42151132D01*
X119038229Y-42151131D01*
X118979752Y-42139500D01*
X118979748Y-42139500D01*
X117240252Y-42139500D01*
X117240247Y-42139500D01*
X117181770Y-42151131D01*
X117181769Y-42151132D01*
X117115447Y-42195447D01*
X117071132Y-42261769D01*
X117071131Y-42261770D01*
X117059500Y-42320247D01*
X117059500Y-44059752D01*
X111540499Y-44059752D01*
X111540500Y-44059750D01*
X111540500Y-42320249D01*
X111540499Y-42320247D01*
X111528868Y-42261770D01*
X111528867Y-42261769D01*
X111484552Y-42195447D01*
X111418230Y-42151132D01*
X111418229Y-42151131D01*
X111359752Y-42139500D01*
X111359748Y-42139500D01*
X109620252Y-42139500D01*
X109620247Y-42139500D01*
X109561770Y-42151131D01*
X109561769Y-42151132D01*
X109495447Y-42195447D01*
X109451132Y-42261769D01*
X109451131Y-42261770D01*
X109439500Y-42320247D01*
X109439500Y-44059752D01*
X105410000Y-44059752D01*
X105410000Y-39370000D01*
X77470000Y-39370000D01*
X77470000Y-52070000D01*
X78074861Y-52070000D01*
X78141900Y-52089685D01*
X78187655Y-52142489D01*
X78197599Y-52211647D01*
X78168574Y-52275203D01*
X78140138Y-52299427D01*
X78013439Y-52377874D01*
X78013437Y-52377876D01*
X77849020Y-52527761D01*
X77714943Y-52705308D01*
X77714936Y-52705320D01*
X77615775Y-52904462D01*
X77615768Y-52904480D01*
X77610091Y-52924435D01*
X77572811Y-52983528D01*
X77509502Y-53013085D01*
X77490825Y-53014500D01*
X60976922Y-53014500D01*
X60971518Y-53014264D01*
X60966107Y-53013790D01*
X60931192Y-53010735D01*
X60931191Y-53010735D01*
X60892091Y-53021212D01*
X60886811Y-53022383D01*
X60846959Y-53029410D01*
X60841961Y-53031229D01*
X60825117Y-53038206D01*
X60820313Y-53040446D01*
X60787166Y-53063656D01*
X60782606Y-53066562D01*
X60747548Y-53086804D01*
X60747540Y-53086810D01*
X60721523Y-53117815D01*
X60717869Y-53121804D01*
X58231679Y-55607993D01*
X58211615Y-55623390D01*
X58207543Y-55626807D01*
X58181523Y-55657815D01*
X58177869Y-55661803D01*
X57701974Y-56137699D01*
X42961803Y-70877870D01*
X42957814Y-70881525D01*
X42926805Y-70907545D01*
X42906562Y-70942606D01*
X42903656Y-70947166D01*
X42880446Y-70980313D01*
X42878206Y-70985117D01*
X42871229Y-71001961D01*
X42869410Y-71006959D01*
X42862383Y-71046811D01*
X42861212Y-71052091D01*
X42850735Y-71091191D01*
X42854264Y-71131513D01*
X42854500Y-71136920D01*
X42854500Y-105835500D01*
X42834815Y-105902539D01*
X42782011Y-105948294D01*
X42730500Y-105959500D01*
X42410247Y-105959500D01*
X42351770Y-105971131D01*
X42351769Y-105971132D01*
X42285447Y-106015447D01*
X42241132Y-106081769D01*
X42241131Y-106081770D01*
X42229500Y-106140247D01*
X42229500Y-107679752D01*
X42241131Y-107738229D01*
X42241132Y-107738230D01*
X42285447Y-107804552D01*
X42351769Y-107848867D01*
X42351770Y-107848868D01*
X42410247Y-107860499D01*
X42410250Y-107860500D01*
X42410252Y-107860500D01*
X43949750Y-107860500D01*
X43949751Y-107860499D01*
X43964568Y-107857552D01*
X44008229Y-107848868D01*
X44008229Y-107848867D01*
X44008231Y-107848867D01*
X44074552Y-107804552D01*
X44118867Y-107738231D01*
X44118867Y-107738229D01*
X44118868Y-107738229D01*
X44130499Y-107679752D01*
X44130500Y-107679750D01*
X44130500Y-106910000D01*
X44465225Y-106910000D01*
X44484287Y-107127884D01*
X44484289Y-107127894D01*
X44540894Y-107339150D01*
X44540898Y-107339159D01*
X44633335Y-107537391D01*
X44676873Y-107599571D01*
X44676874Y-107599572D01*
X45111050Y-107165395D01*
X45172373Y-107131910D01*
X45242064Y-107136894D01*
X45297998Y-107178765D01*
X45303039Y-107186025D01*
X45338239Y-107240798D01*
X45429390Y-107319780D01*
X45453602Y-107340759D01*
X45451293Y-107343422D01*
X45486006Y-107383499D01*
X45495935Y-107452660D01*
X45466898Y-107516210D01*
X45460882Y-107522669D01*
X45030426Y-107953124D01*
X45092611Y-107996666D01*
X45092613Y-107996667D01*
X45290840Y-108089101D01*
X45290849Y-108089105D01*
X45502105Y-108145710D01*
X45502115Y-108145712D01*
X45719999Y-108164775D01*
X45720001Y-108164775D01*
X45937884Y-108145712D01*
X45937894Y-108145710D01*
X46149150Y-108089105D01*
X46149159Y-108089101D01*
X46347387Y-107996666D01*
X46409572Y-107953124D01*
X45979116Y-107522669D01*
X45945631Y-107461346D01*
X45950615Y-107391655D01*
X45987640Y-107342193D01*
X45986398Y-107340759D01*
X45993100Y-107334952D01*
X46101761Y-107240798D01*
X46136954Y-107186037D01*
X46189755Y-107140283D01*
X46258914Y-107130339D01*
X46322470Y-107159363D01*
X46328949Y-107165396D01*
X46763124Y-107599572D01*
X46806666Y-107537387D01*
X46899101Y-107339159D01*
X46899105Y-107339150D01*
X46955710Y-107127894D01*
X46955712Y-107127884D01*
X46974775Y-106910000D01*
X46974775Y-106909999D01*
X46955712Y-106692115D01*
X46955710Y-106692105D01*
X46899105Y-106480849D01*
X46899101Y-106480840D01*
X46806668Y-106282615D01*
X46763123Y-106220427D01*
X46328949Y-106654602D01*
X46267626Y-106688087D01*
X46197934Y-106683103D01*
X46142001Y-106641231D01*
X46136953Y-106633961D01*
X46101761Y-106579202D01*
X45986398Y-106479241D01*
X45988708Y-106476574D01*
X45954005Y-106436528D01*
X45944058Y-106367370D01*
X45973080Y-106303813D01*
X45979116Y-106297330D01*
X46409572Y-105866874D01*
X46409571Y-105866873D01*
X46347391Y-105823335D01*
X46149159Y-105730898D01*
X46149150Y-105730894D01*
X45937894Y-105674289D01*
X45937884Y-105674287D01*
X45720001Y-105655225D01*
X45719999Y-105655225D01*
X45502115Y-105674287D01*
X45502105Y-105674289D01*
X45290849Y-105730894D01*
X45290840Y-105730898D01*
X45092614Y-105823332D01*
X45092612Y-105823333D01*
X45030428Y-105866875D01*
X45030427Y-105866875D01*
X45460883Y-106297330D01*
X45494368Y-106358653D01*
X45489384Y-106428344D01*
X45452358Y-106477805D01*
X45453602Y-106479241D01*
X45338238Y-106579202D01*
X45303046Y-106633962D01*
X45250242Y-106679717D01*
X45181083Y-106689660D01*
X45117528Y-106660634D01*
X45111050Y-106654603D01*
X44676875Y-106220427D01*
X44676875Y-106220428D01*
X44633333Y-106282612D01*
X44633332Y-106282614D01*
X44540898Y-106480840D01*
X44540894Y-106480849D01*
X44484289Y-106692105D01*
X44484287Y-106692115D01*
X44465225Y-106909999D01*
X44465225Y-106910000D01*
X44130500Y-106910000D01*
X44130500Y-106140249D01*
X44130499Y-106140247D01*
X44118868Y-106081770D01*
X44118867Y-106081769D01*
X44074552Y-106015447D01*
X44008230Y-105971132D01*
X44008229Y-105971131D01*
X43949752Y-105959500D01*
X43949748Y-105959500D01*
X43629500Y-105959500D01*
X43562461Y-105939815D01*
X43516706Y-105887011D01*
X43505500Y-105835500D01*
X43505500Y-71306188D01*
X43525185Y-71239149D01*
X43541819Y-71218507D01*
X50824803Y-63935523D01*
X58162298Y-56598029D01*
X58162299Y-56598027D01*
X58169355Y-56590971D01*
X58169360Y-56590964D01*
X58518509Y-56241817D01*
X58579831Y-56208334D01*
X58606189Y-56205500D01*
X77490825Y-56205500D01*
X77557864Y-56225185D01*
X77603619Y-56277989D01*
X77610091Y-56295565D01*
X77615768Y-56315519D01*
X77615775Y-56315537D01*
X77714936Y-56514679D01*
X77714943Y-56514691D01*
X77849020Y-56692238D01*
X78013437Y-56842123D01*
X78013439Y-56842125D01*
X78202595Y-56959245D01*
X78202596Y-56959245D01*
X78202599Y-56959247D01*
X78396524Y-57034374D01*
X78451924Y-57076946D01*
X78475515Y-57142713D01*
X78459804Y-57210793D01*
X78409780Y-57259572D01*
X78396533Y-57265622D01*
X78248488Y-57322975D01*
X78202601Y-57340752D01*
X78202595Y-57340754D01*
X78013439Y-57457874D01*
X78013437Y-57457876D01*
X77849020Y-57607761D01*
X77714943Y-57785308D01*
X77714938Y-57785316D01*
X77615775Y-57984461D01*
X77615769Y-57984476D01*
X77554885Y-58198462D01*
X77554884Y-58198464D01*
X77534357Y-58419999D01*
X77534357Y-58420000D01*
X77554884Y-58641535D01*
X77554885Y-58641537D01*
X77615769Y-58855523D01*
X77615775Y-58855538D01*
X77714938Y-59054683D01*
X77714943Y-59054691D01*
X77849020Y-59232238D01*
X78013437Y-59382123D01*
X78013439Y-59382125D01*
X78202595Y-59499245D01*
X78202596Y-59499245D01*
X78202599Y-59499247D01*
X78396524Y-59574374D01*
X78451924Y-59616946D01*
X78475515Y-59682713D01*
X78459804Y-59750793D01*
X78409780Y-59799572D01*
X78396533Y-59805622D01*
X78248861Y-59862831D01*
X78202601Y-59880752D01*
X78202595Y-59880754D01*
X78013439Y-59997874D01*
X78013437Y-59997876D01*
X77849020Y-60147761D01*
X77714943Y-60325308D01*
X77714938Y-60325316D01*
X77615775Y-60524461D01*
X77615769Y-60524476D01*
X77554885Y-60738462D01*
X77554884Y-60738464D01*
X77534357Y-60959999D01*
X77534357Y-60960000D01*
X77554884Y-61181535D01*
X77554885Y-61181537D01*
X77615769Y-61395523D01*
X77615775Y-61395538D01*
X77714938Y-61594683D01*
X77714943Y-61594691D01*
X77849020Y-61772238D01*
X78013437Y-61922123D01*
X78013439Y-61922125D01*
X78202595Y-62039245D01*
X78202596Y-62039245D01*
X78202599Y-62039247D01*
X78396524Y-62114374D01*
X78451924Y-62156946D01*
X78475515Y-62222713D01*
X78459804Y-62290793D01*
X78409780Y-62339572D01*
X78396533Y-62345622D01*
X78248488Y-62402975D01*
X78202601Y-62420752D01*
X78202595Y-62420754D01*
X78013439Y-62537874D01*
X78013437Y-62537876D01*
X77849020Y-62687761D01*
X77714943Y-62865308D01*
X77714938Y-62865316D01*
X77615775Y-63064461D01*
X77615769Y-63064476D01*
X77554885Y-63278462D01*
X77554884Y-63278464D01*
X77534357Y-63499999D01*
X77534357Y-63500000D01*
X77554884Y-63721535D01*
X77554885Y-63721537D01*
X77615769Y-63935523D01*
X77615775Y-63935538D01*
X77714938Y-64134683D01*
X77714943Y-64134691D01*
X77849020Y-64312238D01*
X78013437Y-64462123D01*
X78013439Y-64462125D01*
X78202595Y-64579245D01*
X78202596Y-64579245D01*
X78202599Y-64579247D01*
X78396524Y-64654374D01*
X78451924Y-64696946D01*
X78475515Y-64762713D01*
X78459804Y-64830793D01*
X78409780Y-64879572D01*
X78396533Y-64885622D01*
X78248488Y-64942975D01*
X78202601Y-64960752D01*
X78202595Y-64960754D01*
X78013439Y-65077874D01*
X78013437Y-65077876D01*
X77849020Y-65227761D01*
X77714943Y-65405308D01*
X77714938Y-65405316D01*
X77615775Y-65604461D01*
X77615769Y-65604476D01*
X77554885Y-65818462D01*
X77554884Y-65818464D01*
X77534357Y-66039999D01*
X77534357Y-66040000D01*
X77554884Y-66261535D01*
X77554885Y-66261537D01*
X77615769Y-66475523D01*
X77615775Y-66475538D01*
X77714938Y-66674683D01*
X77714943Y-66674691D01*
X77849020Y-66852238D01*
X78013437Y-67002123D01*
X78013439Y-67002125D01*
X78202595Y-67119245D01*
X78202596Y-67119245D01*
X78202599Y-67119247D01*
X78396524Y-67194374D01*
X78451924Y-67236946D01*
X78475515Y-67302713D01*
X78459804Y-67370793D01*
X78409780Y-67419572D01*
X78396533Y-67425622D01*
X78248488Y-67482975D01*
X78202601Y-67500752D01*
X78202595Y-67500754D01*
X78013439Y-67617874D01*
X78013437Y-67617876D01*
X77849020Y-67767761D01*
X77714943Y-67945308D01*
X77714938Y-67945316D01*
X77615775Y-68144461D01*
X77615769Y-68144476D01*
X77554885Y-68358462D01*
X77554884Y-68358464D01*
X77534357Y-68579999D01*
X77534357Y-68580000D01*
X77554884Y-68801535D01*
X77554885Y-68801537D01*
X77615769Y-69015523D01*
X77615775Y-69015538D01*
X77714938Y-69214683D01*
X77714943Y-69214691D01*
X77849020Y-69392238D01*
X78013437Y-69542123D01*
X78013439Y-69542125D01*
X78202595Y-69659245D01*
X78202596Y-69659245D01*
X78202599Y-69659247D01*
X78396524Y-69734374D01*
X78451924Y-69776946D01*
X78475515Y-69842713D01*
X78459804Y-69910793D01*
X78409780Y-69959572D01*
X78396533Y-69965622D01*
X78248488Y-70022975D01*
X78202601Y-70040752D01*
X78202595Y-70040754D01*
X78013439Y-70157874D01*
X78013437Y-70157876D01*
X77849020Y-70307761D01*
X77714943Y-70485308D01*
X77714938Y-70485316D01*
X77615775Y-70684461D01*
X77615769Y-70684476D01*
X77554885Y-70898462D01*
X77554884Y-70898464D01*
X77534357Y-71119999D01*
X77534357Y-71120000D01*
X77554884Y-71341535D01*
X77554885Y-71341538D01*
X77615768Y-71555523D01*
X77615771Y-71555529D01*
X77651917Y-71628120D01*
X77664178Y-71696906D01*
X77637305Y-71761401D01*
X77628598Y-71771073D01*
X77117493Y-72282181D01*
X77056170Y-72315666D01*
X77029812Y-72318500D01*
X76216922Y-72318500D01*
X76211518Y-72318264D01*
X76206107Y-72317790D01*
X76171192Y-72314735D01*
X76171191Y-72314735D01*
X76132091Y-72325212D01*
X76126811Y-72326383D01*
X76086959Y-72333410D01*
X76081961Y-72335229D01*
X76065117Y-72342206D01*
X76060313Y-72344446D01*
X76027166Y-72367656D01*
X76022606Y-72370562D01*
X75987548Y-72390804D01*
X75987540Y-72390810D01*
X75961523Y-72421815D01*
X75957869Y-72425804D01*
X74203803Y-74179870D01*
X74199814Y-74183525D01*
X74168805Y-74209545D01*
X74148562Y-74244606D01*
X74145656Y-74249166D01*
X74122446Y-74282313D01*
X74120206Y-74287117D01*
X74113229Y-74303961D01*
X74111410Y-74308959D01*
X74104383Y-74348811D01*
X74103212Y-74354091D01*
X74092735Y-74393191D01*
X74096264Y-74433513D01*
X74096500Y-74438920D01*
X74096500Y-95571811D01*
X74076815Y-95638850D01*
X74060181Y-95659492D01*
X71783493Y-97936181D01*
X71722170Y-97969666D01*
X71695812Y-97972500D01*
X67326922Y-97972500D01*
X67321518Y-97972264D01*
X67316107Y-97971790D01*
X67281192Y-97968735D01*
X67281191Y-97968735D01*
X67242091Y-97979212D01*
X67236811Y-97980383D01*
X67196959Y-97987410D01*
X67191961Y-97989229D01*
X67175117Y-97996206D01*
X67170313Y-97998446D01*
X67137166Y-98021656D01*
X67132606Y-98024562D01*
X67097548Y-98044804D01*
X67097540Y-98044810D01*
X67071523Y-98075815D01*
X67067869Y-98079804D01*
X63401493Y-101746181D01*
X63340170Y-101779666D01*
X63313812Y-101782500D01*
X56404922Y-101782500D01*
X56399518Y-101782264D01*
X56394107Y-101781790D01*
X56359192Y-101778735D01*
X56359191Y-101778735D01*
X56320091Y-101789212D01*
X56314811Y-101790383D01*
X56274959Y-101797410D01*
X56269961Y-101799229D01*
X56253117Y-101806206D01*
X56248313Y-101808446D01*
X56215166Y-101831656D01*
X56210606Y-101834562D01*
X56175548Y-101854804D01*
X56175540Y-101854810D01*
X56149523Y-101885815D01*
X56145869Y-101889804D01*
X53241493Y-104794181D01*
X53180170Y-104827666D01*
X53153812Y-104830500D01*
X52570922Y-104830500D01*
X52565518Y-104830264D01*
X52560107Y-104829790D01*
X52525192Y-104826735D01*
X52525191Y-104826735D01*
X52486091Y-104837212D01*
X52480811Y-104838383D01*
X52440959Y-104845410D01*
X52435961Y-104847229D01*
X52419117Y-104854206D01*
X52414313Y-104856446D01*
X52381166Y-104879656D01*
X52376606Y-104882562D01*
X52341548Y-104902804D01*
X52341540Y-104902810D01*
X52315523Y-104933815D01*
X52311869Y-104937804D01*
X51261457Y-105988215D01*
X51200134Y-106021700D01*
X51137781Y-106019195D01*
X51062801Y-105996450D01*
X50986331Y-105973253D01*
X50986329Y-105973252D01*
X50986331Y-105973252D01*
X50800000Y-105954901D01*
X50613668Y-105973252D01*
X50613666Y-105973253D01*
X50434497Y-106027604D01*
X50269376Y-106115862D01*
X50269373Y-106115864D01*
X50124642Y-106234642D01*
X50005864Y-106379373D01*
X50005862Y-106379376D01*
X49917604Y-106544497D01*
X49863253Y-106723666D01*
X49863252Y-106723668D01*
X49844901Y-106909999D01*
X49863252Y-107096331D01*
X49863253Y-107096333D01*
X49917604Y-107275502D01*
X50005862Y-107440623D01*
X50005864Y-107440626D01*
X50019167Y-107456835D01*
X50046480Y-107521144D01*
X50034689Y-107590012D01*
X49987537Y-107641572D01*
X49923314Y-107659500D01*
X49136686Y-107659500D01*
X49069647Y-107639815D01*
X49023892Y-107587011D01*
X49013948Y-107517853D01*
X49040833Y-107456835D01*
X49054135Y-107440626D01*
X49054137Y-107440623D01*
X49084356Y-107384087D01*
X49142396Y-107275501D01*
X49196747Y-107096331D01*
X49215099Y-106910000D01*
X49196747Y-106723669D01*
X49142396Y-106544499D01*
X49125349Y-106512606D01*
X49054137Y-106379376D01*
X49054135Y-106379373D01*
X48935357Y-106234642D01*
X48790626Y-106115864D01*
X48790623Y-106115862D01*
X48625502Y-106027604D01*
X48446333Y-105973253D01*
X48446331Y-105973252D01*
X48260000Y-105954901D01*
X48073668Y-105973252D01*
X48073666Y-105973253D01*
X47894497Y-106027604D01*
X47729376Y-106115862D01*
X47729373Y-106115864D01*
X47584642Y-106234642D01*
X47465864Y-106379373D01*
X47465862Y-106379376D01*
X47377604Y-106544497D01*
X47323253Y-106723666D01*
X47323252Y-106723668D01*
X47304901Y-106910000D01*
X47323252Y-107096331D01*
X47323253Y-107096333D01*
X47377604Y-107275502D01*
X47465862Y-107440623D01*
X47465864Y-107440626D01*
X47584642Y-107585357D01*
X47729373Y-107704135D01*
X47729376Y-107704137D01*
X47874765Y-107781848D01*
X47894499Y-107792396D01*
X48073669Y-107846747D01*
X48174551Y-107856682D01*
X48239337Y-107882842D01*
X48250078Y-107892404D01*
X48560863Y-108203189D01*
X48564518Y-108207178D01*
X48590541Y-108238190D01*
X48590543Y-108238191D01*
X48590545Y-108238194D01*
X48590547Y-108238195D01*
X48590548Y-108238196D01*
X48625599Y-108258433D01*
X48630162Y-108261339D01*
X48663316Y-108284554D01*
X48663319Y-108284554D01*
X48668176Y-108286820D01*
X48684933Y-108293760D01*
X48689950Y-108295586D01*
X48689952Y-108295586D01*
X48689955Y-108295588D01*
X48729818Y-108302616D01*
X48735076Y-108303782D01*
X48774193Y-108314264D01*
X48814518Y-108310735D01*
X48819922Y-108310500D01*
X53768358Y-108310500D01*
X53773761Y-108310735D01*
X53814087Y-108314264D01*
X53853220Y-108303777D01*
X53858442Y-108302619D01*
X53898325Y-108295588D01*
X53898330Y-108295584D01*
X53903379Y-108293747D01*
X53920104Y-108286819D01*
X53924961Y-108284554D01*
X53924964Y-108284554D01*
X53958121Y-108261335D01*
X53962670Y-108258438D01*
X53997735Y-108238194D01*
X53997739Y-108238190D01*
X54023756Y-108207182D01*
X54027402Y-108203202D01*
X54633204Y-107597400D01*
X54637166Y-107593769D01*
X54668194Y-107567735D01*
X54688438Y-107532670D01*
X54691335Y-107528121D01*
X54714554Y-107494964D01*
X54714554Y-107494961D01*
X54716819Y-107490104D01*
X54723747Y-107473379D01*
X54725584Y-107468330D01*
X54725588Y-107468325D01*
X54732619Y-107428442D01*
X54733777Y-107423220D01*
X54744264Y-107384087D01*
X54740735Y-107343758D01*
X54740500Y-107338355D01*
X54740500Y-107263882D01*
X54760185Y-107196843D01*
X54812989Y-107151088D01*
X54882147Y-107141144D01*
X54945703Y-107170169D01*
X54983159Y-107227885D01*
X54992667Y-107259227D01*
X54997605Y-107275505D01*
X55085862Y-107440623D01*
X55085864Y-107440626D01*
X55204642Y-107585357D01*
X55349373Y-107704135D01*
X55349376Y-107704137D01*
X55494765Y-107781848D01*
X55514499Y-107792396D01*
X55602685Y-107819147D01*
X55693666Y-107846746D01*
X55693668Y-107846747D01*
X55710374Y-107848392D01*
X55880000Y-107865099D01*
X56066331Y-107846747D01*
X56245501Y-107792396D01*
X56410625Y-107704136D01*
X56555357Y-107585357D01*
X56674136Y-107440625D01*
X56762396Y-107275501D01*
X56816747Y-107096331D01*
X56835099Y-106910000D01*
X56816747Y-106723669D01*
X56770803Y-106572216D01*
X56770180Y-106502351D01*
X56801781Y-106448543D01*
X59002506Y-104247819D01*
X59063830Y-104214334D01*
X59090188Y-104211500D01*
X60357438Y-104211500D01*
X60424477Y-104231185D01*
X60470232Y-104283989D01*
X60480176Y-104353147D01*
X60452420Y-104415214D01*
X60443520Y-104425819D01*
X60439868Y-104429805D01*
X58881457Y-105988215D01*
X58820134Y-106021700D01*
X58757781Y-106019195D01*
X58682801Y-105996450D01*
X58606331Y-105973253D01*
X58606329Y-105973252D01*
X58606331Y-105973252D01*
X58420000Y-105954901D01*
X58233668Y-105973252D01*
X58233666Y-105973253D01*
X58054497Y-106027604D01*
X57889376Y-106115862D01*
X57889373Y-106115864D01*
X57744642Y-106234642D01*
X57625864Y-106379373D01*
X57625862Y-106379376D01*
X57537604Y-106544497D01*
X57483253Y-106723666D01*
X57483252Y-106723668D01*
X57464901Y-106909999D01*
X57483252Y-107096331D01*
X57483253Y-107096333D01*
X57537604Y-107275502D01*
X57625862Y-107440623D01*
X57625864Y-107440626D01*
X57744642Y-107585357D01*
X57889373Y-107704135D01*
X57889376Y-107704137D01*
X58034765Y-107781848D01*
X58054499Y-107792396D01*
X58142685Y-107819147D01*
X58233666Y-107846746D01*
X58233668Y-107846747D01*
X58250374Y-107848392D01*
X58420000Y-107865099D01*
X58606331Y-107846747D01*
X58785501Y-107792396D01*
X58950625Y-107704136D01*
X59095357Y-107585357D01*
X59214136Y-107440625D01*
X59302396Y-107275501D01*
X59356747Y-107096331D01*
X59375099Y-106910000D01*
X59375099Y-106909999D01*
X60004901Y-106909999D01*
X60023252Y-107096331D01*
X60023253Y-107096333D01*
X60077604Y-107275502D01*
X60165862Y-107440623D01*
X60165864Y-107440626D01*
X60284642Y-107585357D01*
X60429373Y-107704135D01*
X60429376Y-107704137D01*
X60574765Y-107781848D01*
X60594499Y-107792396D01*
X60682685Y-107819147D01*
X60773666Y-107846746D01*
X60773668Y-107846747D01*
X60790374Y-107848392D01*
X60960000Y-107865099D01*
X61146331Y-107846747D01*
X61325501Y-107792396D01*
X61490625Y-107704136D01*
X61635357Y-107585357D01*
X61754136Y-107440625D01*
X61842396Y-107275501D01*
X61896747Y-107096331D01*
X61915099Y-106910000D01*
X61896747Y-106723669D01*
X61842396Y-106544499D01*
X61825349Y-106512606D01*
X61754137Y-106379376D01*
X61754135Y-106379373D01*
X61635357Y-106234642D01*
X61490626Y-106115864D01*
X61490623Y-106115862D01*
X61325502Y-106027604D01*
X61146333Y-105973253D01*
X61146331Y-105973252D01*
X60960000Y-105954901D01*
X60773668Y-105973252D01*
X60773666Y-105973253D01*
X60594497Y-106027604D01*
X60429376Y-106115862D01*
X60429373Y-106115864D01*
X60284642Y-106234642D01*
X60165864Y-106379373D01*
X60165862Y-106379376D01*
X60077604Y-106544497D01*
X60023253Y-106723666D01*
X60023252Y-106723668D01*
X60004901Y-106909999D01*
X59375099Y-106909999D01*
X59356747Y-106723669D01*
X59310803Y-106572216D01*
X59310180Y-106502351D01*
X59341781Y-106448543D01*
X60780506Y-105009819D01*
X60841830Y-104976334D01*
X60868188Y-104973500D01*
X64499078Y-104973500D01*
X64504481Y-104973735D01*
X64544807Y-104977264D01*
X64583940Y-104966777D01*
X64589162Y-104965619D01*
X64629045Y-104958588D01*
X64629050Y-104958584D01*
X64634099Y-104956747D01*
X64650824Y-104949819D01*
X64655680Y-104947555D01*
X64655684Y-104947554D01*
X64655687Y-104947551D01*
X64665517Y-104942969D01*
X64666822Y-104945767D01*
X64716449Y-104929023D01*
X64784219Y-104946024D01*
X64832039Y-104996964D01*
X64844728Y-105065672D01*
X64818256Y-105130333D01*
X64809066Y-105140606D01*
X63961457Y-105988215D01*
X63900134Y-106021700D01*
X63837781Y-106019195D01*
X63762801Y-105996450D01*
X63686331Y-105973253D01*
X63686329Y-105973252D01*
X63686331Y-105973252D01*
X63500000Y-105954901D01*
X63313668Y-105973252D01*
X63313666Y-105973253D01*
X63134497Y-106027604D01*
X62969376Y-106115862D01*
X62969373Y-106115864D01*
X62824642Y-106234642D01*
X62705864Y-106379373D01*
X62705862Y-106379376D01*
X62617604Y-106544497D01*
X62563253Y-106723666D01*
X62563252Y-106723668D01*
X62544901Y-106909999D01*
X62563252Y-107096331D01*
X62563253Y-107096333D01*
X62617604Y-107275502D01*
X62705862Y-107440623D01*
X62705864Y-107440626D01*
X62824642Y-107585357D01*
X62969373Y-107704135D01*
X62969376Y-107704137D01*
X63114765Y-107781848D01*
X63134499Y-107792396D01*
X63222685Y-107819147D01*
X63313666Y-107846746D01*
X63313668Y-107846747D01*
X63330374Y-107848392D01*
X63500000Y-107865099D01*
X63686331Y-107846747D01*
X63865501Y-107792396D01*
X64030625Y-107704136D01*
X64175357Y-107585357D01*
X64294136Y-107440625D01*
X64382396Y-107275501D01*
X64436747Y-107096331D01*
X64455099Y-106910000D01*
X64436747Y-106723669D01*
X64390803Y-106572216D01*
X64390180Y-106502351D01*
X64421781Y-106448543D01*
X65460325Y-105410000D01*
X68184778Y-105410000D01*
X68202100Y-105674289D01*
X68203644Y-105697837D01*
X68203646Y-105697849D01*
X68259917Y-105980745D01*
X68259921Y-105980760D01*
X68352642Y-106253905D01*
X68480219Y-106512606D01*
X68480223Y-106512613D01*
X68640478Y-106752452D01*
X68830672Y-106969327D01*
X69047547Y-107159521D01*
X69287386Y-107319776D01*
X69287389Y-107319778D01*
X69546098Y-107447359D01*
X69819247Y-107540081D01*
X70102161Y-107596356D01*
X70390000Y-107615222D01*
X70677839Y-107596356D01*
X70960753Y-107540081D01*
X71233902Y-107447359D01*
X71492611Y-107319778D01*
X71732454Y-107159520D01*
X71949327Y-106969327D01*
X72139520Y-106752454D01*
X72299778Y-106512611D01*
X72427359Y-106253902D01*
X72520081Y-105980753D01*
X72576356Y-105697839D01*
X72595222Y-105410000D01*
X72576356Y-105122161D01*
X72520081Y-104839247D01*
X72427359Y-104566098D01*
X72299778Y-104307389D01*
X72235707Y-104211500D01*
X72139521Y-104067547D01*
X71949327Y-103850672D01*
X71732452Y-103660478D01*
X71492613Y-103500223D01*
X71492606Y-103500219D01*
X71233905Y-103372642D01*
X70960760Y-103279921D01*
X70960754Y-103279919D01*
X70960753Y-103279919D01*
X70960751Y-103279918D01*
X70960745Y-103279917D01*
X70677849Y-103223646D01*
X70677839Y-103223644D01*
X70390000Y-103204778D01*
X70102161Y-103223644D01*
X70102155Y-103223645D01*
X70102150Y-103223646D01*
X69819254Y-103279917D01*
X69819239Y-103279921D01*
X69546094Y-103372642D01*
X69287393Y-103500219D01*
X69287386Y-103500223D01*
X69047547Y-103660478D01*
X68830672Y-103850672D01*
X68640478Y-104067547D01*
X68480223Y-104307386D01*
X68480219Y-104307393D01*
X68352642Y-104566094D01*
X68259921Y-104839239D01*
X68259917Y-104839254D01*
X68203646Y-105122150D01*
X68203644Y-105122161D01*
X68184778Y-105410000D01*
X65460325Y-105410000D01*
X68146507Y-102723819D01*
X68207831Y-102690334D01*
X68234189Y-102687500D01*
X75421078Y-102687500D01*
X75426481Y-102687735D01*
X75466807Y-102691264D01*
X75505940Y-102680777D01*
X75511162Y-102679619D01*
X75551045Y-102672588D01*
X75551050Y-102672584D01*
X75556099Y-102670747D01*
X75572824Y-102663819D01*
X75577681Y-102661554D01*
X75577684Y-102661554D01*
X75610841Y-102638335D01*
X75615390Y-102635438D01*
X75650455Y-102615194D01*
X75676481Y-102584176D01*
X75680122Y-102580202D01*
X78086710Y-100173615D01*
X78148031Y-100140132D01*
X78217723Y-100145116D01*
X78219088Y-100145634D01*
X78396524Y-100214374D01*
X78451925Y-100256946D01*
X78475515Y-100322713D01*
X78459804Y-100390793D01*
X78409780Y-100439572D01*
X78396533Y-100445622D01*
X78248488Y-100502975D01*
X78202601Y-100520752D01*
X78202595Y-100520754D01*
X78013439Y-100637874D01*
X78013437Y-100637876D01*
X77849020Y-100787761D01*
X77714943Y-100965308D01*
X77714938Y-100965316D01*
X77615775Y-101164461D01*
X77615769Y-101164476D01*
X77554885Y-101378462D01*
X77554884Y-101378464D01*
X77534357Y-101599999D01*
X77534357Y-101600000D01*
X77554884Y-101821535D01*
X77554885Y-101821537D01*
X77615769Y-102035523D01*
X77615775Y-102035538D01*
X77714938Y-102234683D01*
X77714943Y-102234691D01*
X77849020Y-102412238D01*
X78013437Y-102562123D01*
X78013439Y-102562125D01*
X78202595Y-102679245D01*
X78202596Y-102679245D01*
X78202599Y-102679247D01*
X78396524Y-102754374D01*
X78451924Y-102796946D01*
X78475515Y-102862713D01*
X78459804Y-102930793D01*
X78409780Y-102979572D01*
X78396533Y-102985622D01*
X78248488Y-103042975D01*
X78202601Y-103060752D01*
X78202595Y-103060754D01*
X78013439Y-103177874D01*
X78013437Y-103177876D01*
X77849020Y-103327761D01*
X77714943Y-103505308D01*
X77714938Y-103505316D01*
X77615775Y-103704461D01*
X77615769Y-103704476D01*
X77554885Y-103918462D01*
X77554884Y-103918464D01*
X77534357Y-104139999D01*
X77534357Y-104140000D01*
X77554884Y-104361535D01*
X77554885Y-104361537D01*
X77615769Y-104575523D01*
X77615775Y-104575538D01*
X77714938Y-104774683D01*
X77714943Y-104774691D01*
X77849020Y-104952238D01*
X78013436Y-105102123D01*
X78013438Y-105102124D01*
X78060330Y-105131158D01*
X78106966Y-105183185D01*
X78118070Y-105252166D01*
X78090118Y-105316201D01*
X78054071Y-105345639D01*
X77916765Y-105419945D01*
X77869942Y-105456388D01*
X77869942Y-105456390D01*
X78480883Y-106067330D01*
X78514368Y-106128653D01*
X78509384Y-106198344D01*
X78472358Y-106247805D01*
X78473602Y-106249241D01*
X78358238Y-106349202D01*
X78323046Y-106403962D01*
X78270242Y-106449717D01*
X78201083Y-106459660D01*
X78137528Y-106430634D01*
X78131050Y-106424603D01*
X77516564Y-105810116D01*
X77416267Y-105963632D01*
X77316412Y-106191282D01*
X77255387Y-106432261D01*
X77255385Y-106432270D01*
X77234859Y-106679994D01*
X77234859Y-106680005D01*
X77255385Y-106927729D01*
X77255387Y-106927738D01*
X77316412Y-107168717D01*
X77416266Y-107396364D01*
X77516564Y-107549882D01*
X78131050Y-106935395D01*
X78192373Y-106901910D01*
X78262064Y-106906894D01*
X78317998Y-106948765D01*
X78323039Y-106956025D01*
X78358238Y-107010797D01*
X78358239Y-107010798D01*
X78473602Y-107110759D01*
X78471293Y-107113422D01*
X78506006Y-107153499D01*
X78515935Y-107222660D01*
X78486898Y-107286210D01*
X78480882Y-107292669D01*
X77869942Y-107903609D01*
X77916768Y-107940055D01*
X77916770Y-107940056D01*
X78135385Y-108058364D01*
X78135396Y-108058369D01*
X78370506Y-108139083D01*
X78615707Y-108180000D01*
X78864293Y-108180000D01*
X79109493Y-108139083D01*
X79344603Y-108058369D01*
X79344614Y-108058364D01*
X79563228Y-107940057D01*
X79563231Y-107940055D01*
X79610056Y-107903609D01*
X78999116Y-107292669D01*
X78965631Y-107231346D01*
X78970615Y-107161654D01*
X79007641Y-107112193D01*
X79006398Y-107110759D01*
X79023049Y-107096331D01*
X79121761Y-107010798D01*
X79156954Y-106956037D01*
X79209755Y-106910283D01*
X79278914Y-106900339D01*
X79342470Y-106929363D01*
X79348949Y-106935396D01*
X79963434Y-107549882D01*
X80063731Y-107396369D01*
X80163587Y-107168717D01*
X80224612Y-106927738D01*
X80224614Y-106927729D01*
X80245141Y-106680005D01*
X80245141Y-106679994D01*
X80224614Y-106432270D01*
X80224612Y-106432261D01*
X80163587Y-106191282D01*
X80063731Y-105963630D01*
X79963434Y-105810116D01*
X79348949Y-106424602D01*
X79287626Y-106458087D01*
X79217934Y-106453103D01*
X79162001Y-106411231D01*
X79156953Y-106403961D01*
X79121761Y-106349202D01*
X79013100Y-106255048D01*
X79013099Y-106255047D01*
X79006398Y-106249241D01*
X79008698Y-106246585D01*
X78973960Y-106206428D01*
X78964074Y-106137261D01*
X78993152Y-106073729D01*
X78999116Y-106067329D01*
X79610056Y-105456389D01*
X79563229Y-105419943D01*
X79425929Y-105345640D01*
X79376338Y-105296420D01*
X79361230Y-105228204D01*
X79385400Y-105162648D01*
X79419666Y-105131160D01*
X79466562Y-105102124D01*
X79521368Y-105052161D01*
X79630979Y-104952238D01*
X79634517Y-104947554D01*
X79765058Y-104774689D01*
X79864229Y-104575528D01*
X79925115Y-104361536D01*
X79945643Y-104140000D01*
X79945642Y-104139994D01*
X79925115Y-103918464D01*
X79925114Y-103918462D01*
X79925007Y-103918087D01*
X79864229Y-103704472D01*
X79863745Y-103703500D01*
X79765061Y-103505316D01*
X79765056Y-103505308D01*
X79630979Y-103327761D01*
X79466562Y-103177876D01*
X79466560Y-103177874D01*
X79277404Y-103060754D01*
X79277395Y-103060750D01*
X79183956Y-103024552D01*
X79083475Y-102985625D01*
X79028075Y-102943054D01*
X79004484Y-102877288D01*
X79020195Y-102809207D01*
X79070219Y-102760428D01*
X79083466Y-102754377D01*
X79277401Y-102679247D01*
X79466562Y-102562124D01*
X79630981Y-102412236D01*
X79765058Y-102234689D01*
X79864229Y-102035528D01*
X79925115Y-101821536D01*
X79945643Y-101600000D01*
X79925115Y-101378464D01*
X79864229Y-101164472D01*
X79845014Y-101125883D01*
X79765061Y-100965316D01*
X79765056Y-100965308D01*
X79630979Y-100787761D01*
X79466562Y-100637876D01*
X79466560Y-100637874D01*
X79277404Y-100520754D01*
X79277395Y-100520750D01*
X79164934Y-100477183D01*
X79083475Y-100445625D01*
X79028075Y-100403054D01*
X79004484Y-100337288D01*
X79020195Y-100269207D01*
X79070219Y-100220428D01*
X79083466Y-100214377D01*
X79277401Y-100139247D01*
X79466562Y-100022124D01*
X79630981Y-99872236D01*
X79765058Y-99694689D01*
X79768814Y-99687147D01*
X79864224Y-99495538D01*
X79864223Y-99495538D01*
X79864229Y-99495528D01*
X79925115Y-99281536D01*
X79945643Y-99060000D01*
X79941857Y-99019147D01*
X79925115Y-98838464D01*
X79925114Y-98838462D01*
X79921792Y-98826787D01*
X79864229Y-98624472D01*
X79856320Y-98608588D01*
X79765061Y-98425316D01*
X79765056Y-98425308D01*
X79630979Y-98247761D01*
X79466562Y-98097876D01*
X79466560Y-98097874D01*
X79277404Y-97980754D01*
X79277395Y-97980750D01*
X79183956Y-97944552D01*
X79083475Y-97905625D01*
X79028075Y-97863054D01*
X79004484Y-97797288D01*
X79020195Y-97729207D01*
X79070219Y-97680428D01*
X79083466Y-97674377D01*
X79277401Y-97599247D01*
X79466562Y-97482124D01*
X79630981Y-97332236D01*
X79765058Y-97154689D01*
X79864229Y-96955528D01*
X79925115Y-96741536D01*
X79945643Y-96520000D01*
X79925115Y-96298464D01*
X79864229Y-96084472D01*
X79864224Y-96084461D01*
X79765061Y-95885316D01*
X79765056Y-95885308D01*
X79630979Y-95707761D01*
X79466562Y-95557876D01*
X79466560Y-95557874D01*
X79277404Y-95440754D01*
X79277395Y-95440750D01*
X79183956Y-95404552D01*
X79083475Y-95365625D01*
X79028075Y-95323054D01*
X79004484Y-95257288D01*
X79020195Y-95189207D01*
X79070219Y-95140428D01*
X79083466Y-95134377D01*
X79277401Y-95059247D01*
X79466562Y-94942124D01*
X79630981Y-94792236D01*
X79765058Y-94614689D01*
X79768813Y-94607149D01*
X79864224Y-94415538D01*
X79864223Y-94415538D01*
X79864229Y-94415528D01*
X79925115Y-94201536D01*
X79945643Y-93980000D01*
X79945162Y-93974814D01*
X79925115Y-93758464D01*
X79925114Y-93758462D01*
X79917714Y-93732455D01*
X79864229Y-93544472D01*
X79848485Y-93512853D01*
X79765061Y-93345316D01*
X79765056Y-93345308D01*
X79630979Y-93167761D01*
X79466562Y-93017876D01*
X79466560Y-93017874D01*
X79277404Y-92900754D01*
X79277395Y-92900750D01*
X79183956Y-92864552D01*
X79083475Y-92825625D01*
X79028075Y-92783054D01*
X79004484Y-92717288D01*
X79020195Y-92649207D01*
X79070219Y-92600428D01*
X79083466Y-92594377D01*
X79277401Y-92519247D01*
X79466562Y-92402124D01*
X79630981Y-92252236D01*
X79765058Y-92074689D01*
X79864229Y-91875528D01*
X79925115Y-91661536D01*
X79945643Y-91440000D01*
X79925115Y-91218464D01*
X79864229Y-91004472D01*
X79864224Y-91004461D01*
X79765061Y-90805316D01*
X79765056Y-90805308D01*
X79630979Y-90627761D01*
X79466562Y-90477876D01*
X79466560Y-90477874D01*
X79277404Y-90360754D01*
X79277395Y-90360750D01*
X79183956Y-90324552D01*
X79083475Y-90285625D01*
X79028075Y-90243054D01*
X79004484Y-90177288D01*
X79020195Y-90109207D01*
X79070219Y-90060428D01*
X79083466Y-90054377D01*
X79277401Y-89979247D01*
X79466562Y-89862124D01*
X79630981Y-89712236D01*
X79765058Y-89534689D01*
X79864229Y-89335528D01*
X79925115Y-89121536D01*
X79945643Y-88900000D01*
X79925115Y-88678464D01*
X79864229Y-88464472D01*
X79796883Y-88329223D01*
X79765061Y-88265316D01*
X79765056Y-88265308D01*
X79630979Y-88087761D01*
X79466562Y-87937876D01*
X79466560Y-87937874D01*
X79277404Y-87820754D01*
X79277395Y-87820750D01*
X79183956Y-87784552D01*
X79083475Y-87745625D01*
X79028075Y-87703054D01*
X79004484Y-87637288D01*
X79020195Y-87569207D01*
X79070219Y-87520428D01*
X79083466Y-87514377D01*
X79277401Y-87439247D01*
X79466562Y-87322124D01*
X79630981Y-87172236D01*
X79765058Y-86994689D01*
X79864229Y-86795528D01*
X79925115Y-86581536D01*
X79945643Y-86360000D01*
X79925115Y-86138464D01*
X79864229Y-85924472D01*
X79864224Y-85924461D01*
X79765061Y-85725316D01*
X79765056Y-85725308D01*
X79630979Y-85547761D01*
X79466562Y-85397876D01*
X79466560Y-85397874D01*
X79277404Y-85280754D01*
X79277395Y-85280750D01*
X79164490Y-85237011D01*
X79083475Y-85205625D01*
X79028075Y-85163054D01*
X79004484Y-85097288D01*
X79020195Y-85029207D01*
X79070219Y-84980428D01*
X79083466Y-84974377D01*
X79277401Y-84899247D01*
X79466562Y-84782124D01*
X79630981Y-84632236D01*
X79765058Y-84454689D01*
X79864229Y-84255528D01*
X79925115Y-84041536D01*
X79945643Y-83820000D01*
X79925115Y-83598464D01*
X79864229Y-83384472D01*
X79864224Y-83384461D01*
X79765061Y-83185316D01*
X79765056Y-83185308D01*
X79630979Y-83007761D01*
X79466562Y-82857876D01*
X79466560Y-82857874D01*
X79277404Y-82740754D01*
X79277395Y-82740750D01*
X79183956Y-82704552D01*
X79083475Y-82665625D01*
X79028075Y-82623054D01*
X79004484Y-82557288D01*
X79020195Y-82489207D01*
X79070219Y-82440428D01*
X79083466Y-82434377D01*
X79277401Y-82359247D01*
X79466562Y-82242124D01*
X79630981Y-82092236D01*
X79765058Y-81914689D01*
X79864229Y-81715528D01*
X79925115Y-81501536D01*
X79945643Y-81280000D01*
X79925115Y-81058464D01*
X79864229Y-80844472D01*
X79864224Y-80844461D01*
X79765061Y-80645316D01*
X79765056Y-80645308D01*
X79630979Y-80467761D01*
X79466562Y-80317876D01*
X79466560Y-80317874D01*
X79277404Y-80200754D01*
X79277395Y-80200750D01*
X79183956Y-80164552D01*
X79083475Y-80125625D01*
X79028075Y-80083054D01*
X79004484Y-80017288D01*
X79020195Y-79949207D01*
X79070219Y-79900428D01*
X79083466Y-79894377D01*
X79277401Y-79819247D01*
X79466562Y-79702124D01*
X79630981Y-79552236D01*
X79765058Y-79374689D01*
X79864229Y-79175528D01*
X79869909Y-79155564D01*
X79907189Y-79096472D01*
X79970498Y-79066915D01*
X79989175Y-79065500D01*
X84395812Y-79065500D01*
X84462851Y-79085185D01*
X84483493Y-79101819D01*
X90570181Y-85188507D01*
X90603666Y-85249830D01*
X90606500Y-85276188D01*
X90606500Y-98281078D01*
X90606264Y-98286485D01*
X90602735Y-98326808D01*
X90613212Y-98365910D01*
X90614383Y-98371190D01*
X90621411Y-98411043D01*
X90623235Y-98416055D01*
X90630197Y-98432861D01*
X90632445Y-98437681D01*
X90632446Y-98437684D01*
X90633339Y-98438959D01*
X90655655Y-98470831D01*
X90658561Y-98475392D01*
X90678806Y-98510455D01*
X90709815Y-98536475D01*
X90713805Y-98540131D01*
X101103863Y-108930189D01*
X101107518Y-108934178D01*
X101133541Y-108965190D01*
X101133542Y-108965191D01*
X101133545Y-108965194D01*
X101168602Y-108985434D01*
X101173161Y-108988339D01*
X101181137Y-108993924D01*
X101224763Y-109048499D01*
X101231958Y-109117998D01*
X101200437Y-109180353D01*
X101140208Y-109215768D01*
X101110016Y-109219500D01*
X33021742Y-109219500D01*
X33018265Y-109219402D01*
X32904475Y-109213012D01*
X32732330Y-109202599D01*
X32725683Y-109201835D01*
X32589656Y-109178722D01*
X32440781Y-109151440D01*
X32434790Y-109150032D01*
X32298021Y-109110631D01*
X32230634Y-109089633D01*
X32157183Y-109066744D01*
X32151899Y-109064831D01*
X32018581Y-109009609D01*
X31885398Y-108949668D01*
X31880851Y-108947393D01*
X31753560Y-108877043D01*
X31629063Y-108801781D01*
X31625259Y-108799287D01*
X31507272Y-108715571D01*
X31504912Y-108713811D01*
X31391666Y-108625088D01*
X31388589Y-108622512D01*
X31280568Y-108525980D01*
X31278041Y-108523590D01*
X31176408Y-108421957D01*
X31174018Y-108419430D01*
X31077486Y-108311409D01*
X31074910Y-108308332D01*
X31056281Y-108284554D01*
X30986176Y-108195072D01*
X30984427Y-108192726D01*
X30975397Y-108180000D01*
X30900710Y-108074738D01*
X30898217Y-108070935D01*
X30853320Y-107996667D01*
X30822958Y-107946443D01*
X30775753Y-107861031D01*
X30752605Y-107819147D01*
X30750330Y-107814600D01*
X30740336Y-107792395D01*
X30690387Y-107681411D01*
X30689698Y-107679748D01*
X30635164Y-107548092D01*
X30633265Y-107542850D01*
X30589384Y-107402032D01*
X30549963Y-107265198D01*
X30548560Y-107259227D01*
X30531365Y-107165395D01*
X30521277Y-107110343D01*
X30510327Y-107045907D01*
X30498160Y-106974297D01*
X30497401Y-106967691D01*
X30486994Y-106795652D01*
X30480596Y-106681717D01*
X30480500Y-106678294D01*
X30480500Y-105410000D01*
X34084778Y-105410000D01*
X34102100Y-105674289D01*
X34103644Y-105697837D01*
X34103646Y-105697849D01*
X34159917Y-105980745D01*
X34159921Y-105980760D01*
X34252642Y-106253905D01*
X34380219Y-106512606D01*
X34380223Y-106512613D01*
X34540478Y-106752452D01*
X34730672Y-106969327D01*
X34947547Y-107159521D01*
X35187386Y-107319776D01*
X35187389Y-107319778D01*
X35446098Y-107447359D01*
X35719247Y-107540081D01*
X36002161Y-107596356D01*
X36290000Y-107615222D01*
X36577839Y-107596356D01*
X36860753Y-107540081D01*
X37133902Y-107447359D01*
X37392611Y-107319778D01*
X37632454Y-107159520D01*
X37849327Y-106969327D01*
X38039520Y-106752454D01*
X38199778Y-106512611D01*
X38327359Y-106253902D01*
X38420081Y-105980753D01*
X38476356Y-105697839D01*
X38495222Y-105410000D01*
X38476356Y-105122161D01*
X38420081Y-104839247D01*
X38327359Y-104566098D01*
X38199778Y-104307389D01*
X38135707Y-104211500D01*
X38039521Y-104067547D01*
X37849327Y-103850672D01*
X37632452Y-103660478D01*
X37392613Y-103500223D01*
X37392606Y-103500219D01*
X37133905Y-103372642D01*
X36860760Y-103279921D01*
X36860754Y-103279919D01*
X36860753Y-103279919D01*
X36860751Y-103279918D01*
X36860745Y-103279917D01*
X36577849Y-103223646D01*
X36577839Y-103223644D01*
X36290000Y-103204778D01*
X36002161Y-103223644D01*
X36002155Y-103223645D01*
X36002150Y-103223646D01*
X35719254Y-103279917D01*
X35719239Y-103279921D01*
X35446094Y-103372642D01*
X35187393Y-103500219D01*
X35187386Y-103500223D01*
X34947547Y-103660478D01*
X34730672Y-103850672D01*
X34540478Y-104067547D01*
X34380223Y-104307386D01*
X34380219Y-104307393D01*
X34252642Y-104566094D01*
X34159921Y-104839239D01*
X34159917Y-104839254D01*
X34103646Y-105122150D01*
X34103644Y-105122161D01*
X34084778Y-105410000D01*
X30480500Y-105410000D01*
X30480500Y-44210000D01*
X34084778Y-44210000D01*
X34094904Y-44364500D01*
X34103644Y-44497837D01*
X34103646Y-44497849D01*
X34159917Y-44780745D01*
X34159921Y-44780760D01*
X34252642Y-45053905D01*
X34380219Y-45312606D01*
X34380223Y-45312613D01*
X34540478Y-45552452D01*
X34730672Y-45769327D01*
X34947546Y-45959520D01*
X35187389Y-46119778D01*
X35446098Y-46247359D01*
X35719247Y-46340081D01*
X36002161Y-46396356D01*
X36290000Y-46415222D01*
X36577839Y-46396356D01*
X36860753Y-46340081D01*
X37133902Y-46247359D01*
X37392611Y-46119778D01*
X37632454Y-45959520D01*
X37849327Y-45769327D01*
X38039520Y-45552454D01*
X38199778Y-45312611D01*
X38327359Y-45053902D01*
X38420081Y-44780753D01*
X38476356Y-44497839D01*
X38495222Y-44210000D01*
X38476356Y-43922161D01*
X38420081Y-43639247D01*
X38335473Y-43390000D01*
X47304901Y-43390000D01*
X47323252Y-43576331D01*
X47323253Y-43576333D01*
X47377604Y-43755502D01*
X47465862Y-43920623D01*
X47465864Y-43920626D01*
X47584642Y-44065357D01*
X47729373Y-44184135D01*
X47729376Y-44184137D01*
X47894497Y-44272395D01*
X47894499Y-44272396D01*
X48073666Y-44326746D01*
X48073668Y-44326747D01*
X48090374Y-44328392D01*
X48260000Y-44345099D01*
X48446331Y-44326747D01*
X48625501Y-44272396D01*
X48790625Y-44184136D01*
X48935357Y-44065357D01*
X49054136Y-43920625D01*
X49142396Y-43755501D01*
X49196747Y-43576331D01*
X49215099Y-43390000D01*
X49844901Y-43390000D01*
X49863252Y-43576331D01*
X49863253Y-43576333D01*
X49917604Y-43755502D01*
X50005862Y-43920623D01*
X50005864Y-43920626D01*
X50124642Y-44065357D01*
X50269373Y-44184135D01*
X50269376Y-44184137D01*
X50434497Y-44272395D01*
X50434499Y-44272396D01*
X50613666Y-44326746D01*
X50613668Y-44326747D01*
X50630374Y-44328392D01*
X50800000Y-44345099D01*
X50986331Y-44326747D01*
X51165501Y-44272396D01*
X51330625Y-44184136D01*
X51475357Y-44065357D01*
X51594136Y-43920625D01*
X51682396Y-43755501D01*
X51736747Y-43576331D01*
X51755099Y-43390000D01*
X52384901Y-43390000D01*
X52403252Y-43576331D01*
X52403253Y-43576333D01*
X52457604Y-43755502D01*
X52545862Y-43920623D01*
X52545864Y-43920626D01*
X52664642Y-44065357D01*
X52809373Y-44184135D01*
X52809376Y-44184137D01*
X52974497Y-44272395D01*
X52974499Y-44272396D01*
X53153666Y-44326746D01*
X53153668Y-44326747D01*
X53170374Y-44328392D01*
X53340000Y-44345099D01*
X53526331Y-44326747D01*
X53705501Y-44272396D01*
X53870625Y-44184136D01*
X54015357Y-44065357D01*
X54134136Y-43920625D01*
X54222396Y-43755501D01*
X54276747Y-43576331D01*
X54295099Y-43390000D01*
X54295099Y-43389999D01*
X54924901Y-43389999D01*
X54943252Y-43576331D01*
X54943253Y-43576333D01*
X54997604Y-43755502D01*
X55085862Y-43920623D01*
X55085864Y-43920626D01*
X55204642Y-44065357D01*
X55349373Y-44184135D01*
X55349376Y-44184137D01*
X55514497Y-44272395D01*
X55514499Y-44272396D01*
X55693666Y-44326746D01*
X55693668Y-44326747D01*
X55710374Y-44328392D01*
X55880000Y-44345099D01*
X56066331Y-44326747D01*
X56245501Y-44272396D01*
X56410625Y-44184136D01*
X56555357Y-44065357D01*
X56674136Y-43920625D01*
X56762396Y-43755501D01*
X56816747Y-43576331D01*
X56835099Y-43390000D01*
X56835099Y-43389999D01*
X57464901Y-43389999D01*
X57483252Y-43576331D01*
X57483253Y-43576333D01*
X57537604Y-43755502D01*
X57625862Y-43920623D01*
X57625864Y-43920626D01*
X57744642Y-44065357D01*
X57889373Y-44184135D01*
X57889376Y-44184137D01*
X58054497Y-44272395D01*
X58054499Y-44272396D01*
X58233666Y-44326746D01*
X58233668Y-44326747D01*
X58250374Y-44328392D01*
X58420000Y-44345099D01*
X58606331Y-44326747D01*
X58785501Y-44272396D01*
X58902237Y-44210000D01*
X68184778Y-44210000D01*
X68194904Y-44364500D01*
X68203644Y-44497837D01*
X68203646Y-44497849D01*
X68259917Y-44780745D01*
X68259921Y-44780760D01*
X68352642Y-45053905D01*
X68480219Y-45312606D01*
X68480223Y-45312613D01*
X68640478Y-45552452D01*
X68830672Y-45769327D01*
X69047546Y-45959520D01*
X69287389Y-46119778D01*
X69546098Y-46247359D01*
X69819247Y-46340081D01*
X70102161Y-46396356D01*
X70390000Y-46415222D01*
X70677839Y-46396356D01*
X70960753Y-46340081D01*
X71233902Y-46247359D01*
X71492611Y-46119778D01*
X71732454Y-45959520D01*
X71949327Y-45769327D01*
X72139520Y-45552454D01*
X72299778Y-45312611D01*
X72427359Y-45053902D01*
X72520081Y-44780753D01*
X72576356Y-44497839D01*
X72595222Y-44210000D01*
X72576356Y-43922161D01*
X72520081Y-43639247D01*
X72427359Y-43366098D01*
X72299778Y-43107389D01*
X72244391Y-43024497D01*
X72139521Y-42867547D01*
X71949327Y-42650672D01*
X71732452Y-42460478D01*
X71492613Y-42300223D01*
X71492606Y-42300219D01*
X71233905Y-42172642D01*
X70960760Y-42079921D01*
X70960754Y-42079919D01*
X70960753Y-42079919D01*
X70960751Y-42079918D01*
X70960745Y-42079917D01*
X70677849Y-42023646D01*
X70677839Y-42023644D01*
X70390000Y-42004778D01*
X70389999Y-42004778D01*
X70378984Y-42005500D01*
X70102161Y-42023644D01*
X70102155Y-42023645D01*
X70102150Y-42023646D01*
X69819254Y-42079917D01*
X69819239Y-42079921D01*
X69546094Y-42172642D01*
X69287393Y-42300219D01*
X69287386Y-42300223D01*
X69047547Y-42460478D01*
X68830672Y-42650672D01*
X68640478Y-42867547D01*
X68480223Y-43107386D01*
X68480219Y-43107393D01*
X68352642Y-43366094D01*
X68259921Y-43639239D01*
X68259917Y-43639254D01*
X68203949Y-43920626D01*
X68203644Y-43922161D01*
X68184778Y-44210000D01*
X58902237Y-44210000D01*
X58950625Y-44184136D01*
X59095357Y-44065357D01*
X59214136Y-43920625D01*
X59302396Y-43755501D01*
X59356747Y-43576331D01*
X59375099Y-43390000D01*
X59356747Y-43203669D01*
X59302396Y-43024499D01*
X59302395Y-43024497D01*
X59214137Y-42859376D01*
X59214135Y-42859373D01*
X59095357Y-42714642D01*
X58950626Y-42595864D01*
X58950623Y-42595862D01*
X58785502Y-42507604D01*
X58606333Y-42453253D01*
X58606331Y-42453252D01*
X58420000Y-42434901D01*
X58233668Y-42453252D01*
X58233666Y-42453253D01*
X58054497Y-42507604D01*
X57889376Y-42595862D01*
X57889373Y-42595864D01*
X57744642Y-42714642D01*
X57625864Y-42859373D01*
X57625862Y-42859376D01*
X57537604Y-43024497D01*
X57483253Y-43203666D01*
X57483252Y-43203668D01*
X57464901Y-43389999D01*
X56835099Y-43389999D01*
X56816747Y-43203669D01*
X56762396Y-43024499D01*
X56762395Y-43024497D01*
X56674137Y-42859376D01*
X56674135Y-42859373D01*
X56555357Y-42714642D01*
X56410626Y-42595864D01*
X56410623Y-42595862D01*
X56245502Y-42507604D01*
X56066333Y-42453253D01*
X56066331Y-42453252D01*
X55880000Y-42434901D01*
X55693668Y-42453252D01*
X55693666Y-42453253D01*
X55514497Y-42507604D01*
X55349376Y-42595862D01*
X55349373Y-42595864D01*
X55204642Y-42714642D01*
X55085864Y-42859373D01*
X55085862Y-42859376D01*
X54997604Y-43024497D01*
X54943253Y-43203666D01*
X54943252Y-43203668D01*
X54924901Y-43389999D01*
X54295099Y-43389999D01*
X54276747Y-43203669D01*
X54222396Y-43024499D01*
X54222395Y-43024497D01*
X54134137Y-42859376D01*
X54134135Y-42859373D01*
X54015357Y-42714642D01*
X53870626Y-42595864D01*
X53870623Y-42595862D01*
X53705502Y-42507604D01*
X53526333Y-42453253D01*
X53526331Y-42453252D01*
X53340000Y-42434901D01*
X53153668Y-42453252D01*
X53153666Y-42453253D01*
X52974497Y-42507604D01*
X52809376Y-42595862D01*
X52809373Y-42595864D01*
X52664642Y-42714642D01*
X52545864Y-42859373D01*
X52545862Y-42859376D01*
X52457604Y-43024497D01*
X52403253Y-43203666D01*
X52403252Y-43203668D01*
X52384901Y-43390000D01*
X51755099Y-43390000D01*
X51736747Y-43203669D01*
X51682396Y-43024499D01*
X51682395Y-43024497D01*
X51594137Y-42859376D01*
X51594135Y-42859373D01*
X51475357Y-42714642D01*
X51330626Y-42595864D01*
X51330623Y-42595862D01*
X51165502Y-42507604D01*
X50986333Y-42453253D01*
X50986331Y-42453252D01*
X50800000Y-42434901D01*
X50613668Y-42453252D01*
X50613666Y-42453253D01*
X50434497Y-42507604D01*
X50269376Y-42595862D01*
X50269373Y-42595864D01*
X50124642Y-42714642D01*
X50005864Y-42859373D01*
X50005862Y-42859376D01*
X49917604Y-43024497D01*
X49863253Y-43203666D01*
X49863252Y-43203668D01*
X49844901Y-43390000D01*
X49215099Y-43390000D01*
X49196747Y-43203669D01*
X49142396Y-43024499D01*
X49142395Y-43024497D01*
X49054137Y-42859376D01*
X49054135Y-42859373D01*
X48935357Y-42714642D01*
X48790626Y-42595864D01*
X48790623Y-42595862D01*
X48625502Y-42507604D01*
X48446333Y-42453253D01*
X48446331Y-42453252D01*
X48260000Y-42434901D01*
X48073668Y-42453252D01*
X48073666Y-42453253D01*
X47894497Y-42507604D01*
X47729376Y-42595862D01*
X47729373Y-42595864D01*
X47584642Y-42714642D01*
X47465864Y-42859373D01*
X47465862Y-42859376D01*
X47377604Y-43024497D01*
X47323253Y-43203666D01*
X47323252Y-43203668D01*
X47304901Y-43390000D01*
X38335473Y-43390000D01*
X38327359Y-43366098D01*
X38199778Y-43107389D01*
X38144391Y-43024497D01*
X38039521Y-42867547D01*
X37849327Y-42650672D01*
X37632452Y-42460478D01*
X37392613Y-42300223D01*
X37392606Y-42300219D01*
X37133905Y-42172642D01*
X36860760Y-42079921D01*
X36860754Y-42079919D01*
X36860753Y-42079919D01*
X36860751Y-42079918D01*
X36860745Y-42079917D01*
X36577849Y-42023646D01*
X36577839Y-42023644D01*
X36290000Y-42004778D01*
X36289999Y-42004778D01*
X36278984Y-42005500D01*
X36002161Y-42023644D01*
X36002155Y-42023645D01*
X36002150Y-42023646D01*
X35719254Y-42079917D01*
X35719239Y-42079921D01*
X35446094Y-42172642D01*
X35187393Y-42300219D01*
X35187386Y-42300223D01*
X34947547Y-42460478D01*
X34730672Y-42650672D01*
X34540478Y-42867547D01*
X34380223Y-43107386D01*
X34380219Y-43107393D01*
X34252642Y-43366094D01*
X34159921Y-43639239D01*
X34159917Y-43639254D01*
X34103949Y-43920626D01*
X34103644Y-43922161D01*
X34084778Y-44210000D01*
X30480500Y-44210000D01*
X30480500Y-40641704D01*
X30480597Y-40638265D01*
X30486998Y-40524283D01*
X30497401Y-40352304D01*
X30498160Y-40345706D01*
X30520576Y-40213780D01*
X30521277Y-40209656D01*
X30538447Y-40115960D01*
X30548562Y-40060763D01*
X30549961Y-40054810D01*
X30589387Y-39917956D01*
X30633270Y-39777135D01*
X30635158Y-39771921D01*
X30690397Y-39638565D01*
X30750343Y-39505370D01*
X30752599Y-39500861D01*
X30822958Y-39373557D01*
X30898228Y-39249044D01*
X30900693Y-39245286D01*
X30984461Y-39127226D01*
X30986145Y-39124967D01*
X31074932Y-39011638D01*
X31077472Y-39008605D01*
X31174052Y-38900531D01*
X31176373Y-38898077D01*
X31278077Y-38796373D01*
X31280531Y-38794052D01*
X31388605Y-38697472D01*
X31391638Y-38694932D01*
X31504967Y-38606145D01*
X31507226Y-38604461D01*
X31625286Y-38520693D01*
X31629044Y-38518228D01*
X31753561Y-38442956D01*
X31880861Y-38372599D01*
X31885370Y-38370343D01*
X32018565Y-38310397D01*
X32151921Y-38255158D01*
X32157135Y-38253270D01*
X32297956Y-38209387D01*
X32434810Y-38169961D01*
X32440763Y-38168562D01*
X32523324Y-38153432D01*
X32589656Y-38141277D01*
X32637941Y-38133072D01*
X32725706Y-38118160D01*
X32732304Y-38117401D01*
X32904333Y-38106995D01*
X32990782Y-38102140D01*
X33018263Y-38100598D01*
X33021740Y-38100500D01*
X149858260Y-38100500D01*
X149861737Y-38100598D01*
G37*
%TD.AperFunction*%
%TA.AperFunction,Conductor*%
G36*
X103239229Y-52089685D02*
G01*
X103259871Y-52106319D01*
X103880883Y-52727330D01*
X103914368Y-52788653D01*
X103909384Y-52858344D01*
X103872358Y-52907805D01*
X103873602Y-52909241D01*
X103758238Y-53009202D01*
X103723046Y-53063962D01*
X103670242Y-53109717D01*
X103601083Y-53119660D01*
X103537528Y-53090634D01*
X103531050Y-53084603D01*
X102916564Y-52470116D01*
X102816267Y-52623632D01*
X102716412Y-52851282D01*
X102655387Y-53092261D01*
X102655385Y-53092270D01*
X102634858Y-53339994D01*
X102634858Y-53340005D01*
X102655385Y-53587729D01*
X102655387Y-53587738D01*
X102716412Y-53828717D01*
X102816266Y-54056364D01*
X102916564Y-54209882D01*
X103531050Y-53595395D01*
X103592373Y-53561910D01*
X103662064Y-53566894D01*
X103717998Y-53608765D01*
X103723039Y-53616025D01*
X103758239Y-53670797D01*
X103758239Y-53670798D01*
X103873602Y-53770759D01*
X103871293Y-53773422D01*
X103906006Y-53813499D01*
X103915935Y-53882660D01*
X103886898Y-53946210D01*
X103880882Y-53952669D01*
X103269942Y-54563609D01*
X103316768Y-54600055D01*
X103316770Y-54600056D01*
X103454070Y-54674359D01*
X103503661Y-54723578D01*
X103518769Y-54791795D01*
X103494599Y-54857351D01*
X103460331Y-54888841D01*
X103413436Y-54917877D01*
X103249020Y-55067761D01*
X103114943Y-55245308D01*
X103114938Y-55245316D01*
X103015775Y-55444461D01*
X103015769Y-55444476D01*
X102954885Y-55658462D01*
X102954884Y-55658464D01*
X102934357Y-55879999D01*
X102934357Y-55880000D01*
X102954884Y-56101535D01*
X102954885Y-56101537D01*
X103015769Y-56315523D01*
X103015775Y-56315538D01*
X103114938Y-56514683D01*
X103114943Y-56514691D01*
X103249020Y-56692238D01*
X103413437Y-56842123D01*
X103413439Y-56842125D01*
X103602595Y-56959245D01*
X103602596Y-56959245D01*
X103602599Y-56959247D01*
X103796524Y-57034374D01*
X103851924Y-57076946D01*
X103875515Y-57142713D01*
X103859804Y-57210793D01*
X103809780Y-57259572D01*
X103796533Y-57265622D01*
X103648488Y-57322975D01*
X103602601Y-57340752D01*
X103602595Y-57340754D01*
X103413439Y-57457874D01*
X103413437Y-57457876D01*
X103249020Y-57607761D01*
X103114943Y-57785308D01*
X103114938Y-57785316D01*
X103015775Y-57984461D01*
X103015769Y-57984476D01*
X102954885Y-58198462D01*
X102954884Y-58198464D01*
X102934357Y-58419999D01*
X102934357Y-58420000D01*
X102954884Y-58641535D01*
X102954885Y-58641537D01*
X103015769Y-58855523D01*
X103015775Y-58855538D01*
X103114938Y-59054683D01*
X103114943Y-59054691D01*
X103249020Y-59232238D01*
X103413437Y-59382123D01*
X103413439Y-59382125D01*
X103602595Y-59499245D01*
X103602596Y-59499245D01*
X103602599Y-59499247D01*
X103796524Y-59574374D01*
X103851924Y-59616946D01*
X103875515Y-59682713D01*
X103859804Y-59750793D01*
X103809780Y-59799572D01*
X103796533Y-59805622D01*
X103648861Y-59862831D01*
X103602601Y-59880752D01*
X103602595Y-59880754D01*
X103413439Y-59997874D01*
X103413437Y-59997876D01*
X103249020Y-60147761D01*
X103114943Y-60325308D01*
X103114938Y-60325316D01*
X103015775Y-60524461D01*
X103015769Y-60524476D01*
X102954885Y-60738462D01*
X102954884Y-60738464D01*
X102934357Y-60959999D01*
X102934357Y-60960000D01*
X102954884Y-61181535D01*
X102954885Y-61181537D01*
X103015769Y-61395523D01*
X103015775Y-61395538D01*
X103114938Y-61594683D01*
X103114943Y-61594691D01*
X103249020Y-61772238D01*
X103413437Y-61922123D01*
X103413439Y-61922125D01*
X103602595Y-62039245D01*
X103602596Y-62039245D01*
X103602599Y-62039247D01*
X103796524Y-62114374D01*
X103851924Y-62156946D01*
X103875515Y-62222713D01*
X103859804Y-62290793D01*
X103809780Y-62339572D01*
X103796533Y-62345622D01*
X103648488Y-62402975D01*
X103602601Y-62420752D01*
X103602595Y-62420754D01*
X103413439Y-62537874D01*
X103413437Y-62537876D01*
X103249020Y-62687761D01*
X103114943Y-62865308D01*
X103114938Y-62865316D01*
X103015775Y-63064461D01*
X103015769Y-63064476D01*
X102954885Y-63278462D01*
X102954884Y-63278464D01*
X102934357Y-63499999D01*
X102934357Y-63500000D01*
X102954884Y-63721535D01*
X102954885Y-63721537D01*
X103015769Y-63935523D01*
X103015775Y-63935538D01*
X103114938Y-64134683D01*
X103114943Y-64134691D01*
X103249020Y-64312238D01*
X103413437Y-64462123D01*
X103413439Y-64462125D01*
X103602595Y-64579245D01*
X103602596Y-64579245D01*
X103602599Y-64579247D01*
X103796524Y-64654374D01*
X103851924Y-64696946D01*
X103875515Y-64762713D01*
X103859804Y-64830793D01*
X103809780Y-64879572D01*
X103796533Y-64885622D01*
X103648488Y-64942975D01*
X103602601Y-64960752D01*
X103602595Y-64960754D01*
X103413439Y-65077874D01*
X103413437Y-65077876D01*
X103249020Y-65227761D01*
X103114943Y-65405308D01*
X103114938Y-65405316D01*
X103015775Y-65604461D01*
X103015769Y-65604476D01*
X102954885Y-65818462D01*
X102954884Y-65818464D01*
X102934357Y-66039999D01*
X102934357Y-66040000D01*
X102954884Y-66261535D01*
X102954885Y-66261537D01*
X103015769Y-66475523D01*
X103015775Y-66475538D01*
X103114938Y-66674683D01*
X103114943Y-66674691D01*
X103249020Y-66852238D01*
X103413437Y-67002123D01*
X103413439Y-67002125D01*
X103602595Y-67119245D01*
X103602596Y-67119245D01*
X103602599Y-67119247D01*
X103796524Y-67194374D01*
X103851924Y-67236946D01*
X103875515Y-67302713D01*
X103859804Y-67370793D01*
X103809780Y-67419572D01*
X103796533Y-67425622D01*
X103648488Y-67482975D01*
X103602601Y-67500752D01*
X103602595Y-67500754D01*
X103413439Y-67617874D01*
X103413437Y-67617876D01*
X103249020Y-67767761D01*
X103114943Y-67945308D01*
X103114938Y-67945316D01*
X103015775Y-68144461D01*
X103015769Y-68144476D01*
X102954885Y-68358462D01*
X102954884Y-68358464D01*
X102934357Y-68579999D01*
X102934357Y-68580000D01*
X102954884Y-68801535D01*
X102954885Y-68801537D01*
X103015769Y-69015523D01*
X103015775Y-69015538D01*
X103114938Y-69214683D01*
X103114943Y-69214691D01*
X103249020Y-69392238D01*
X103413437Y-69542123D01*
X103413439Y-69542125D01*
X103602595Y-69659245D01*
X103602596Y-69659245D01*
X103602599Y-69659247D01*
X103796524Y-69734374D01*
X103851924Y-69776946D01*
X103875515Y-69842713D01*
X103859804Y-69910793D01*
X103809780Y-69959572D01*
X103796533Y-69965622D01*
X103648488Y-70022975D01*
X103602601Y-70040752D01*
X103602595Y-70040754D01*
X103413439Y-70157874D01*
X103413437Y-70157876D01*
X103249020Y-70307761D01*
X103114943Y-70485308D01*
X103114938Y-70485316D01*
X103015775Y-70684461D01*
X103015769Y-70684476D01*
X102954885Y-70898462D01*
X102954884Y-70898464D01*
X102934357Y-71119999D01*
X102934357Y-71120000D01*
X102954884Y-71341535D01*
X102954885Y-71341537D01*
X103015769Y-71555523D01*
X103015775Y-71555538D01*
X103114938Y-71754683D01*
X103114943Y-71754691D01*
X103249020Y-71932238D01*
X103413437Y-72082123D01*
X103413439Y-72082125D01*
X103602595Y-72199245D01*
X103602596Y-72199245D01*
X103602599Y-72199247D01*
X103796524Y-72274374D01*
X103851924Y-72316946D01*
X103875515Y-72382713D01*
X103859804Y-72450793D01*
X103809780Y-72499572D01*
X103796533Y-72505622D01*
X103648488Y-72562975D01*
X103602601Y-72580752D01*
X103602595Y-72580754D01*
X103413439Y-72697874D01*
X103413437Y-72697876D01*
X103249020Y-72847761D01*
X103114943Y-73025308D01*
X103114938Y-73025316D01*
X103015775Y-73224461D01*
X103015769Y-73224476D01*
X102954885Y-73438462D01*
X102954884Y-73438464D01*
X102934357Y-73659999D01*
X102934357Y-73660000D01*
X102954884Y-73881535D01*
X102954885Y-73881537D01*
X103015769Y-74095523D01*
X103015775Y-74095538D01*
X103114938Y-74294683D01*
X103114943Y-74294691D01*
X103249020Y-74472238D01*
X103413437Y-74622123D01*
X103413439Y-74622125D01*
X103602595Y-74739245D01*
X103602596Y-74739245D01*
X103602599Y-74739247D01*
X103796524Y-74814374D01*
X103851924Y-74856946D01*
X103875515Y-74922713D01*
X103859804Y-74990793D01*
X103809780Y-75039572D01*
X103796533Y-75045622D01*
X103648488Y-75102975D01*
X103602601Y-75120752D01*
X103602595Y-75120754D01*
X103413439Y-75237874D01*
X103413437Y-75237876D01*
X103249020Y-75387761D01*
X103114943Y-75565308D01*
X103114938Y-75565316D01*
X103015775Y-75764461D01*
X103015769Y-75764476D01*
X102954885Y-75978462D01*
X102954884Y-75978464D01*
X102934357Y-76199999D01*
X102934357Y-76200000D01*
X102954884Y-76421535D01*
X102954885Y-76421537D01*
X103015769Y-76635523D01*
X103015775Y-76635538D01*
X103114938Y-76834683D01*
X103114943Y-76834691D01*
X103249020Y-77012238D01*
X103413437Y-77162123D01*
X103413439Y-77162125D01*
X103602595Y-77279245D01*
X103602596Y-77279245D01*
X103602599Y-77279247D01*
X103796524Y-77354374D01*
X103851924Y-77396946D01*
X103875515Y-77462713D01*
X103859804Y-77530793D01*
X103809780Y-77579572D01*
X103796533Y-77585622D01*
X103649757Y-77642484D01*
X103602601Y-77660752D01*
X103602595Y-77660754D01*
X103413439Y-77777874D01*
X103413437Y-77777876D01*
X103249020Y-77927761D01*
X103114943Y-78105308D01*
X103114938Y-78105316D01*
X103015775Y-78304461D01*
X103015769Y-78304476D01*
X102954885Y-78518462D01*
X102954884Y-78518464D01*
X102934357Y-78739999D01*
X102934357Y-78740000D01*
X102954884Y-78961535D01*
X102954885Y-78961537D01*
X103015769Y-79175523D01*
X103015775Y-79175538D01*
X103114938Y-79374683D01*
X103114943Y-79374691D01*
X103249020Y-79552238D01*
X103413437Y-79702123D01*
X103413439Y-79702125D01*
X103602595Y-79819245D01*
X103602596Y-79819245D01*
X103602599Y-79819247D01*
X103796524Y-79894374D01*
X103851924Y-79936946D01*
X103875515Y-80002713D01*
X103859804Y-80070793D01*
X103809780Y-80119572D01*
X103796533Y-80125622D01*
X103648488Y-80182975D01*
X103602601Y-80200752D01*
X103602595Y-80200754D01*
X103413439Y-80317874D01*
X103413437Y-80317876D01*
X103249020Y-80467761D01*
X103114943Y-80645308D01*
X103114938Y-80645316D01*
X103015775Y-80844461D01*
X103015769Y-80844476D01*
X102954885Y-81058462D01*
X102954884Y-81058464D01*
X102934357Y-81279999D01*
X102934357Y-81280000D01*
X102954884Y-81501535D01*
X102954885Y-81501537D01*
X103015769Y-81715523D01*
X103015775Y-81715538D01*
X103114938Y-81914683D01*
X103114943Y-81914691D01*
X103249020Y-82092238D01*
X103413437Y-82242123D01*
X103413439Y-82242125D01*
X103602595Y-82359245D01*
X103602596Y-82359245D01*
X103602599Y-82359247D01*
X103796524Y-82434374D01*
X103851924Y-82476946D01*
X103875515Y-82542713D01*
X103859804Y-82610793D01*
X103809780Y-82659572D01*
X103796533Y-82665622D01*
X103648488Y-82722975D01*
X103602601Y-82740752D01*
X103602595Y-82740754D01*
X103413439Y-82857874D01*
X103413437Y-82857876D01*
X103249020Y-83007761D01*
X103114943Y-83185308D01*
X103114938Y-83185316D01*
X103015775Y-83384461D01*
X103015769Y-83384476D01*
X102954885Y-83598462D01*
X102954884Y-83598464D01*
X102934357Y-83819999D01*
X102934357Y-83820000D01*
X102954884Y-84041535D01*
X102954885Y-84041537D01*
X103015769Y-84255523D01*
X103015775Y-84255538D01*
X103114938Y-84454683D01*
X103114943Y-84454691D01*
X103249020Y-84632238D01*
X103413437Y-84782123D01*
X103413439Y-84782125D01*
X103602595Y-84899245D01*
X103602596Y-84899245D01*
X103602599Y-84899247D01*
X103796524Y-84974374D01*
X103851924Y-85016946D01*
X103875515Y-85082713D01*
X103859804Y-85150793D01*
X103809780Y-85199572D01*
X103796533Y-85205622D01*
X103648488Y-85262975D01*
X103602601Y-85280752D01*
X103602595Y-85280754D01*
X103413439Y-85397874D01*
X103413437Y-85397876D01*
X103249020Y-85547761D01*
X103114943Y-85725308D01*
X103114938Y-85725316D01*
X103015775Y-85924461D01*
X103015769Y-85924476D01*
X102954885Y-86138462D01*
X102954884Y-86138464D01*
X102934357Y-86359999D01*
X102934357Y-86360000D01*
X102954884Y-86581535D01*
X102954885Y-86581537D01*
X103015769Y-86795523D01*
X103015775Y-86795538D01*
X103114938Y-86994683D01*
X103114943Y-86994691D01*
X103249020Y-87172238D01*
X103413437Y-87322123D01*
X103413439Y-87322125D01*
X103602595Y-87439245D01*
X103602596Y-87439245D01*
X103602599Y-87439247D01*
X103796524Y-87514374D01*
X103851924Y-87556946D01*
X103875515Y-87622713D01*
X103859804Y-87690793D01*
X103809780Y-87739572D01*
X103796533Y-87745622D01*
X103672761Y-87793572D01*
X103602601Y-87820752D01*
X103602595Y-87820754D01*
X103413439Y-87937874D01*
X103413437Y-87937876D01*
X103249020Y-88087761D01*
X103114943Y-88265308D01*
X103114938Y-88265316D01*
X103015775Y-88464461D01*
X103015769Y-88464476D01*
X102954885Y-88678462D01*
X102954884Y-88678464D01*
X102934357Y-88899999D01*
X102934357Y-88900000D01*
X102954884Y-89121535D01*
X102954885Y-89121537D01*
X103015769Y-89335523D01*
X103015775Y-89335538D01*
X103114938Y-89534683D01*
X103114943Y-89534691D01*
X103249020Y-89712238D01*
X103413437Y-89862123D01*
X103413439Y-89862125D01*
X103602595Y-89979245D01*
X103602596Y-89979245D01*
X103602599Y-89979247D01*
X103796524Y-90054374D01*
X103851924Y-90096946D01*
X103875515Y-90162713D01*
X103859804Y-90230793D01*
X103809780Y-90279572D01*
X103796533Y-90285622D01*
X103648488Y-90342975D01*
X103602601Y-90360752D01*
X103602595Y-90360754D01*
X103413439Y-90477874D01*
X103413437Y-90477876D01*
X103249020Y-90627761D01*
X103114943Y-90805308D01*
X103114938Y-90805316D01*
X103015775Y-91004461D01*
X103015769Y-91004476D01*
X102954885Y-91218462D01*
X102954884Y-91218464D01*
X102934357Y-91439999D01*
X102934357Y-91440000D01*
X102954884Y-91661535D01*
X102954885Y-91661537D01*
X103015769Y-91875523D01*
X103015775Y-91875538D01*
X103114938Y-92074683D01*
X103114943Y-92074691D01*
X103249020Y-92252238D01*
X103413437Y-92402123D01*
X103413439Y-92402125D01*
X103602595Y-92519245D01*
X103602596Y-92519245D01*
X103602599Y-92519247D01*
X103796524Y-92594374D01*
X103851924Y-92636946D01*
X103875515Y-92702713D01*
X103859804Y-92770793D01*
X103809780Y-92819572D01*
X103796533Y-92825622D01*
X103648488Y-92882975D01*
X103602601Y-92900752D01*
X103602595Y-92900754D01*
X103413439Y-93017874D01*
X103413437Y-93017876D01*
X103249020Y-93167761D01*
X103114943Y-93345308D01*
X103114938Y-93345316D01*
X103015775Y-93544461D01*
X103015769Y-93544476D01*
X102954885Y-93758462D01*
X102954884Y-93758464D01*
X102934357Y-93979999D01*
X102934357Y-93980000D01*
X102954884Y-94201535D01*
X102954885Y-94201537D01*
X103015769Y-94415523D01*
X103015775Y-94415538D01*
X103114938Y-94614683D01*
X103114943Y-94614691D01*
X103249020Y-94792238D01*
X103413437Y-94942123D01*
X103413439Y-94942125D01*
X103602595Y-95059245D01*
X103602596Y-95059245D01*
X103602599Y-95059247D01*
X103796524Y-95134374D01*
X103851924Y-95176946D01*
X103875515Y-95242713D01*
X103859804Y-95310793D01*
X103809780Y-95359572D01*
X103796533Y-95365622D01*
X103648488Y-95422975D01*
X103602601Y-95440752D01*
X103602595Y-95440754D01*
X103413439Y-95557874D01*
X103413437Y-95557876D01*
X103249020Y-95707761D01*
X103114943Y-95885308D01*
X103114938Y-95885316D01*
X103015775Y-96084461D01*
X103015769Y-96084476D01*
X102954885Y-96298462D01*
X102954884Y-96298464D01*
X102934357Y-96519999D01*
X102934357Y-96520000D01*
X102954884Y-96741535D01*
X102954885Y-96741537D01*
X103015769Y-96955523D01*
X103015775Y-96955538D01*
X103114938Y-97154683D01*
X103114943Y-97154691D01*
X103249020Y-97332238D01*
X103413437Y-97482123D01*
X103413439Y-97482125D01*
X103602595Y-97599245D01*
X103602596Y-97599245D01*
X103602599Y-97599247D01*
X103796524Y-97674374D01*
X103851924Y-97716946D01*
X103875515Y-97782713D01*
X103859804Y-97850793D01*
X103809780Y-97899572D01*
X103796533Y-97905622D01*
X103648853Y-97962834D01*
X103602601Y-97980752D01*
X103602595Y-97980754D01*
X103413439Y-98097874D01*
X103413437Y-98097876D01*
X103249020Y-98247761D01*
X103114943Y-98425308D01*
X103114938Y-98425316D01*
X103015775Y-98624461D01*
X103015769Y-98624476D01*
X102954885Y-98838462D01*
X102954884Y-98838464D01*
X102934357Y-99059999D01*
X102934357Y-99060000D01*
X102954884Y-99281535D01*
X102954885Y-99281537D01*
X103015769Y-99495523D01*
X103015775Y-99495538D01*
X103114938Y-99694683D01*
X103114943Y-99694691D01*
X103249020Y-99872238D01*
X103413437Y-100022123D01*
X103413439Y-100022125D01*
X103602595Y-100139245D01*
X103602596Y-100139245D01*
X103602599Y-100139247D01*
X103796524Y-100214374D01*
X103851924Y-100256946D01*
X103875515Y-100322713D01*
X103859804Y-100390793D01*
X103809780Y-100439572D01*
X103796533Y-100445622D01*
X103648488Y-100502975D01*
X103602601Y-100520752D01*
X103602595Y-100520754D01*
X103413439Y-100637874D01*
X103413437Y-100637876D01*
X103249020Y-100787761D01*
X103114943Y-100965308D01*
X103114938Y-100965316D01*
X103015775Y-101164461D01*
X103015769Y-101164476D01*
X102954885Y-101378462D01*
X102954884Y-101378464D01*
X102934357Y-101599999D01*
X102934357Y-101600000D01*
X102954884Y-101821535D01*
X102954885Y-101821537D01*
X103015769Y-102035523D01*
X103015775Y-102035538D01*
X103114938Y-102234683D01*
X103114943Y-102234691D01*
X103249020Y-102412238D01*
X103413436Y-102562123D01*
X103420799Y-102566682D01*
X103460330Y-102591158D01*
X103506966Y-102643185D01*
X103518070Y-102712166D01*
X103490118Y-102776201D01*
X103454071Y-102805639D01*
X103316765Y-102879945D01*
X103269942Y-102916388D01*
X103269942Y-102916390D01*
X103880883Y-103527330D01*
X103914368Y-103588653D01*
X103909384Y-103658344D01*
X103872358Y-103707805D01*
X103873602Y-103709241D01*
X103758238Y-103809202D01*
X103723046Y-103863962D01*
X103670242Y-103909717D01*
X103601083Y-103919660D01*
X103537528Y-103890634D01*
X103531050Y-103884603D01*
X102916564Y-103270116D01*
X102816267Y-103423632D01*
X102716412Y-103651282D01*
X102655387Y-103892261D01*
X102655385Y-103892270D01*
X102634858Y-104139994D01*
X102634858Y-104140005D01*
X102655385Y-104387729D01*
X102655387Y-104387738D01*
X102716412Y-104628717D01*
X102816266Y-104856364D01*
X102916564Y-105009882D01*
X103531050Y-104395395D01*
X103592373Y-104361910D01*
X103662064Y-104366894D01*
X103717998Y-104408765D01*
X103723039Y-104416025D01*
X103758239Y-104470798D01*
X103829234Y-104532315D01*
X103873602Y-104570759D01*
X103871293Y-104573422D01*
X103906006Y-104613499D01*
X103915935Y-104682660D01*
X103886898Y-104746210D01*
X103880882Y-104752669D01*
X103269941Y-105363609D01*
X103273515Y-105421168D01*
X103273515Y-105428859D01*
X103271805Y-105456389D01*
X103882747Y-106067330D01*
X103916232Y-106128653D01*
X103911248Y-106198344D01*
X103874222Y-106247805D01*
X103875466Y-106249241D01*
X103760102Y-106349202D01*
X103724910Y-106403962D01*
X103672106Y-106449717D01*
X103602947Y-106459660D01*
X103539392Y-106430634D01*
X103532914Y-106424603D01*
X102918428Y-105810116D01*
X102818131Y-105963632D01*
X102718276Y-106191282D01*
X102657251Y-106432261D01*
X102657249Y-106432270D01*
X102636722Y-106679994D01*
X102636722Y-106680005D01*
X102657249Y-106927729D01*
X102657251Y-106927738D01*
X102718276Y-107168717D01*
X102818130Y-107396364D01*
X102918428Y-107549882D01*
X103532914Y-106935395D01*
X103594237Y-106901910D01*
X103663928Y-106906894D01*
X103719862Y-106948765D01*
X103724903Y-106956025D01*
X103760102Y-107010797D01*
X103760103Y-107010798D01*
X103875466Y-107110759D01*
X103873157Y-107113422D01*
X103907870Y-107153499D01*
X103917799Y-107222660D01*
X103888762Y-107286210D01*
X103882746Y-107292669D01*
X103271806Y-107903609D01*
X103318632Y-107940055D01*
X103318634Y-107940056D01*
X103537249Y-108058364D01*
X103537260Y-108058369D01*
X103772371Y-108139083D01*
X103779007Y-108140191D01*
X103841893Y-108170641D01*
X103878332Y-108230256D01*
X103876757Y-108300108D01*
X103837668Y-108358020D01*
X103773474Y-108385604D01*
X103758598Y-108386500D01*
X101532188Y-108386500D01*
X101465149Y-108366815D01*
X101444507Y-108350181D01*
X91293819Y-98199493D01*
X91260334Y-98138170D01*
X91257500Y-98111812D01*
X91257500Y-85106912D01*
X91257736Y-85101506D01*
X91261263Y-85061191D01*
X91250785Y-85022090D01*
X91249618Y-85016830D01*
X91242588Y-84976955D01*
X91242587Y-84976953D01*
X91240760Y-84971933D01*
X91233820Y-84955176D01*
X91231554Y-84950319D01*
X91231554Y-84950316D01*
X91208339Y-84917162D01*
X91205433Y-84912599D01*
X91185196Y-84877548D01*
X91185195Y-84877547D01*
X91185194Y-84877545D01*
X91154177Y-84851518D01*
X91150193Y-84847867D01*
X87988176Y-81685850D01*
X84824119Y-78521793D01*
X84820474Y-78517814D01*
X84794456Y-78486807D01*
X84794455Y-78486806D01*
X84783058Y-78480226D01*
X84759392Y-78466561D01*
X84754831Y-78463655D01*
X84741687Y-78454452D01*
X84721684Y-78440446D01*
X84721681Y-78440445D01*
X84716861Y-78438197D01*
X84700055Y-78431235D01*
X84695043Y-78429411D01*
X84655190Y-78422383D01*
X84649910Y-78421212D01*
X84610808Y-78410735D01*
X84575892Y-78413790D01*
X84570481Y-78414264D01*
X84565078Y-78414500D01*
X79989175Y-78414500D01*
X79922136Y-78394815D01*
X79876381Y-78342011D01*
X79869909Y-78324435D01*
X79864231Y-78304480D01*
X79864229Y-78304472D01*
X79860441Y-78296866D01*
X79765063Y-78105320D01*
X79765056Y-78105308D01*
X79630979Y-77927761D01*
X79466562Y-77777876D01*
X79466560Y-77777874D01*
X79277404Y-77660754D01*
X79277395Y-77660750D01*
X79183956Y-77624552D01*
X79083475Y-77585625D01*
X79028075Y-77543054D01*
X79004484Y-77477288D01*
X79020195Y-77409207D01*
X79070219Y-77360428D01*
X79083466Y-77354377D01*
X79277401Y-77279247D01*
X79466562Y-77162124D01*
X79606282Y-77034751D01*
X79630979Y-77012238D01*
X79637654Y-77003400D01*
X79765058Y-76834689D01*
X79864229Y-76635528D01*
X79925115Y-76421536D01*
X79945643Y-76200000D01*
X79925115Y-75978464D01*
X79864229Y-75764472D01*
X79850304Y-75736507D01*
X79765061Y-75565316D01*
X79765056Y-75565308D01*
X79630979Y-75387761D01*
X79466562Y-75237876D01*
X79466560Y-75237874D01*
X79277404Y-75120754D01*
X79277395Y-75120750D01*
X79183956Y-75084552D01*
X79083475Y-75045625D01*
X79028075Y-75003054D01*
X79004484Y-74937288D01*
X79020195Y-74869207D01*
X79070219Y-74820428D01*
X79083466Y-74814377D01*
X79277401Y-74739247D01*
X79466562Y-74622124D01*
X79630981Y-74472236D01*
X79765058Y-74294689D01*
X79864229Y-74095528D01*
X79925115Y-73881536D01*
X79945643Y-73660000D01*
X79925115Y-73438464D01*
X79864229Y-73224472D01*
X79864224Y-73224461D01*
X79765061Y-73025316D01*
X79765056Y-73025308D01*
X79630979Y-72847761D01*
X79466562Y-72697876D01*
X79466560Y-72697874D01*
X79277404Y-72580754D01*
X79277395Y-72580750D01*
X79148868Y-72530959D01*
X79083475Y-72505625D01*
X79028075Y-72463054D01*
X79004484Y-72397288D01*
X79020195Y-72329207D01*
X79070219Y-72280428D01*
X79083466Y-72274377D01*
X79277401Y-72199247D01*
X79466562Y-72082124D01*
X79630981Y-71932236D01*
X79765058Y-71754689D01*
X79864229Y-71555528D01*
X79925115Y-71341536D01*
X79945643Y-71120000D01*
X79942973Y-71091191D01*
X79925115Y-70898464D01*
X79925114Y-70898462D01*
X79919800Y-70879786D01*
X79864229Y-70684472D01*
X79864224Y-70684461D01*
X79765061Y-70485316D01*
X79765056Y-70485308D01*
X79630979Y-70307761D01*
X79466562Y-70157876D01*
X79466560Y-70157874D01*
X79277404Y-70040754D01*
X79277395Y-70040750D01*
X79183956Y-70004552D01*
X79083475Y-69965625D01*
X79028075Y-69923054D01*
X79004484Y-69857288D01*
X79020195Y-69789207D01*
X79070219Y-69740428D01*
X79083466Y-69734377D01*
X79277401Y-69659247D01*
X79466562Y-69542124D01*
X79630981Y-69392236D01*
X79765058Y-69214689D01*
X79864229Y-69015528D01*
X79925115Y-68801536D01*
X79945643Y-68580000D01*
X79925115Y-68358464D01*
X79864229Y-68144472D01*
X79864224Y-68144461D01*
X79765061Y-67945316D01*
X79765056Y-67945308D01*
X79630979Y-67767761D01*
X79466562Y-67617876D01*
X79466560Y-67617874D01*
X79277404Y-67500754D01*
X79277395Y-67500750D01*
X79183956Y-67464552D01*
X79083475Y-67425625D01*
X79028075Y-67383054D01*
X79004484Y-67317288D01*
X79020195Y-67249207D01*
X79070219Y-67200428D01*
X79083466Y-67194377D01*
X79277401Y-67119247D01*
X79466562Y-67002124D01*
X79630981Y-66852236D01*
X79765058Y-66674689D01*
X79864229Y-66475528D01*
X79925115Y-66261536D01*
X79945643Y-66040000D01*
X79925115Y-65818464D01*
X79864229Y-65604472D01*
X79864224Y-65604461D01*
X79765061Y-65405316D01*
X79765056Y-65405308D01*
X79630979Y-65227761D01*
X79466562Y-65077876D01*
X79466560Y-65077874D01*
X79277404Y-64960754D01*
X79277395Y-64960750D01*
X79183956Y-64924552D01*
X79083475Y-64885625D01*
X79028075Y-64843054D01*
X79004484Y-64777288D01*
X79020195Y-64709207D01*
X79070219Y-64660428D01*
X79083466Y-64654377D01*
X79277401Y-64579247D01*
X79466562Y-64462124D01*
X79630981Y-64312236D01*
X79765058Y-64134689D01*
X79864229Y-63935528D01*
X79925115Y-63721536D01*
X79945643Y-63500000D01*
X79925115Y-63278464D01*
X79864229Y-63064472D01*
X79864224Y-63064461D01*
X79765061Y-62865316D01*
X79765056Y-62865308D01*
X79630979Y-62687761D01*
X79466562Y-62537876D01*
X79466560Y-62537874D01*
X79277404Y-62420754D01*
X79277395Y-62420750D01*
X79183956Y-62384552D01*
X79083475Y-62345625D01*
X79028075Y-62303054D01*
X79004484Y-62237288D01*
X79020195Y-62169207D01*
X79070219Y-62120428D01*
X79083466Y-62114377D01*
X79277401Y-62039247D01*
X79466562Y-61922124D01*
X79630981Y-61772236D01*
X79765058Y-61594689D01*
X79864229Y-61395528D01*
X79925115Y-61181536D01*
X79945643Y-60960000D01*
X79925115Y-60738464D01*
X79864229Y-60524472D01*
X79864224Y-60524461D01*
X79765061Y-60325316D01*
X79765056Y-60325308D01*
X79630979Y-60147761D01*
X79466562Y-59997876D01*
X79466560Y-59997874D01*
X79277404Y-59880754D01*
X79277395Y-59880750D01*
X79183956Y-59844552D01*
X79083475Y-59805625D01*
X79028075Y-59763054D01*
X79004484Y-59697288D01*
X79020195Y-59629207D01*
X79070219Y-59580428D01*
X79083466Y-59574377D01*
X79277401Y-59499247D01*
X79466562Y-59382124D01*
X79630981Y-59232236D01*
X79765058Y-59054689D01*
X79864229Y-58855528D01*
X79925115Y-58641536D01*
X79945643Y-58420000D01*
X79925115Y-58198464D01*
X79864229Y-57984472D01*
X79864224Y-57984461D01*
X79765061Y-57785316D01*
X79765056Y-57785308D01*
X79630979Y-57607761D01*
X79466562Y-57457876D01*
X79466560Y-57457874D01*
X79277404Y-57340754D01*
X79277395Y-57340750D01*
X79183956Y-57304552D01*
X79083475Y-57265625D01*
X79028075Y-57223054D01*
X79004484Y-57157288D01*
X79020195Y-57089207D01*
X79070219Y-57040428D01*
X79083466Y-57034377D01*
X79277401Y-56959247D01*
X79466562Y-56842124D01*
X79630981Y-56692236D01*
X79765058Y-56514689D01*
X79864229Y-56315528D01*
X79925115Y-56101536D01*
X79945643Y-55880000D01*
X79925115Y-55658464D01*
X79864229Y-55444472D01*
X79848485Y-55412853D01*
X79765061Y-55245316D01*
X79765056Y-55245308D01*
X79630979Y-55067761D01*
X79466562Y-54917876D01*
X79466560Y-54917874D01*
X79277404Y-54800754D01*
X79277395Y-54800750D01*
X79183956Y-54764552D01*
X79083475Y-54725625D01*
X79028075Y-54683054D01*
X79004484Y-54617288D01*
X79020195Y-54549207D01*
X79070219Y-54500428D01*
X79083466Y-54494377D01*
X79277401Y-54419247D01*
X79466562Y-54302124D01*
X79630981Y-54152236D01*
X79765058Y-53974689D01*
X79864229Y-53775528D01*
X79925115Y-53561536D01*
X79945643Y-53340000D01*
X79945642Y-53339994D01*
X79925115Y-53118464D01*
X79925114Y-53118462D01*
X79925007Y-53118087D01*
X79864229Y-52904472D01*
X79864224Y-52904461D01*
X79765061Y-52705316D01*
X79765056Y-52705308D01*
X79630979Y-52527761D01*
X79466562Y-52377876D01*
X79466560Y-52377874D01*
X79339862Y-52299427D01*
X79293226Y-52247400D01*
X79282122Y-52178418D01*
X79310075Y-52114383D01*
X79368210Y-52075627D01*
X79405139Y-52070000D01*
X103172190Y-52070000D01*
X103239229Y-52089685D01*
G37*
%TD.AperFunction*%
%TA.AperFunction,Conductor*%
G36*
X109843163Y-82108128D02*
G01*
X109903546Y-82157682D01*
X109903550Y-82157685D01*
X110086046Y-82255232D01*
X110284066Y-82315300D01*
X110284065Y-82315300D01*
X110302529Y-82317118D01*
X110490000Y-82335583D01*
X110695934Y-82315300D01*
X110893954Y-82255232D01*
X110893962Y-82255227D01*
X110895850Y-82254446D01*
X110896924Y-82254330D01*
X110899784Y-82253463D01*
X110899948Y-82254004D01*
X110965318Y-82246970D01*
X111027801Y-82278238D01*
X111030995Y-82281321D01*
X115318459Y-86568786D01*
X115351944Y-86630109D01*
X115346960Y-86699801D01*
X115305088Y-86755734D01*
X115246964Y-86779406D01*
X115172897Y-86789157D01*
X115159238Y-86790956D01*
X115159237Y-86790956D01*
X115013160Y-86851463D01*
X114887718Y-86947718D01*
X114791463Y-87073160D01*
X114730956Y-87219237D01*
X114730955Y-87219239D01*
X114710318Y-87375998D01*
X114710318Y-87376001D01*
X114730956Y-87532767D01*
X114732416Y-87538215D01*
X114732416Y-87590276D01*
X114733681Y-87590387D01*
X114732735Y-87601191D01*
X114736264Y-87641513D01*
X114736500Y-87646920D01*
X114736500Y-97603812D01*
X114716815Y-97670851D01*
X114700181Y-97691493D01*
X114201493Y-98190181D01*
X114140170Y-98223666D01*
X114113812Y-98226500D01*
X113256799Y-98226500D01*
X113189760Y-98206815D01*
X113158423Y-98177986D01*
X113116783Y-98123719D01*
X113116782Y-98123718D01*
X112991341Y-98027464D01*
X112984668Y-98024700D01*
X112845262Y-97966956D01*
X112845260Y-97966955D01*
X112688501Y-97946318D01*
X112688499Y-97946318D01*
X112531739Y-97966955D01*
X112531737Y-97966956D01*
X112385660Y-98027463D01*
X112260218Y-98123718D01*
X112163963Y-98249160D01*
X112103456Y-98395237D01*
X112103455Y-98395239D01*
X112082818Y-98551998D01*
X112082818Y-98552001D01*
X112103455Y-98708760D01*
X112103456Y-98708762D01*
X112157179Y-98838462D01*
X112163964Y-98854841D01*
X112260218Y-98980282D01*
X112385659Y-99076536D01*
X112531738Y-99137044D01*
X112610119Y-99147362D01*
X112688499Y-99157682D01*
X112688500Y-99157682D01*
X112688501Y-99157682D01*
X112740754Y-99150802D01*
X112845262Y-99137044D01*
X112991341Y-99076536D01*
X113116782Y-98980282D01*
X113158423Y-98926013D01*
X113214851Y-98884811D01*
X113256799Y-98877500D01*
X114230811Y-98877500D01*
X114297850Y-98897185D01*
X114343605Y-98949989D01*
X114353549Y-99019147D01*
X114324524Y-99082703D01*
X114318492Y-99089181D01*
X114081802Y-99325870D01*
X114077814Y-99329525D01*
X114046805Y-99355545D01*
X114026562Y-99390606D01*
X114023656Y-99395166D01*
X114000446Y-99428313D01*
X113998206Y-99433117D01*
X113991229Y-99449961D01*
X113989410Y-99454959D01*
X113982383Y-99494811D01*
X113981212Y-99500092D01*
X113970735Y-99539192D01*
X113974263Y-99579510D01*
X113974499Y-99584916D01*
X113974499Y-101667812D01*
X113954814Y-101734851D01*
X113938180Y-101755493D01*
X107343493Y-108350181D01*
X107282170Y-108383666D01*
X107255812Y-108386500D01*
X104525130Y-108386500D01*
X104458091Y-108366815D01*
X104412336Y-108314011D01*
X104402392Y-108244853D01*
X104431417Y-108181297D01*
X104490195Y-108143523D01*
X104504721Y-108140191D01*
X104511356Y-108139083D01*
X104746467Y-108058369D01*
X104746478Y-108058364D01*
X104965092Y-107940057D01*
X104965095Y-107940055D01*
X105011920Y-107903609D01*
X104400980Y-107292669D01*
X104367495Y-107231346D01*
X104372479Y-107161654D01*
X104409505Y-107112193D01*
X104408262Y-107110759D01*
X104424913Y-107096331D01*
X104523625Y-107010798D01*
X104558818Y-106956037D01*
X104611619Y-106910283D01*
X104680778Y-106900339D01*
X104744334Y-106929363D01*
X104750813Y-106935396D01*
X105365298Y-107549882D01*
X105465595Y-107396369D01*
X105565451Y-107168717D01*
X105626476Y-106927738D01*
X105626478Y-106927729D01*
X105647005Y-106680005D01*
X105647005Y-106679994D01*
X105626478Y-106432270D01*
X105626476Y-106432261D01*
X105565451Y-106191282D01*
X105465595Y-105963630D01*
X105365298Y-105810116D01*
X104750813Y-106424602D01*
X104689490Y-106458087D01*
X104619798Y-106453103D01*
X104563865Y-106411231D01*
X104558817Y-106403961D01*
X104523625Y-106349202D01*
X104414964Y-106255048D01*
X104414963Y-106255047D01*
X104408262Y-106249241D01*
X104410562Y-106246585D01*
X104375824Y-106206428D01*
X104365938Y-106137261D01*
X104395016Y-106073729D01*
X104400980Y-106067329D01*
X105011920Y-105456389D01*
X105008347Y-105398832D01*
X105008347Y-105391140D01*
X105010056Y-105363609D01*
X104399116Y-104752669D01*
X104365631Y-104691346D01*
X104370615Y-104621654D01*
X104407641Y-104572193D01*
X104406398Y-104570759D01*
X104413100Y-104564952D01*
X104521761Y-104470798D01*
X104556954Y-104416037D01*
X104609755Y-104370283D01*
X104678914Y-104360339D01*
X104742470Y-104389363D01*
X104748949Y-104395396D01*
X105363434Y-105009882D01*
X105463731Y-104856369D01*
X105563587Y-104628717D01*
X105624612Y-104387738D01*
X105624614Y-104387729D01*
X105645141Y-104140005D01*
X105645141Y-104139994D01*
X105624614Y-103892270D01*
X105624612Y-103892261D01*
X105563587Y-103651282D01*
X105463731Y-103423630D01*
X105363434Y-103270116D01*
X104748949Y-103884602D01*
X104687626Y-103918087D01*
X104617934Y-103913103D01*
X104562001Y-103871231D01*
X104556953Y-103863961D01*
X104521761Y-103809202D01*
X104483431Y-103775989D01*
X104413100Y-103715048D01*
X104413099Y-103715047D01*
X104406398Y-103709241D01*
X104408698Y-103706585D01*
X104373960Y-103666428D01*
X104364074Y-103597261D01*
X104393152Y-103533729D01*
X104399116Y-103527329D01*
X105010056Y-102916389D01*
X104963229Y-102879943D01*
X104825929Y-102805640D01*
X104776338Y-102756420D01*
X104761230Y-102688204D01*
X104785400Y-102622648D01*
X104819666Y-102591160D01*
X104866562Y-102562124D01*
X105007656Y-102433500D01*
X105030979Y-102412238D01*
X105034517Y-102407554D01*
X105165058Y-102234689D01*
X105264229Y-102035528D01*
X105325115Y-101821536D01*
X105345643Y-101600000D01*
X105325115Y-101378464D01*
X105264229Y-101164472D01*
X105245014Y-101125883D01*
X105165061Y-100965316D01*
X105165056Y-100965308D01*
X105030979Y-100787761D01*
X104866562Y-100637876D01*
X104866560Y-100637874D01*
X104677404Y-100520754D01*
X104677395Y-100520750D01*
X104564934Y-100477183D01*
X104483475Y-100445625D01*
X104428075Y-100403054D01*
X104404484Y-100337288D01*
X104420195Y-100269207D01*
X104470219Y-100220428D01*
X104483466Y-100214377D01*
X104677401Y-100139247D01*
X104866562Y-100022124D01*
X105030981Y-99872236D01*
X105165058Y-99694689D01*
X105168814Y-99687147D01*
X105264224Y-99495538D01*
X105264223Y-99495538D01*
X105264229Y-99495528D01*
X105325115Y-99281536D01*
X105345643Y-99060000D01*
X105341857Y-99019147D01*
X105325115Y-98838464D01*
X105325114Y-98838462D01*
X105321792Y-98826787D01*
X105264229Y-98624472D01*
X105228080Y-98551876D01*
X105215819Y-98483093D01*
X105242692Y-98418598D01*
X105251390Y-98408935D01*
X109533210Y-94127115D01*
X109537172Y-94123484D01*
X109568194Y-94097455D01*
X109588444Y-94062379D01*
X109591328Y-94057852D01*
X109614554Y-94024684D01*
X109614554Y-94024681D01*
X109616819Y-94019824D01*
X109623747Y-94003099D01*
X109625587Y-93998046D01*
X109625588Y-93998045D01*
X109632621Y-93958150D01*
X109633777Y-93952937D01*
X109644263Y-93913807D01*
X109640733Y-93873464D01*
X109640500Y-93868108D01*
X109640500Y-87534499D01*
X109660185Y-87467461D01*
X109712989Y-87421706D01*
X109764500Y-87410500D01*
X111359750Y-87410500D01*
X111359751Y-87410499D01*
X111374568Y-87407552D01*
X111418229Y-87398868D01*
X111418229Y-87398867D01*
X111418231Y-87398867D01*
X111484552Y-87354552D01*
X111528867Y-87288231D01*
X111528867Y-87288229D01*
X111528868Y-87288229D01*
X111540499Y-87229752D01*
X111540500Y-87229750D01*
X111540500Y-85490249D01*
X111540499Y-85490247D01*
X111528868Y-85431770D01*
X111528867Y-85431769D01*
X111484552Y-85365447D01*
X111418230Y-85321132D01*
X111418229Y-85321131D01*
X111359752Y-85309500D01*
X111359748Y-85309500D01*
X109764500Y-85309500D01*
X109697461Y-85289815D01*
X109651706Y-85237011D01*
X109640500Y-85185500D01*
X109640500Y-84743982D01*
X109660185Y-84676943D01*
X109712989Y-84631188D01*
X109782147Y-84621244D01*
X109843165Y-84648129D01*
X109903546Y-84697682D01*
X109903550Y-84697685D01*
X110086046Y-84795232D01*
X110284066Y-84855300D01*
X110284065Y-84855300D01*
X110302529Y-84857118D01*
X110490000Y-84875583D01*
X110695934Y-84855300D01*
X110893954Y-84795232D01*
X111076450Y-84697685D01*
X111236410Y-84566410D01*
X111367685Y-84406450D01*
X111465232Y-84223954D01*
X111525300Y-84025934D01*
X111545583Y-83820000D01*
X111525300Y-83614066D01*
X111465232Y-83416046D01*
X111367685Y-83233550D01*
X111315702Y-83170209D01*
X111236410Y-83073589D01*
X111076452Y-82942317D01*
X111076453Y-82942317D01*
X111076450Y-82942315D01*
X110893954Y-82844768D01*
X110695934Y-82784700D01*
X110695932Y-82784699D01*
X110695934Y-82784699D01*
X110490000Y-82764417D01*
X110284067Y-82784699D01*
X110086043Y-82844769D01*
X109990167Y-82896017D01*
X109903550Y-82942315D01*
X109903548Y-82942316D01*
X109903547Y-82942317D01*
X109843162Y-82991872D01*
X109778851Y-83019184D01*
X109709984Y-83007391D01*
X109658425Y-82960238D01*
X109640499Y-82896020D01*
X109640500Y-82203978D01*
X109660184Y-82136943D01*
X109712988Y-82091188D01*
X109782146Y-82081244D01*
X109843163Y-82108128D01*
G37*
%TD.AperFunction*%
%TA.AperFunction,Conductor*%
G36*
X76389765Y-98163073D02*
G01*
X76445698Y-98204945D01*
X76470115Y-98270409D01*
X76455263Y-98338682D01*
X76453816Y-98341258D01*
X76434562Y-98374605D01*
X76431656Y-98379166D01*
X76408446Y-98412313D01*
X76406206Y-98417117D01*
X76399229Y-98433961D01*
X76397410Y-98438959D01*
X76390383Y-98478811D01*
X76389212Y-98484091D01*
X76378735Y-98523191D01*
X76382264Y-98563513D01*
X76382500Y-98568920D01*
X76382500Y-99635811D01*
X76362815Y-99702850D01*
X76346181Y-99723492D01*
X75085493Y-100984181D01*
X75024170Y-101017666D01*
X74997812Y-101020500D01*
X67887189Y-101020500D01*
X67820150Y-101000815D01*
X67774395Y-100948011D01*
X67764451Y-100878853D01*
X67793476Y-100815297D01*
X67799508Y-100808819D01*
X67916508Y-100691819D01*
X67977831Y-100658334D01*
X68004189Y-100655500D01*
X73643078Y-100655500D01*
X73648481Y-100655735D01*
X73688807Y-100659264D01*
X73727940Y-100648777D01*
X73733162Y-100647619D01*
X73773045Y-100640588D01*
X73773050Y-100640584D01*
X73778099Y-100638747D01*
X73794824Y-100631819D01*
X73799681Y-100629554D01*
X73799684Y-100629554D01*
X73832841Y-100606335D01*
X73837390Y-100603438D01*
X73872455Y-100583194D01*
X73898481Y-100552176D01*
X73902122Y-100548202D01*
X76258752Y-98191572D01*
X76320073Y-98158089D01*
X76389765Y-98163073D01*
G37*
%TD.AperFunction*%
%TA.AperFunction,Conductor*%
G36*
X78217723Y-74745116D02*
G01*
X78219088Y-74745634D01*
X78396524Y-74814374D01*
X78451925Y-74856946D01*
X78475515Y-74922713D01*
X78459804Y-74990793D01*
X78409780Y-75039572D01*
X78396533Y-75045622D01*
X78248488Y-75102975D01*
X78202601Y-75120752D01*
X78202595Y-75120754D01*
X78013439Y-75237874D01*
X78013437Y-75237876D01*
X77849020Y-75387761D01*
X77714943Y-75565308D01*
X77714938Y-75565316D01*
X77615775Y-75764461D01*
X77615769Y-75764476D01*
X77554885Y-75978462D01*
X77554884Y-75978464D01*
X77534357Y-76199999D01*
X77534357Y-76200000D01*
X77554884Y-76421535D01*
X77554885Y-76421537D01*
X77615769Y-76635523D01*
X77615775Y-76635538D01*
X77714938Y-76834683D01*
X77714943Y-76834691D01*
X77849020Y-77012238D01*
X78013437Y-77162123D01*
X78013439Y-77162125D01*
X78202595Y-77279245D01*
X78202596Y-77279245D01*
X78202599Y-77279247D01*
X78396524Y-77354374D01*
X78451924Y-77396946D01*
X78475515Y-77462713D01*
X78459804Y-77530793D01*
X78409780Y-77579572D01*
X78396533Y-77585622D01*
X78249757Y-77642484D01*
X78202601Y-77660752D01*
X78202595Y-77660754D01*
X78013439Y-77777874D01*
X78013437Y-77777876D01*
X77849020Y-77927761D01*
X77714943Y-78105308D01*
X77714938Y-78105316D01*
X77615775Y-78304461D01*
X77615769Y-78304476D01*
X77554885Y-78518462D01*
X77554884Y-78518464D01*
X77534357Y-78739999D01*
X77534357Y-78740000D01*
X77554884Y-78961535D01*
X77554885Y-78961537D01*
X77615769Y-79175523D01*
X77615775Y-79175538D01*
X77714938Y-79374683D01*
X77714943Y-79374691D01*
X77849020Y-79552238D01*
X78013437Y-79702123D01*
X78013439Y-79702125D01*
X78202595Y-79819245D01*
X78202596Y-79819245D01*
X78202599Y-79819247D01*
X78396524Y-79894374D01*
X78451924Y-79936946D01*
X78475515Y-80002713D01*
X78459804Y-80070793D01*
X78409780Y-80119572D01*
X78396533Y-80125622D01*
X78248488Y-80182975D01*
X78202601Y-80200752D01*
X78202595Y-80200754D01*
X78013439Y-80317874D01*
X78013437Y-80317876D01*
X77849020Y-80467761D01*
X77714943Y-80645308D01*
X77714938Y-80645316D01*
X77615775Y-80844461D01*
X77615769Y-80844476D01*
X77554885Y-81058462D01*
X77554884Y-81058464D01*
X77534357Y-81279999D01*
X77534357Y-81280000D01*
X77554884Y-81501535D01*
X77554885Y-81501537D01*
X77615769Y-81715523D01*
X77615775Y-81715538D01*
X77714938Y-81914683D01*
X77714943Y-81914691D01*
X77849020Y-82092238D01*
X78013437Y-82242123D01*
X78013439Y-82242125D01*
X78202595Y-82359245D01*
X78202596Y-82359245D01*
X78202599Y-82359247D01*
X78396524Y-82434374D01*
X78451924Y-82476946D01*
X78475515Y-82542713D01*
X78459804Y-82610793D01*
X78409780Y-82659572D01*
X78396533Y-82665622D01*
X78248488Y-82722975D01*
X78202601Y-82740752D01*
X78202595Y-82740754D01*
X78013439Y-82857874D01*
X78013437Y-82857876D01*
X77849020Y-83007761D01*
X77714943Y-83185308D01*
X77714938Y-83185316D01*
X77615775Y-83384461D01*
X77615769Y-83384476D01*
X77554885Y-83598462D01*
X77554884Y-83598464D01*
X77534357Y-83819999D01*
X77534357Y-83820000D01*
X77554884Y-84041535D01*
X77554885Y-84041537D01*
X77615769Y-84255523D01*
X77615775Y-84255538D01*
X77714938Y-84454683D01*
X77714943Y-84454691D01*
X77849020Y-84632238D01*
X78013437Y-84782123D01*
X78013439Y-84782125D01*
X78202595Y-84899245D01*
X78202596Y-84899245D01*
X78202599Y-84899247D01*
X78396524Y-84974374D01*
X78451924Y-85016946D01*
X78475515Y-85082713D01*
X78459804Y-85150793D01*
X78409780Y-85199572D01*
X78396533Y-85205622D01*
X78248488Y-85262975D01*
X78202601Y-85280752D01*
X78202595Y-85280754D01*
X78013439Y-85397874D01*
X78013437Y-85397876D01*
X77849020Y-85547761D01*
X77714943Y-85725308D01*
X77714938Y-85725316D01*
X77615775Y-85924461D01*
X77615769Y-85924476D01*
X77554885Y-86138462D01*
X77554884Y-86138464D01*
X77534357Y-86359999D01*
X77534357Y-86360000D01*
X77554884Y-86581535D01*
X77554885Y-86581537D01*
X77615769Y-86795523D01*
X77615775Y-86795538D01*
X77714938Y-86994683D01*
X77714943Y-86994691D01*
X77849020Y-87172238D01*
X78013437Y-87322123D01*
X78013439Y-87322125D01*
X78202595Y-87439245D01*
X78202596Y-87439245D01*
X78202599Y-87439247D01*
X78396524Y-87514374D01*
X78451924Y-87556946D01*
X78475515Y-87622713D01*
X78459804Y-87690793D01*
X78409780Y-87739572D01*
X78396533Y-87745622D01*
X78272761Y-87793572D01*
X78202601Y-87820752D01*
X78202595Y-87820754D01*
X78013439Y-87937874D01*
X78013437Y-87937876D01*
X77849020Y-88087761D01*
X77714943Y-88265308D01*
X77714938Y-88265316D01*
X77615775Y-88464461D01*
X77615769Y-88464476D01*
X77554885Y-88678462D01*
X77554884Y-88678464D01*
X77534357Y-88899999D01*
X77534357Y-88900000D01*
X77554884Y-89121535D01*
X77554885Y-89121537D01*
X77615769Y-89335523D01*
X77615775Y-89335538D01*
X77714938Y-89534683D01*
X77714943Y-89534691D01*
X77849020Y-89712238D01*
X78013437Y-89862123D01*
X78013439Y-89862125D01*
X78202595Y-89979245D01*
X78202596Y-89979245D01*
X78202599Y-89979247D01*
X78396524Y-90054374D01*
X78451924Y-90096946D01*
X78475515Y-90162713D01*
X78459804Y-90230793D01*
X78409780Y-90279572D01*
X78396533Y-90285622D01*
X78248488Y-90342975D01*
X78202601Y-90360752D01*
X78202595Y-90360754D01*
X78013439Y-90477874D01*
X78013437Y-90477876D01*
X77849020Y-90627761D01*
X77714943Y-90805308D01*
X77714938Y-90805316D01*
X77615775Y-91004461D01*
X77615769Y-91004476D01*
X77554885Y-91218462D01*
X77554884Y-91218464D01*
X77534357Y-91439999D01*
X77534357Y-91440000D01*
X77554884Y-91661535D01*
X77554885Y-91661537D01*
X77615769Y-91875523D01*
X77615770Y-91875525D01*
X77615771Y-91875528D01*
X77615776Y-91875538D01*
X77651918Y-91948120D01*
X77664179Y-92016906D01*
X77637306Y-92081401D01*
X77628599Y-92091073D01*
X75727802Y-93991870D01*
X75723813Y-93995526D01*
X75713206Y-94004426D01*
X75649199Y-94032439D01*
X75580206Y-94021400D01*
X75528135Y-93974814D01*
X75509500Y-93909437D01*
X75509500Y-77402188D01*
X75529185Y-77335149D01*
X75545819Y-77314507D01*
X76751393Y-76108933D01*
X78086710Y-74773615D01*
X78148031Y-74740132D01*
X78217723Y-74745116D01*
G37*
%TD.AperFunction*%
%TA.AperFunction,Conductor*%
G36*
X78217722Y-72205116D02*
G01*
X78219140Y-72205655D01*
X78396524Y-72274374D01*
X78451924Y-72316946D01*
X78475515Y-72382713D01*
X78459804Y-72450793D01*
X78409780Y-72499572D01*
X78396533Y-72505622D01*
X78248488Y-72562975D01*
X78202601Y-72580752D01*
X78202595Y-72580754D01*
X78013439Y-72697874D01*
X78013437Y-72697876D01*
X77849020Y-72847761D01*
X77714943Y-73025308D01*
X77714938Y-73025316D01*
X77615775Y-73224461D01*
X77615769Y-73224476D01*
X77554885Y-73438462D01*
X77554884Y-73438464D01*
X77534357Y-73659999D01*
X77534357Y-73660000D01*
X77554884Y-73881535D01*
X77554885Y-73881538D01*
X77615768Y-74095523D01*
X77615771Y-74095529D01*
X77651917Y-74168120D01*
X77664178Y-74236906D01*
X77637305Y-74301401D01*
X77628598Y-74311073D01*
X74965802Y-76973870D01*
X74961813Y-76977526D01*
X74951206Y-76986426D01*
X74887199Y-77014439D01*
X74818206Y-77003400D01*
X74766135Y-76956814D01*
X74747500Y-76891437D01*
X74747500Y-74608188D01*
X74767185Y-74541149D01*
X74783819Y-74520507D01*
X76298507Y-73005819D01*
X76359830Y-72972334D01*
X76386188Y-72969500D01*
X77199078Y-72969500D01*
X77204481Y-72969735D01*
X77244807Y-72973264D01*
X77283940Y-72962777D01*
X77289162Y-72961619D01*
X77329045Y-72954588D01*
X77329050Y-72954584D01*
X77334099Y-72952747D01*
X77350824Y-72945819D01*
X77355681Y-72943554D01*
X77355684Y-72943554D01*
X77388841Y-72920335D01*
X77393390Y-72917438D01*
X77428455Y-72897194D01*
X77454481Y-72866176D01*
X77458122Y-72862202D01*
X78086709Y-72233615D01*
X78148030Y-72200132D01*
X78217722Y-72205116D01*
G37*
%TD.AperFunction*%
%TA.AperFunction,Conductor*%
G36*
X77557864Y-53685185D02*
G01*
X77603619Y-53737989D01*
X77610091Y-53755565D01*
X77615768Y-53775519D01*
X77615775Y-53775537D01*
X77714936Y-53974679D01*
X77714943Y-53974691D01*
X77849020Y-54152238D01*
X78013437Y-54302123D01*
X78013439Y-54302125D01*
X78202595Y-54419245D01*
X78202596Y-54419245D01*
X78202599Y-54419247D01*
X78396524Y-54494374D01*
X78451924Y-54536946D01*
X78475515Y-54602713D01*
X78459804Y-54670793D01*
X78409780Y-54719572D01*
X78396533Y-54725622D01*
X78287578Y-54767832D01*
X78202601Y-54800752D01*
X78202595Y-54800754D01*
X78013439Y-54917874D01*
X78013437Y-54917876D01*
X77849020Y-55067761D01*
X77714943Y-55245308D01*
X77714936Y-55245320D01*
X77615775Y-55444462D01*
X77615768Y-55444480D01*
X77610091Y-55464435D01*
X77572811Y-55523528D01*
X77509502Y-55553085D01*
X77490825Y-55554500D01*
X59505188Y-55554500D01*
X59438149Y-55534815D01*
X59392394Y-55482011D01*
X59382450Y-55412853D01*
X59411475Y-55349297D01*
X59417507Y-55342819D01*
X61058507Y-53701819D01*
X61119830Y-53668334D01*
X61146188Y-53665500D01*
X77490825Y-53665500D01*
X77557864Y-53685185D01*
G37*
%TD.AperFunction*%
%TD*%
M02*
